<svg width="86" height="56" viewBox="0 0 86 56" fill="none" xmlns="http://www.w3.org/2000/svg">
<path d="M84.3482 1.06809C87.2136 7.07568 85.7068 15.0374 82.543 20.3994C79.0466 26.3556 73.657 30.5936 67.5624 33.7933C55.2568 40.333 40.8152 40.5527 27.2399 38.7737C18.7885 37.67 10.3099 35.7892 2.14705 33.1784C1.38862 32.9345 0.977422 31.7603 1.26285 31.1263C1.61756 30.3121 2.53423 29.9931 3.29265 30.237C10.2043 32.4256 17.6806 34.314 24.8364 35.4355C31.3749 36.4325 38.0173 36.7591 44.6117 36.5298C57.4018 35.9725 69.9204 32.2041 77.7237 21.535C81.3968 16.5244 84.651 8.89735 81.6833 2.72352C81.3514 1.96499 81.485 0.8239 82.1938 0.548237C83.1131 0.211873 84.0163 0.309554 84.3482 1.06809Z" fill="#DE314F"/>
<path d="M12.8252 54.7882C9.12084 47.7801 5.53305 40.7549 1.82872 33.7469C1.05859 32.3047 -0.397957 30.48 0.695392 28.8765C1.21896 28.0552 2.39775 27.4337 3.36028 27.221C4.32282 27.0084 5.141 27.1483 6.14974 26.9748C10.0076 26.2096 13.3252 25.3456 17.183 24.5804C21.549 23.7713 26.6396 22.749 31.0057 21.9398C31.8065 21.8274 32.4556 22.4558 32.525 23.2258C32.602 24.0814 31.4206 25.4118 30.6197 25.5243C23.5278 26.8712 16.8306 27.441 9.8234 28.7806C8.02154 29.1522 6.17092 30.3108 4.36905 30.6823C4.16115 30.7434 3.87123 30.1029 3.60941 30.0393C3.62482 30.2104 3.3938 30.0149 3.60941 30.0393C3.65561 30.0784 3.68777 31.4094 3.73397 31.4485C3.98811 31.9007 4.23947 31.6393 4.49361 32.0915C6.1879 35.2643 7.80924 38.3741 9.54973 41.586C11.4982 45.211 13.5416 49.5077 15.4901 53.1327C15.8982 53.8734 15.7033 54.8142 14.9795 55.308C14.1633 55.7236 13.1871 55.4897 12.8252 54.7882Z" fill="#DE314F"/>
</svg>
