<svg width="95" height="68" viewBox="0 0 95 68" fill="none" xmlns="http://www.w3.org/2000/svg">
<path d="M93.184 23.6388C91.3908 17.229 85.0191 12.223 79.1091 10.2652C72.5578 8.07851 65.7106 8.43134 59.0153 10.03C45.4448 13.1981 34.4224 22.5315 25.3671 32.8008C19.7272 39.191 14.5779 46.1845 10.1466 53.5201C9.73579 54.2027 10.1983 55.3576 10.8304 55.6474C11.6331 56.0274 12.5334 55.6648 12.9442 54.9822C16.7108 48.7875 21.1001 42.4475 25.7524 36.8961C30.0216 31.8444 34.8101 27.2294 39.9281 23.0646C49.9286 15.0716 61.8368 9.67601 74.7321 12.5797C80.7945 13.9379 88.2624 17.5424 90.0879 24.1447C90.3368 24.9344 91.188 25.706 91.9032 25.4474C92.8168 25.0962 93.433 24.4285 93.184 23.6388Z" fill="#DE314F"/>
<path d="M3.9755 30.2196C5.79481 37.9349 7.71319 45.5863 9.53251 53.3016C9.90102 54.8944 10.0041 57.2269 11.8824 57.7156C12.817 57.9899 14.1136 57.6826 14.9785 57.2097C15.8434 56.7368 16.3677 56.0932 17.2416 55.5604C20.6508 53.5993 23.718 52.068 27.1271 50.1068C30.948 47.8445 35.4549 45.2662 39.2758 43.0039C39.9529 42.5618 40.0285 41.6615 39.5743 41.0359C39.0696 40.3408 37.3045 40.1158 36.6274 40.5578C30.3995 44.208 24.9802 48.1839 18.821 51.7839C17.2193 52.6892 15.0633 53.0337 13.4617 53.939C13.2649 54.0297 13.4679 54.7029 13.3124 54.923C13.1661 55.0832 13.2115 54.784 13.3124 54.923C13.5971 55.4598 13.3124 54.923 13.3124 54.923C13.3215 54.8631 12.4703 53.8395 12.4794 53.7796C12.3734 53.2719 12.7347 53.3034 12.6287 52.7957C11.8179 49.2914 10.9937 45.8825 10.192 42.3184C9.27531 38.3063 7.98839 33.7258 7.07165 29.7137C6.89193 28.8874 6.12629 28.3069 5.25631 28.411C4.36818 28.6349 3.7867 29.4531 3.9755 30.2196Z" fill="#DE314F"/>
</svg>
