<svg width="350" height="356" viewBox="0 0 350 356" fill="none" xmlns="http://www.w3.org/2000/svg">
<path d="M468 0H84V232H468V0Z" fill="white"/>
<path d="M276.841 81C276.841 81 279.449 99.7393 276.841 110L251 109C251 109 256.248 90.1899 252.988 82L276.841 81Z" fill="#EBEBEB"/>
<path d="M250.996 78C250.996 78 249.394 99.7036 248 104L270.972 106L274.967 103C274.967 103 277.313 84.3271 276.965 79L250.996 78Z" fill="#30394F"/>
<path d="M272 103L271 106L275 103H272Z" fill="#1F283D"/>
<path d="M272 87.9299C271.989 87.9645 270.626 88.0687 269 87.9299C267.253 87.7854 265.419 87.1875 263 86.987C260.575 86.8094 258.751 86.1726 257 86.0442C255.369 85.9291 253.995 86.0793 254 86.0442C254.005 86.0115 255.359 85.9736 257 86.0442C258.641 86.1148 260.51 86.7933 263 86.987C265.488 87.1813 267.385 86.8037 269 86.987C270.616 87.1704 272.01 87.8977 272 87.9299Z" fill="white"/>
<path d="M271 92.9525C270.995 92.9887 269.548 93.0276 268 92.9525C266.452 92.8779 264.349 92.203 262 92.0098C259.65 91.8161 257.528 92.188 256 92.0098C254.472 91.8317 253.991 91.1034 254 91.0671C254.01 91.0293 255.464 90.9371 257 91.0671C258.661 91.2075 260.717 91.8172 263 92.0098C265.283 92.1921 267.338 92.8199 269 92.9525C270.538 93.0763 271.005 92.9147 271 92.9525Z" fill="white"/>
<path d="M269.881 97.9409C269.865 98.0476 266.325 97.517 261.938 96.9942C257.55 96.4713 253.978 96.1541 253.994 96.0474C254.01 95.9407 257.55 96.4713 261.938 96.9942C266.325 97.517 269.898 97.8342 269.881 97.9409Z" fill="white"/>
<path d="M467.957 231.951C467.956 230.662 468.054 141.741 467.957 0.00553743C364.365 0.0181061 229.822 -0.0117445 84.0017 0.00553743C83.9962 81.9627 84.0064 160.782 84.0017 231.951C309.01 232.062 466.243 231.95 467.957 231.951C466.244 231.952 309.011 231.84 84.0017 231.951C83.997 160.782 84.0072 81.9627 84.0017 0.00553743C229.822 0.0243904 364.365 -0.00703124 467.957 0.00553743C467.859 141.74 467.958 230.663 467.957 231.951Z" fill="#1F283D"/>
<path d="M135.159 39C135.159 39 132.551 57.7393 135.159 68L161 67C161 67 155.752 48.1891 159.012 40L135.159 39Z" fill="#E0E0E0"/>
<path d="M134 40C134 40 133.956 60.688 135 67L161 66C161 66 159.129 45.4351 160 40H134Z" fill="#DE314F"/>
<path d="M154.979 48.1356C154.985 48.2357 150.679 48.366 145.992 48.6173C141.304 48.8685 138.01 49.1455 138.003 49.0455C137.996 48.9454 141.304 48.8685 145.992 48.6173C150.679 48.366 154.972 48.0355 154.979 48.1356Z" fill="white"/>
<path d="M154.979 53.1344C154.985 53.2345 151.678 53.3114 146.99 53.5627C142.302 53.814 138.01 54.1446 138.003 54.0445C137.996 53.9444 142.302 53.814 146.99 53.5627C151.678 53.3114 154.972 53.0343 154.979 53.1344Z" fill="white"/>
<path d="M150.967 57.224C150.974 57.39 148.736 57.4143 145.985 57.6489C143.234 57.8835 141.01 58.2397 141.003 58.0738C140.996 57.9078 143.234 57.8835 145.985 57.6489C148.736 57.4143 150.96 57.0581 150.967 57.224Z" fill="white"/>
<path d="M134 70C134 70 133.956 90.6888 135 97L161 96C161 96 159.129 75.4351 160 70H134Z" fill="#DE314F"/>
<path d="M154.979 78.1344C154.985 78.2345 150.679 78.3649 145.992 78.6162C141.304 78.8675 138.01 79.1446 138.003 79.0445C137.996 78.9444 141.304 78.8675 145.992 78.6162C150.679 78.3649 154.972 78.0343 154.979 78.1344Z" fill="white"/>
<path d="M154.979 83.1345C154.985 83.2346 151.678 83.3114 146.99 83.5627C142.302 83.814 138.01 84.1446 138.003 84.0445C137.996 83.9444 142.302 83.814 146.99 83.5627C151.678 83.3114 154.972 83.0344 154.979 83.1345Z" fill="white"/>
<path d="M150.967 87.2239C150.974 87.39 148.736 87.4142 145.985 87.6489C143.234 87.8835 141.01 88.2398 141.003 88.0738C140.996 87.9078 143.234 87.8835 145.985 87.6489C148.736 87.4142 150.96 87.0579 150.967 87.2239Z" fill="white"/>
<path d="M134 105C134 105 133.956 125.688 135 132L161 131C161 131 159.129 110.435 160 105H134Z" fill="#1F283D"/>
<path d="M154.979 113.134C154.985 113.235 150.679 113.365 145.992 113.616C141.304 113.868 138.01 114.145 138.003 114.044C137.996 113.944 141.304 113.868 145.992 113.616C150.679 113.365 154.972 113.034 154.979 113.134Z" fill="white"/>
<path d="M154.979 118.136C154.985 118.236 151.678 118.313 146.99 118.564C142.302 118.815 138.01 119.146 138.003 119.046C137.996 118.945 142.302 118.815 146.99 118.564C151.678 118.313 154.972 118.036 154.979 118.136Z" fill="white"/>
<path d="M150.967 122.224C150.974 122.39 148.736 122.414 145.985 122.649C143.234 122.884 141.01 123.24 141.003 123.074C140.996 122.908 143.234 122.884 145.985 122.649C148.736 122.414 150.96 122.058 150.967 122.224Z" fill="white"/>
<path d="M131 145C131 145 130.956 165.688 132 172L158 171C158 171 156.129 150.435 157 145H131Z" fill="#30394F"/>
<path d="M151.979 153.136C151.985 153.236 148.678 153.312 143.99 153.564C139.302 153.815 135.01 154.146 135.003 154.045C134.996 153.945 139.302 153.815 143.99 153.564C148.678 153.312 151.972 153.035 151.979 153.136Z" fill="white"/>
<path d="M151.979 158.136C151.985 158.236 147.679 158.366 142.992 158.617C138.304 158.869 135.01 159.146 135.003 159.045C134.996 158.945 138.304 158.869 142.992 158.617C147.679 158.366 151.972 158.035 151.979 158.136Z" fill="white"/>
<path d="M147.967 162.224C147.974 162.39 145.736 162.414 142.985 162.649C140.234 162.884 138.01 163.24 138.003 163.074C137.996 162.908 140.234 162.884 142.985 162.649C145.736 162.414 147.96 162.058 147.967 162.224Z" fill="white"/>
<path d="M165 145C165 145 164.956 165.688 166 172L192 171C192 171 190.129 150.435 191 145H165Z" fill="#1F283D"/>
<path d="M185.979 153.134C185.985 153.235 182.678 153.311 177.99 153.563C173.302 153.814 169.01 154.145 169.003 154.044C168.996 153.944 173.302 153.814 177.99 153.563C182.678 153.311 185.972 153.034 185.979 153.134Z" fill="white"/>
<path d="M185.979 158.136C185.985 158.236 182.678 158.313 177.99 158.564C173.302 158.815 169.01 159.146 169.003 159.045C168.996 158.945 173.302 158.815 177.99 158.564C182.678 158.313 185.972 158.036 185.979 158.136Z" fill="white"/>
<path d="M181.967 162.224C181.974 162.39 179.736 162.414 176.985 162.649C174.234 162.884 172.01 163.24 172.003 163.074C171.996 162.908 174.234 162.884 176.985 162.649C179.736 162.414 181.96 162.058 181.967 162.224Z" fill="white"/>
<path d="M193 147C193 147 192.956 167.688 194 174L220 173C220 173 218.129 152.435 219 147H193Z" fill="#DE314F"/>
<path d="M213.979 155.134C213.985 155.234 209.679 155.365 204.992 155.616C200.304 155.867 197.01 156.145 197.003 156.044C196.996 155.944 200.304 155.867 204.992 155.616C209.679 155.365 213.972 155.034 213.979 155.134Z" fill="white"/>
<path d="M213.979 160.135C213.985 160.235 209.679 160.365 204.992 160.616C200.304 160.868 197.01 161.145 197.003 161.045C196.996 160.944 200.304 160.868 204.992 160.616C209.679 160.365 213.972 160.034 213.979 160.135Z" fill="white"/>
<path d="M209.967 164.224C209.974 164.39 207.736 164.414 204.985 164.649C202.234 164.883 200.01 165.24 200.003 165.074C199.996 164.908 202.234 164.883 204.985 164.649C207.736 164.414 209.96 164.058 209.967 164.224Z" fill="white"/>
<path d="M160 181C160 181 159.956 201.688 161 208L187 207C187 207 185.129 186.435 186 181H160Z" fill="#30394F"/>
<path d="M180.979 189.136C180.985 189.236 176.679 189.366 171.992 189.617C167.304 189.869 164.01 190.146 164.003 190.046C163.996 189.945 167.304 189.869 171.992 189.617C176.679 189.366 180.972 189.036 180.979 189.136Z" fill="white"/>
<path d="M180.979 194.134C180.985 194.234 177.678 194.311 172.99 194.563C168.302 194.814 164.01 195.144 164.003 195.044C163.996 194.944 168.302 194.814 172.99 194.563C177.678 194.311 180.972 194.034 180.979 194.134Z" fill="white"/>
<path d="M176.967 198.224C176.974 198.39 174.736 198.414 171.985 198.649C169.234 198.884 167.01 199.24 167.003 199.074C166.996 198.908 169.234 198.884 171.985 198.649C174.736 198.414 176.96 198.058 176.967 198.224Z" fill="white"/>
<path d="M242 135C242 135 241.956 155.688 243 162L269 161C269 161 267.129 140.435 268 135H242Z" fill="#1F283D"/>
<path d="M262.979 143.136C262.985 143.236 259.678 143.313 254.99 143.564C250.302 143.815 246.01 144.146 246.003 144.046C245.996 143.945 250.302 143.815 254.99 143.564C259.678 143.313 262.972 143.035 262.979 143.136Z" fill="white"/>
<path d="M262.979 148.135C262.985 148.235 259.678 148.312 254.99 148.563C250.302 148.814 246.01 149.145 246.003 149.045C245.996 148.944 250.302 148.814 254.99 148.563C259.678 148.312 262.972 148.034 262.979 148.135Z" fill="white"/>
<path d="M258.967 152.224C258.974 152.39 256.736 152.414 253.985 152.649C251.234 152.883 249.01 153.24 249.003 153.074C248.996 152.908 251.234 152.883 253.985 152.649C256.736 152.414 258.96 152.058 258.967 152.224Z" fill="white"/>
<path d="M297 182C297 182 296.956 202.688 298 209L324 208C324 208 322.129 187.435 323 182H297Z" fill="#30394F"/>
<path d="M317.979 190.136C317.985 190.236 314.678 190.312 309.99 190.564C305.302 190.815 301.01 191.146 301.003 191.045C300.996 190.945 305.302 190.815 309.99 190.564C314.678 190.312 317.972 190.035 317.979 190.136Z" fill="white"/>
<path d="M317.979 195.136C317.985 195.236 314.678 195.312 309.99 195.564C305.302 195.815 301.01 196.146 301.003 196.045C300.996 195.945 305.302 195.815 309.99 195.564C314.678 195.312 317.972 195.035 317.979 195.136Z" fill="white"/>
<path d="M313.967 199.224C313.974 199.39 311.736 199.414 308.985 199.649C306.234 199.884 304.01 200.24 304.003 200.074C303.996 199.908 306.234 199.884 308.985 199.649C311.736 199.414 313.96 199.058 313.967 199.224Z" fill="white"/>
<path d="M297 145C297 145 296.956 165.688 298 172L324 171C324 171 322.129 150.435 323 145H297Z" fill="#30394F"/>
<path d="M317.979 153.136C317.985 153.236 314.678 153.312 309.99 153.564C305.302 153.815 301.01 154.146 301.003 154.045C300.996 153.945 305.302 153.815 309.99 153.564C314.678 153.312 317.972 153.035 317.979 153.136Z" fill="white"/>
<path d="M317.979 158.136C317.985 158.236 314.678 158.312 309.99 158.564C305.302 158.815 301.01 159.146 301.003 159.045C300.996 158.945 305.302 158.815 309.99 158.564C314.678 158.312 317.972 158.035 317.979 158.136Z" fill="white"/>
<path d="M313.967 162.224C313.974 162.39 311.736 162.414 308.985 162.649C306.234 162.884 304.01 163.24 304.003 163.074C303.996 162.908 306.234 162.884 308.985 162.649C311.736 162.414 313.96 162.058 313.967 162.224Z" fill="white"/>
<path d="M173 105C173 105 172.956 125.688 174 132L200 131C200 131 198.129 110.435 199 105H173Z" fill="#30394F"/>
<path d="M193.979 113.136C193.985 113.236 189.679 113.366 184.992 113.617C180.304 113.869 177.01 114.146 177.003 114.045C176.996 113.945 180.304 113.869 184.992 113.617C189.679 113.366 193.972 113.035 193.979 113.136Z" fill="white"/>
<path d="M193.979 118.136C193.985 118.236 190.678 118.313 185.99 118.564C181.302 118.815 177.01 119.146 177.003 119.046C176.996 118.945 181.302 118.815 185.99 118.564C190.678 118.313 193.972 118.036 193.979 118.136Z" fill="white"/>
<path d="M189.967 122.225C189.974 122.391 187.736 122.415 184.985 122.65C182.234 122.885 180.01 123.241 180.003 123.075C179.996 122.909 182.234 122.885 184.985 122.65C187.736 122.415 189.96 122.059 189.967 122.225Z" fill="white"/>
<path d="M163 40C163 40 162.956 60.688 164 67L190 66C190 66 188.129 45.4351 189 40H163Z" fill="#DE314F"/>
<path d="M183.979 48.1344C183.985 48.2344 180.678 48.3114 175.99 48.5627C171.302 48.814 167.01 49.1445 167.003 49.0445C166.996 48.9444 171.302 48.814 175.99 48.5627C180.678 48.3114 183.972 48.0343 183.979 48.1344Z" fill="white"/>
<path d="M183.979 53.1344C183.985 53.2344 179.679 53.3649 174.992 53.6162C170.304 53.8675 167.01 54.1445 167.003 54.0445C166.996 53.9444 170.304 53.8675 174.992 53.6162C179.679 53.3649 183.972 53.0343 183.979 53.1344Z" fill="white"/>
<path d="M179.967 57.2239C179.974 57.3899 177.736 57.4142 174.985 57.6488C172.234 57.8835 170.01 58.2397 170.003 58.0738C169.996 57.9078 172.234 57.8835 174.985 57.6488C177.736 57.4142 179.96 57.058 179.967 57.2239Z" fill="white"/>
<path d="M164 70C164 70 163.956 90.688 165 97L191 96C191 96 189.129 75.4351 190 70H164Z" fill="#DE314F"/>
<path d="M184.979 78.1359C184.985 78.2363 180.679 78.3663 175.992 78.6175C171.304 78.8687 168.01 79.1461 168.003 79.0456C167.996 78.9452 171.304 78.8687 175.992 78.6175C180.679 78.3663 184.972 78.0354 184.979 78.1359Z" fill="white"/>
<path d="M184.979 83.1344C184.985 83.2345 181.678 83.3114 176.99 83.5627C172.302 83.814 168.01 84.1445 168.003 84.0445C167.996 83.9444 172.302 83.814 176.99 83.5627C181.678 83.3114 184.972 83.0343 184.979 83.1344Z" fill="white"/>
<path d="M180.967 87.2239C180.974 87.39 178.736 87.4142 175.985 87.6489C173.234 87.8835 171.01 88.2398 171.003 88.0738C170.996 87.9078 173.234 87.8835 175.985 87.6489C178.736 87.4142 180.96 87.0579 180.967 87.2239Z" fill="white"/>
<path d="M195 40C195 40 194.956 60.688 196 67L222 66C222 66 220.129 45.4351 221 40H195Z" fill="#DE314F"/>
<path d="M215.979 48.1344C215.985 48.2344 211.679 48.3649 206.992 48.6162C202.304 48.8675 199.01 49.1445 199.003 49.0445C198.996 48.9444 202.304 48.8675 206.992 48.6162C211.679 48.3649 215.972 48.0343 215.979 48.1344Z" fill="white"/>
<path d="M215.979 53.1344C215.985 53.2344 211.679 53.3649 206.992 53.6162C202.304 53.8675 199.01 54.1445 199.003 54.0445C198.996 53.9444 202.304 53.8675 206.992 53.6162C211.679 53.3649 215.972 53.0343 215.979 53.1344Z" fill="white"/>
<path d="M211.967 57.2239C211.974 57.3899 209.736 57.4142 206.985 57.6488C204.234 57.8835 202.01 58.2397 202.003 58.0738C201.996 57.9078 204.234 57.8835 206.985 57.6488C209.736 57.4142 211.96 57.058 211.967 57.2239Z" fill="white"/>
<path d="M227 40C227 40 226.956 60.688 228 67L254 66C254 66 252.129 45.4351 253 40H227Z" fill="#DE314F"/>
<path d="M247.979 48.1356C247.985 48.2356 244.678 48.3125 239.99 48.5637C235.302 48.815 231.01 49.1455 231.003 49.0455C230.996 48.9454 235.302 48.815 239.99 48.5637C244.678 48.3125 247.972 48.0355 247.979 48.1356Z" fill="white"/>
<path d="M247.979 53.1346C247.985 53.2346 243.679 53.365 238.992 53.6163C234.304 53.8675 231.01 54.1445 231.003 54.0445C230.996 53.9444 234.304 53.8675 238.992 53.6163C243.679 53.365 247.972 53.0345 247.979 53.1346Z" fill="white"/>
<path d="M243.967 57.224C243.974 57.39 241.736 57.4143 238.985 57.6489C236.234 57.8835 234.01 58.2397 234.003 58.0738C233.996 57.9078 236.234 57.8835 238.985 57.6489C241.736 57.4143 243.96 57.0581 243.967 57.224Z" fill="white"/>
<path d="M259 40C259 40 258.956 60.688 260 67L286 66C286 66 284.129 45.4351 285 40H259Z" fill="#DE314F"/>
<path d="M279.979 48.1356C279.985 48.2357 276.678 48.3125 271.99 48.5638C267.302 48.815 263.01 49.1455 263.003 49.0455C262.996 48.9454 267.302 48.815 271.99 48.5638C276.678 48.3125 279.972 48.0355 279.979 48.1356Z" fill="white"/>
<path d="M279.979 53.1344C279.985 53.2345 276.678 53.3114 271.99 53.5627C267.302 53.814 263.01 54.1446 263.003 54.0445C262.996 53.9444 267.302 53.814 271.99 53.5627C276.678 53.3114 279.972 53.0343 279.979 53.1344Z" fill="white"/>
<path d="M275.967 57.224C275.974 57.39 273.736 57.4143 270.985 57.6489C268.234 57.8835 266.01 58.2397 266.003 58.0738C265.996 57.9078 268.234 57.8835 270.985 57.6489C273.736 57.4143 275.96 57.0581 275.967 57.224Z" fill="white"/>
<path d="M214 170C214 170 213.956 190.688 215 197L241 196C241 196 239.129 175.435 240 170H214Z" fill="#DE314F"/>
<path d="M234.979 178.136C234.985 178.236 231.678 178.313 226.99 178.564C222.302 178.815 218.01 179.146 218.003 179.046C217.996 178.945 222.302 178.815 226.99 178.564C231.678 178.313 234.972 178.036 234.979 178.136Z" fill="white"/>
<path d="M234.979 183.136C234.985 183.236 231.678 183.313 226.99 183.564C222.302 183.815 218.01 184.146 218.003 184.046C217.996 183.945 222.302 183.815 226.99 183.564C231.678 183.313 234.972 183.036 234.979 183.136Z" fill="white"/>
<path d="M230.967 187.224C230.974 187.39 228.736 187.414 225.985 187.649C223.234 187.884 221.01 188.24 221.003 188.074C220.996 187.908 223.234 187.884 225.985 187.649C228.736 187.414 230.96 187.058 230.967 187.224Z" fill="white"/>
<path d="M294 40C294 40 293.956 60.688 295 67L321 66C321 66 319.129 45.4351 320 40H294Z" fill="#DE314F"/>
<path d="M314.979 48.1357C314.985 48.2359 311.678 48.3126 306.99 48.5639C302.302 48.8151 298.01 49.1457 298.003 49.0455C297.996 48.9453 302.302 48.8151 306.99 48.5639C311.678 48.3126 314.972 48.0355 314.979 48.1357Z" fill="white"/>
<path d="M314.979 53.1344C314.985 53.2344 310.679 53.3649 305.992 53.6162C301.304 53.8675 298.01 54.1445 298.003 54.0445C297.996 53.9444 301.304 53.8675 305.992 53.6162C310.679 53.3649 314.972 53.0343 314.979 53.1344Z" fill="white"/>
<path d="M310.967 57.2242C310.974 57.3903 308.736 57.4144 305.985 57.649C303.234 57.8836 301.01 58.2399 301.003 58.0738C300.996 57.9077 303.234 57.8836 305.985 57.649C308.736 57.4144 310.96 57.0581 310.967 57.2242Z" fill="white"/>
<path d="M343.047 54.4263C347.734 54.1678 351.046 54.1565 351.035 53.9857C351.023 53.8149 347.674 53.2458 342.986 53.5043C338.299 53.7629 334.049 54.7512 334.06 54.922C334.072 55.0927 338.359 54.6848 343.047 54.4263Z" fill="white"/>
<path d="M343.047 59.4263C347.734 59.1678 351.046 59.1565 351.035 58.9857C351.023 58.8149 347.674 58.2458 342.986 58.5043C338.299 58.7629 334.049 59.7512 334.06 59.922C334.072 60.0927 338.359 59.6848 343.047 59.4263Z" fill="white"/>
<path d="M346.967 63.218C346.974 63.3839 344.736 63.4082 341.985 63.6429C339.234 63.8776 337.01 64.2338 337.003 64.0679C336.996 63.902 339.234 63.8776 341.985 63.6429C344.736 63.4082 346.96 63.0521 346.967 63.218Z" fill="white"/>
<path d="M301 57C301 57 300.956 77.688 302 84L328 83C328 83 326.129 62.4351 327 57H301Z" fill="#30394F"/>
<path d="M321.979 65.1357C321.985 65.2359 318.678 65.3126 313.99 65.5639C309.302 65.8151 305.01 66.1457 305.003 66.0455C304.996 65.9453 309.302 65.8151 313.99 65.5639C318.678 65.3126 321.972 65.0355 321.979 65.1357Z" fill="white"/>
<path d="M321.979 70.1345C321.985 70.2345 318.678 70.3115 313.99 70.5627C309.302 70.814 305.01 71.1445 305.003 71.0445C304.996 70.9444 309.302 70.814 313.99 70.5627C318.678 70.3115 321.972 70.0345 321.979 70.1345Z" fill="white"/>
<path d="M317.967 74.2241C317.974 74.3901 315.736 74.4143 312.985 74.6489C310.234 74.8836 308.01 75.2398 308.003 75.0738C307.996 74.9078 310.234 74.8836 312.985 74.6489C315.736 74.4143 317.96 74.0581 317.967 74.2241Z" fill="white"/>
<path d="M298 102C298 102 297.956 122.689 299 129L325 128C325 128 323.129 107.435 324 102H298Z" fill="#DE314F"/>
<path d="M319.972 111.024C319.979 111.139 316.673 111.224 311.987 111.507C307.301 111.791 303.01 112.165 303.003 112.051C302.996 111.936 307.301 111.791 311.987 111.507C316.673 111.224 319.965 110.91 319.972 111.024Z" fill="white"/>
<path d="M319.972 115.024C319.979 115.139 316.673 115.224 311.987 115.507C307.301 115.791 303.01 116.165 303.003 116.051C302.996 115.936 307.301 115.791 311.987 115.507C316.673 115.224 319.965 114.91 319.972 115.024Z" fill="white"/>
<path d="M315.985 119.447C315.992 119.562 313.75 119.582 310.994 119.749C308.238 119.916 306.01 120.165 306.003 120.051C305.996 119.936 308.238 119.916 310.994 119.749C313.75 119.582 315.978 119.332 315.985 119.447Z" fill="white"/>
<path d="M224.841 61C224.841 61 227.449 79.7393 224.841 90L199 89C199 89 204.248 70.1899 200.988 62L224.841 61Z" fill="#EBEBEB"/>
<path d="M198.996 58C198.996 58 197.394 79.7034 196 83.9993L218.972 85.9993L222.967 82.9993C222.967 82.9993 225.313 64.3265 224.965 59L198.996 58Z" fill="#30394F"/>
<path d="M220 83L219 86L223 83H220Z" fill="#1F283D"/>
<path d="M220 67.9299C219.989 67.9645 218.626 68.0687 217 67.9299C215.253 67.7854 213.419 67.1875 211 66.987C208.575 66.8094 206.751 66.1726 205 66.0442C203.369 65.9291 201.995 66.0793 202 66.0442C202.005 66.0115 203.359 65.9736 205 66.0442C206.641 66.1148 208.51 66.7933 211 66.987C213.488 67.1813 215.385 66.8037 217 66.987C218.616 67.1704 220.01 67.8977 220 67.9299Z" fill="white"/>
<path d="M219 72.9525C218.995 72.9887 217.548 73.0276 216 72.9525C214.452 72.8779 212.349 72.203 210 72.0098C207.65 71.8161 205.528 72.188 204 72.0098C202.472 71.8317 201.991 71.1034 202 71.0671C202.01 71.0293 203.464 70.9371 205 71.0671C206.661 71.2075 208.717 71.8172 211 72.0098C213.283 72.1921 215.338 72.8199 217 72.9525C218.538 73.0763 219.005 72.9147 219 72.9525Z" fill="white"/>
<path d="M217.881 77.9408C217.865 78.0477 214.325 77.517 209.938 76.9942C205.55 76.4713 201.978 76.1543 201.994 76.0475C202.01 75.9407 205.55 76.4713 209.938 76.9942C214.325 77.517 217.898 77.834 217.881 77.9408Z" fill="white"/>
<path d="M143.996 84C143.996 84 142.394 105.705 141 110L163.972 112L167.967 109C167.967 109 170.313 90.3269 169.965 85L143.996 84Z" fill="#30394F"/>
<path d="M165 109L164 112L168 109H165Z" fill="#1F283D"/>
<path d="M165 93.9299C164.989 93.9645 163.626 94.0687 162 93.9299C160.253 93.7854 158.419 93.1875 156 92.987C153.575 92.8094 151.751 92.1726 150 92.0442C148.369 91.9291 146.995 92.0793 147 92.0442C147.005 92.0115 148.359 91.9736 150 92.0442C151.641 92.1148 153.51 92.7933 156 92.987C158.489 93.1813 160.385 92.8037 162 92.987C163.616 93.1704 165.01 93.8972 165 93.9299Z" fill="white"/>
<path d="M164 98.9525C163.995 98.9887 162.548 99.0276 161 98.9525C159.452 98.8779 157.35 98.203 155 98.0098C152.65 97.8161 150.528 98.188 149 98.0098C147.472 97.8317 146.991 97.1034 147 97.0671C147.01 97.0293 148.463 96.9371 150 97.0671C151.661 97.2075 153.718 97.8166 156 98.0098C158.283 98.1921 160.338 98.8199 162 98.9525C163.538 99.0763 164.005 98.9147 164 98.9525Z" fill="white"/>
<path d="M162.88 103.941C162.864 104.048 159.324 103.517 154.937 102.994C150.549 102.471 146.977 102.155 146.993 102.048C147.009 101.94 150.549 102.471 154.937 102.994C159.324 103.517 162.897 103.834 162.88 103.941Z" fill="white"/>
<path d="M120 44H101V48H120V44Z" fill="#DE314F"/>
<path d="M120 149H101V153H120V149Z" fill="#1F283D"/>
<path d="M120 184H101V188H120V184Z" fill="#1F283D"/>
<path d="M266 18H200V22H266V18Z" fill="#E0E0E0"/>
<path d="M460.035 31.1965C460.035 31.3054 378.984 31.3931 279.026 31.3931C179.034 31.3931 98 31.3046 98 31.1965C98 31.0877 179.033 31 279.026 31C378.985 31 460.035 31.0877 460.035 31.1965Z" fill="#1F283D"/>
<path d="M357.299 212.516C357.299 212.734 299.28 212.909 227.727 212.909C156.148 212.909 98.1416 212.732 98.1416 212.516C98.1416 212.3 156.148 212.123 227.727 212.123C299.281 212.122 357.299 212.298 357.299 212.516Z" fill="#1F283D"/>
<path d="M127.193 213.297C127.08 213.297 126.989 168.994 126.989 114.358C126.989 59.702 127.081 15.4092 127.193 15.4092C127.306 15.4092 127.398 59.702 127.398 114.358C127.398 168.994 127.307 213.297 127.193 213.297Z" fill="#1F283D"/>
<path d="M348.086 214.32C347.973 214.32 347.882 170.09 347.882 115.542C347.882 60.9756 347.974 16.7559 348.086 16.7559C348.199 16.7559 348.29 60.9764 348.29 115.542C348.29 170.09 348.199 214.32 348.086 214.32Z" fill="#1F283D"/>
<path d="M320.465 97.5706C320.467 97.5643 320.573 97.6028 320.778 97.6845C320.999 97.7756 321.298 97.8997 321.681 98.0576C322.444 98.4473 323.597 99.0074 324.882 100.028C326.165 101.035 327.644 102.43 328.936 104.372C329.599 105.33 330.184 106.435 330.725 107.64C331.229 108.862 331.652 110.199 331.923 111.644C332.452 114.531 332.25 117.85 331.095 121.111C329.949 124.364 327.857 127.567 324.859 130.052C321.878 132.55 317.934 134.194 313.714 134.533C309.507 134.914 305.015 134.046 301.101 131.831C297.201 129.595 294.15 126.171 292.375 122.331C290.553 118.501 290.118 114.219 290.954 110.417C291.786 106.609 293.727 103.282 296.217 100.887C297.463 99.6876 298.848 98.7175 300.286 98.0081C301.714 97.2752 303.185 96.7811 304.618 96.4724C307.483 95.8063 310.165 95.8463 312.473 95.9807C314.79 96.1401 316.763 96.4732 318.364 96.7756C319.966 97.0796 321.2 97.364 322.035 97.5612C322.436 97.6602 322.75 97.7379 322.982 97.7953C323.195 97.8503 323.303 97.8817 323.302 97.8887C323.3 97.8958 323.188 97.8777 322.972 97.8361C322.738 97.7882 322.422 97.7238 322.017 97.6413C321.176 97.4708 319.939 97.2116 318.335 96.9327C316.733 96.6554 314.762 96.3459 312.458 96.2093C310.162 96.0969 307.502 96.0796 304.681 96.7544C303.27 97.0678 301.826 97.5627 300.428 98.2902C299.02 98.994 297.669 99.95 296.452 101.131C294.021 103.49 292.126 106.762 291.322 110.496C290.514 114.224 290.946 118.405 292.737 122.162C294.482 125.926 297.482 129.285 301.303 131.476C305.138 133.647 309.548 134.503 313.679 134.134C317.824 133.806 321.688 132.203 324.618 129.761C327.566 127.331 329.634 124.19 330.775 120.997C331.924 117.796 332.14 114.538 331.638 111.694C331.38 110.271 330.972 108.95 330.485 107.74C329.96 106.548 329.392 105.452 328.745 104.499C327.487 102.567 326.039 101.17 324.783 100.153C323.524 99.122 322.392 98.5439 321.645 98.1315C321.27 97.9587 320.977 97.8228 320.76 97.723C320.563 97.6295 320.462 97.5777 320.465 97.5706Z" fill="#1F283D"/>
<path d="M335.75 94.1633C331.804 97.3036 328.662 99.9209 328.733 100.009C328.803 100.097 332.058 97.6232 336.004 94.4829C339.95 91.3426 343.092 88.7253 343.021 88.6371C342.951 88.5488 339.696 91.023 335.75 94.1633Z" fill="#1F283D"/>
<path d="M342.273 99.3201C342.275 99.3476 341.916 99.397 341.265 99.4622C340.533 99.5259 339.606 99.606 338.5 99.7018C336.161 99.8872 332.923 100.116 329.326 100.345L329.03 100.364L329.117 100.083C329.151 99.9752 329.187 99.8582 329.223 99.7419C330.313 96.1944 331.872 93.1905 333.176 91.152C333.827 90.1292 334.403 89.335 334.82 88.8024C335.239 88.2698 335.49 87.9918 335.51 88.0075C335.534 88.0255 335.326 88.3374 334.949 88.8959C334.573 89.4552 334.037 90.269 333.423 91.3036C332.19 93.3656 330.691 96.3546 329.615 99.8629C329.578 99.9783 329.543 100.094 329.509 100.2L329.3 99.9375C332.897 99.7113 336.138 99.529 338.482 99.4175C339.591 99.3727 340.52 99.3358 341.255 99.3067C341.91 99.2886 342.272 99.2918 342.273 99.3201Z" fill="#1F283D"/>
<path d="M284.62 216.098C284.62 216.098 264.354 220.697 258.135 222.536C251.917 224.376 246.16 225.756 247.311 228.515C248.463 231.274 241.093 254.27 241.093 254.27L230.729 279.336L245.468 290.834L257.213 268.068L267.807 319.808H338.97C338.97 319.808 336.897 233.574 333.442 229.205C329.988 224.836 302.582 215.408 295.903 214.718C289.226 214.028 284.62 216.098 284.62 216.098Z" fill="#DE314F" stroke="#141C2D" stroke-width="0.43" stroke-miterlimit="10" stroke-linecap="round" stroke-linejoin="round"/>
<path d="M318.125 265.679C318.125 265.679 313.447 255.951 310.33 245.445" stroke="#141C2D" stroke-width="0.43" stroke-miterlimit="10" stroke-linecap="round" stroke-linejoin="round"/>
<path d="M311.516 263.798C313.383 266.057 316.35 268.43 320.853 269.179" stroke="#141C2D" stroke-width="0.43" stroke-miterlimit="10" stroke-linecap="round" stroke-linejoin="round"/>
<path d="M308.772 259.062C308.772 259.062 309.153 260.256 310.118 261.835" stroke="#141C2D" stroke-width="0.43" stroke-miterlimit="10" stroke-linecap="round" stroke-linejoin="round"/>
<path d="M253.268 246.653L257.215 268.068L250.017 246.649" stroke="#141C2D" stroke-width="0.43" stroke-miterlimit="10" stroke-linecap="round" stroke-linejoin="round"/>
<path d="M251.89 239.174L252.719 243.673" stroke="#141C2D" stroke-width="0.43" stroke-miterlimit="10" stroke-linecap="round" stroke-linejoin="round"/>
<path d="M275.253 214.725C275.253 214.725 270.034 221.023 269.599 227.103C269.164 233.184 270.201 252.501 270.201 252.501C270.201 252.501 280.908 246.647 285.257 246.647C289.607 246.647 299.611 255.116 299.611 255.116C299.611 255.116 306.353 233.4 302.873 220.588C299.394 207.776 284.388 204.518 275.253 214.725Z" fill="white" stroke="#141C2D" stroke-width="0.43" stroke-miterlimit="10" stroke-linecap="round" stroke-linejoin="round"/>
<path d="M275.688 216.896C275.688 216.896 277.427 224.931 278.732 230.143C280.038 235.355 283.517 247.516 285.257 246.647C286.996 245.778 294.609 227.754 294.826 223.194C294.92 221.229 298.834 212.078 295.375 209.734C290.804 206.636 278.288 211.086 275.688 216.896Z" fill="#FFBE9D" stroke="#141C2D" stroke-width="0.43" stroke-miterlimit="10" stroke-linecap="round" stroke-linejoin="round"/>
<path d="M278.733 230.143C279.063 231.464 279.534 233.233 280.081 235.122C281.189 234.165 282.487 233.014 284.021 231.615C292.481 223.902 294.321 217.658 294.321 217.658L276.26 219.498C276.88 222.298 277.895 226.797 278.733 230.143Z" fill="#141C2D" stroke="#141C2D" stroke-width="0.43" stroke-miterlimit="10" stroke-linecap="round"/>
<path d="M248.462 285.081C248.462 285.081 247.08 279.562 239.249 276.573C231.419 273.583 230.498 274.963 229.346 277.263C228.195 279.563 224.74 283.012 225.431 285.312C226.123 287.611 228.886 293.13 239.019 295.2C249.153 297.269 247.08 292.21 248.231 290.831C249.383 289.45 250.534 290.14 248.462 285.081Z" fill="white" stroke="#141C2D" stroke-width="0.43" stroke-miterlimit="10" stroke-linecap="round" stroke-linejoin="round"/>
<path d="M173.155 306.449C173.155 306.449 162.792 309.898 163.252 312.197C163.713 314.496 173.386 309.438 173.386 309.438C173.386 309.438 174.998 312.427 177.992 311.277C180.986 310.127 178.452 305.528 176.84 305.758C175.228 305.989 173.155 306.449 173.155 306.449Z" fill="#FFBE9D" stroke="#141C2D" stroke-width="0.43" stroke-miterlimit="10" stroke-linecap="round" stroke-linejoin="round"/>
<path d="M228.657 304.609C228.657 304.609 242.705 297.021 242.705 293.342C242.705 289.662 232.111 284.833 229.348 285.064C226.585 285.294 225.433 286.214 223.36 289.663C221.287 293.112 204.476 308.75 204.476 308.75C204.476 308.75 193.421 300.931 190.197 300.931C186.974 300.931 179.603 309.44 179.143 312.889C178.682 316.338 194.342 317.948 200.561 317.948C208.215 317.947 228.657 304.609 228.657 304.609Z" fill="#FFBE9D" stroke="#141C2D" stroke-width="0.43" stroke-miterlimit="10" stroke-linecap="round" stroke-linejoin="round"/>
<path d="M194.84 312.501C194.84 312.501 186.159 302.731 174.999 307.197C163.838 311.664 164.83 319.2 164.83 319.2H197.32C197.32 319.2 197.817 315.85 194.84 312.501Z" fill="#FFBE9D" stroke="#141C2D" stroke-width="0.43" stroke-miterlimit="10" stroke-linecap="round" stroke-linejoin="round"/>
<path d="M178.092 300.862C178.092 300.862 174.096 301.492 173.401 302.49C172.706 303.487 168.409 309.234 169.853 310.459C171.298 311.683 175.737 304.777 176.692 304.256C177.648 303.735 179.244 302.401 178.092 300.862Z" fill="#FFBE9D" stroke="#141C2D" stroke-width="0.43" stroke-miterlimit="10" stroke-linecap="round" stroke-linejoin="round"/>
<path d="M181.838 301.76C181.838 301.76 180.165 299.267 178.092 300.862C176.018 302.456 172.796 309.319 173.1 311.01C173.405 312.702 175.685 311.768 176.857 310.51C178.029 309.253 181.838 301.76 181.838 301.76Z" fill="#FFBE9D" stroke="#141C2D" stroke-width="0.43" stroke-miterlimit="10" stroke-linecap="round" stroke-linejoin="round"/>
<path d="M191.58 302.309C191.58 302.309 187.205 298.629 184.672 298.399C182.138 298.169 181.217 300.009 180.986 302.079C180.757 304.149 177.532 313.577 178.453 314.037C179.374 314.497 181.216 314.267 182.368 312.197C183.52 310.128 185.823 303.46 185.823 303.46L187.665 304.839" fill="#FFBE9D"/>
<path d="M191.58 302.309C191.58 302.309 187.205 298.629 184.672 298.399C182.138 298.169 181.217 300.009 180.986 302.079C180.757 304.149 177.532 313.577 178.453 314.037C179.374 314.497 181.216 314.267 182.368 312.197C183.52 310.128 185.823 303.46 185.823 303.46L187.665 304.839" stroke="#141C2D" stroke-width="0.43" stroke-miterlimit="10" stroke-linecap="round" stroke-linejoin="round"/>
<path d="M195.334 307.806C195.334 307.806 194.59 309.787 193.846 311.52C193.102 313.254 180.701 315.483 180.206 317.711C179.71 319.94 187.398 318.454 190.126 318.454C192.854 318.454 197.815 319.197 200.79 316.721C203.766 314.244 204.758 313.749 204.758 313.749" fill="#FFBE9D"/>
<path d="M195.334 307.806C195.334 307.806 194.59 309.787 193.846 311.52C193.102 313.254 180.701 315.483 180.206 317.711C179.71 319.94 187.398 318.454 190.126 318.454C192.854 318.454 197.815 319.197 200.79 316.721C203.766 314.244 204.758 313.749 204.758 313.749" stroke="#141C2D" stroke-width="0.43" stroke-miterlimit="10" stroke-linecap="round" stroke-linejoin="round"/>
<path d="M321.008 239.092C321.008 239.092 318.245 243.92 317.323 246.68C316.402 249.44 318.935 283.473 318.935 283.473C318.935 283.473 323.541 281.863 328.377 283.014C333.213 284.164 342.886 289.452 342.886 289.452C342.886 289.452 343.807 279.564 342.195 272.206C340.583 264.847 337.589 235.183 335.516 232.194C333.443 229.204 334.134 227.595 329.759 229.204" fill="#DE314F"/>
<path d="M321.008 239.092C321.008 239.092 318.245 243.92 317.323 246.68C316.402 249.44 318.935 283.473 318.935 283.473C318.935 283.473 323.541 281.863 328.377 283.014C333.213 284.164 342.886 289.452 342.886 289.452C342.886 289.452 343.807 279.564 342.195 272.206C340.583 264.847 337.589 235.183 335.516 232.194C333.443 229.204 334.134 227.595 329.759 229.204" stroke="#141C2D" stroke-width="0.43" stroke-miterlimit="10" stroke-linecap="round" stroke-linejoin="round"/>
<path d="M346.111 283.704C346.111 283.704 339.892 278.415 335.056 277.265C330.22 276.115 321.008 277.265 319.626 277.725C318.245 278.185 317.323 279.795 317.093 282.094C316.862 284.393 315.251 286.003 316.402 287.383C317.553 288.762 324.002 293.131 329.298 294.512C334.595 295.891 342.655 295.431 343.807 291.982C344.959 288.533 347.262 286.233 346.111 283.704Z" fill="white" stroke="#141C2D" stroke-width="0.43" stroke-miterlimit="10" stroke-linecap="round" stroke-linejoin="round"/>
<path d="M222.773 302.299C222.773 302.299 215.357 305.472 212.974 306.266C210.59 307.059 209.789 309.248 211.914 309.968C214.039 310.688 223.713 307.063 224.626 307.324C225.539 307.585 235.485 310.762 238.663 311.026C241.841 311.291 244.49 309.176 244.49 309.176C244.49 309.176 229.394 299.655 222.773 302.299Z" fill="#FFBE9D" stroke="#141C2D" stroke-width="0.43" stroke-miterlimit="10" stroke-linecap="round" stroke-linejoin="round"/>
<path d="M336.211 298.441C341.643 296.747 342.413 289.257 337.465 286.448C335.992 285.612 334.267 284.87 332.292 284.393C324.692 282.553 318.014 284.392 315.71 285.312C313.408 286.232 261.705 302.034 257.997 302.563C254.289 303.092 229.928 294.895 226.217 294.63C221.301 294.278 215.627 307.233 214.04 310.688C213.779 311.255 213.521 311.851 213.547 312.475C213.571 313.098 213.968 313.753 214.583 313.862C215.284 313.987 215.894 313.403 216.34 312.849C219.613 308.77 221.411 303.449 225.542 300.238C223.631 303.921 221.72 307.602 219.81 311.284C219.499 311.883 219.182 312.504 219.146 313.178C219.11 313.852 219.435 314.593 220.069 314.826C220.969 315.155 221.868 314.35 222.416 313.564C223.705 311.718 224.497 309.58 225.54 307.585C226.583 305.589 227.975 303.649 230.007 302.674C227.754 306.536 225.921 310.641 224.552 314.896C224.336 315.566 224.603 316.352 225.247 316.639C226.142 317.036 226.814 316.167 227.242 315.423C229.293 311.847 231.344 308.27 233.395 304.694C231.771 308.393 230.302 312.16 228.995 315.983C228.906 316.244 228.816 316.525 228.89 316.791C228.964 317.06 229.196 317.261 229.451 317.374C230.132 317.671 230.955 317.399 231.503 316.899C232.051 316.398 232.381 315.709 232.689 315.033C233.792 312.614 234.58 310.029 235.723 307.648C238.9 308.325 241.551 311.285 245.02 311.819C248.463 312.348 254.819 310.761 254.819 310.761C254.819 310.761 318.014 302.099 326.304 300.489C330.036 299.765 333.394 299.32 336.211 298.441Z" fill="#FFBE9D" stroke="#141C2D" stroke-width="0.43" stroke-miterlimit="10" stroke-linecap="round" stroke-linejoin="round"/>
<path d="M300.672 188.664C302.282 187.742 304.338 187.931 305.67 189.221C307.055 190.562 306.704 195.274 306.237 198.339C305.323 204.342 300.971 206.082 300.971 206.082C300.971 206.082 294.565 220.438 289.182 225.338C283.801 230.238 277.494 231.907 269.635 220.176C266.177 215.014 260.963 190.422 260.963 190.422C260.963 190.422 259.01 184.7 261.954 179.921C264.898 175.141 274.4 170.796 280.65 170.437C286.9 170.079 292.269 173.934 295.39 177.288C298.512 180.641 300.108 185.95 300.108 185.95L300.509 188.758L300.672 188.664Z" fill="#FFBE9D" stroke="#141C2D" stroke-width="0.43" stroke-miterlimit="10"/>
<path d="M279.899 209.658C279.876 209.544 278.592 209.692 276.541 210.022C276.025 210.118 275.521 210.159 275.335 209.841C275.11 209.514 275.161 208.913 275.232 208.257C275.346 206.906 275.791 206.595 275.916 205.11C276.373 199.071 275.213 195.759 274.971 195.742C274.727 195.726 275.491 199.013 275.035 205.053C274.934 206.539 274.511 206.851 274.421 208.205C274.399 208.83 274.263 209.573 274.74 210.249C274.985 210.583 275.434 210.747 275.781 210.738C276.131 210.742 276.415 210.663 276.666 210.605C278.687 210.126 279.924 209.772 279.899 209.658Z" fill="#263238"/>
<path d="M283.322 196.481C283.349 197.222 282.742 197.855 281.969 197.897C281.197 197.939 280.549 197.373 280.522 196.632C280.496 195.891 281.102 195.258 281.875 195.216C282.648 195.174 283.297 195.74 283.322 196.481Z" fill="#141C2D"/>
<path d="M270.694 198.614C270.888 199.329 270.442 200.084 269.698 200.3C268.955 200.516 268.196 200.112 268.002 199.397C267.808 198.681 268.254 197.926 268.997 197.71C269.74 197.493 270.501 197.898 270.694 198.614Z" fill="#141C2D"/>
<path d="M285.03 195.402C284.856 195.585 283.792 194.798 282.281 194.802C280.772 194.784 279.664 195.562 279.5 195.376C279.42 195.294 279.596 194.964 280.079 194.612C280.554 194.262 281.364 193.922 282.306 193.926C283.247 193.931 284.039 194.277 284.493 194.632C284.958 194.988 285.116 195.32 285.03 195.402Z" fill="#141C2D"/>
<path d="M272.112 197.173C271.984 197.39 270.769 196.865 269.299 197.213C267.825 197.538 266.923 198.547 266.721 198.404C266.624 198.342 266.721 197.98 267.111 197.528C267.494 197.079 268.206 196.564 269.124 196.354C270.041 196.145 270.891 196.302 271.414 196.545C271.948 196.786 272.177 197.073 272.112 197.173Z" fill="#141C2D"/>
<path d="M284.379 190.294C284.379 190.294 281.732 187.838 277.75 189.042" stroke="#141C2D" stroke-width="0.86" stroke-miterlimit="10" stroke-linecap="round"/>
<path d="M270.478 192.529C270.478 192.529 267.208 191.674 265.028 194.86" stroke="#141C2D" stroke-width="0.86" stroke-miterlimit="10" stroke-linecap="round"/>
<path d="M278.484 215.556C278.484 215.556 283.639 215.303 285.987 211.546" stroke="#141C2D" stroke-width="0.43" stroke-miterlimit="10" stroke-linecap="round"/>
<path d="M283.566 163.143C283.566 163.143 273.247 159.451 265.859 162.298C258.471 165.144 258.945 169.099 254.507 171.213C250.069 173.326 244.593 176.379 246.006 182.965C246.987 187.536 253.384 191.725 260.963 190.418C268.542 189.112 277.578 183.208 280.257 181.772C282.936 180.337 288.349 178.654 288.349 178.654C288.349 178.654 288.818 186.142 291.744 187.436C294.669 188.731 295.564 190 296.107 191.405C296.65 192.81 298.575 195.7 298.575 195.7L300.958 195.589L300.52 191.318C300.52 191.318 303.328 184.989 301.939 178.258C300.551 171.529 292.83 167.239 292.83 167.239L283.566 163.143Z" fill="#141C2D"/>
<path d="M259.083 187.862C259.083 187.862 271.988 185.5 279.908 177.973C287.828 170.446 276.692 165.788 276.692 165.788" stroke="white" stroke-width="0.185631" stroke-miterlimit="10" stroke-linecap="round"/>
<path d="M278.39 164.388C279.365 164.012 289.874 167.047 290.005 172.216C290.135 177.386 287.011 178.964 287.011 178.964" stroke="white" stroke-width="0.185631" stroke-miterlimit="10" stroke-linecap="round"/>
<path d="M243.503 316.36H184.484V319.444H243.503V316.36Z" fill="#3B455B" stroke="#141C2D" stroke-width="0.43" stroke-miterlimit="10" stroke-linecap="round" stroke-linejoin="round"/>
<path d="M228.25 316.36H154.394V319.444H228.25V316.36Z" fill="#3B455B" stroke="#141C2D" stroke-width="0.43" stroke-miterlimit="10" stroke-linecap="round" stroke-linejoin="round"/>
<path d="M156.314 316.014H127.22V319.157H156.314V316.014Z" fill="#3B455B" stroke="#141C2D" stroke-width="0.43" stroke-miterlimit="10" stroke-linecap="round" stroke-linejoin="round"/>
<path d="M183.869 249.988H95.7656V306.724H183.869V249.988Z" fill="#3B455B" stroke="#141C2D" stroke-width="0.43" stroke-miterlimit="10" stroke-linecap="round" stroke-linejoin="round"/>
<path d="M179.06 249.988H95.7656V306.724H179.06V249.988Z" fill="#141C2D" stroke="#141C2D" stroke-width="0.43" stroke-miterlimit="10" stroke-linecap="round" stroke-linejoin="round"/>
<path d="M145.53 276.354H126.253V320.153H145.53V276.354Z" fill="#3B455B" stroke="#141C2D" stroke-width="0.43" stroke-miterlimit="10" stroke-linecap="round" stroke-linejoin="round"/>
<path d="M143.752 276.354H124.476V320.153H143.752V276.354Z" fill="#141C2D" stroke="#141C2D" stroke-width="0.43" stroke-miterlimit="10" stroke-linecap="round" stroke-linejoin="round"/>
<path d="M145.032 276.87H124.025V306.861" stroke="#3B455B" stroke-width="0.43" stroke-miterlimit="10" stroke-linecap="round" stroke-linejoin="round"/>
<path d="M381.693 319.552H1V326.345H381.693V319.552Z" fill="#141C2D" stroke="#141C2D" stroke-width="0.43" stroke-miterlimit="10" stroke-linecap="round" stroke-linejoin="round"/>
<path d="M61.0427 333.311C61.0427 333.311 57.7202 310.485 57.997 297.204C58.2738 283.924 57.9805 268.983 57.9805 268.983H59.5116C59.5116 268.983 58.4751 295.344 59.6036 311.242C60.7313 327.129 63.7023 333.311 63.7023 333.311H61.0427Z" fill="#6AB872"/>
<path d="M70.94 243.303C70.6317 242.523 70.2535 241.711 69.545 241.262C68.5739 240.647 67.3009 240.903 66.2166 241.286C61.5906 242.921 57.49 251.539 55.6201 256.072L61.7613 276.75C72.8468 266.474 74.7662 252.993 70.94 243.303Z" fill="#4D9654"/>
<path d="M69.1888 242.1C69.1967 242.104 69.166 242.196 69.1 242.369C69.0205 242.567 68.9214 242.816 68.7995 243.123C68.5306 243.773 68.1523 244.72 67.7008 245.894C66.7956 248.242 65.6435 251.525 64.614 255.224C63.5884 258.925 62.8814 262.332 62.4457 264.81C62.2271 266.05 62.0619 267.055 61.9573 267.751C61.9038 268.076 61.8606 268.341 61.826 268.552C61.7929 268.735 61.7717 268.83 61.763 268.829C61.7544 268.828 61.7591 268.731 61.7756 268.545C61.7976 268.333 61.8252 268.066 61.8598 267.738C61.9345 267.037 62.0729 266.027 62.2695 264.781C62.6612 262.291 63.3415 258.868 64.371 255.157C65.4036 251.448 66.5856 248.165 67.5357 245.83C68.0091 244.661 68.4126 243.724 68.7107 243.085C68.8507 242.786 68.9647 242.543 69.0551 242.35C69.1346 242.182 69.181 242.097 69.1888 242.1Z" fill="#6AB872"/>
<path d="M59.0336 281.709C53.2769 278.53 49.8847 272.551 49.5678 265.986C49.3469 261.398 50.7575 256.895 52.3561 252.588C52.4945 252.214 52.6596 251.811 53.0064 251.615C53.4892 251.341 54.0931 251.585 54.5759 251.859C58.7591 254.239 61.2934 258.777 62.642 263.395C63.5392 266.467 64.0039 269.707 63.5887 272.881C63.1735 276.054 61.3579 279.507 59.0336 281.709Z" fill="#6AB872"/>
<path d="M59.0315 281.707C59.0229 281.707 59.015 281.612 59.0087 281.43C59.0048 281.22 58.9993 280.958 58.9938 280.636C58.9914 279.947 58.9639 278.951 58.9073 277.721C58.7964 275.262 58.4739 271.872 57.8385 268.168C57.1998 264.464 56.4244 261.147 55.8534 258.751C55.5719 257.578 55.3414 256.617 55.1723 255.913C55.1008 255.599 55.0418 255.343 54.9954 255.139C54.9576 254.961 54.9419 254.867 54.9506 254.864C54.9592 254.862 54.9915 254.952 55.0449 255.126C55.1039 255.327 55.1778 255.579 55.2683 255.888C55.4578 256.551 55.7189 257.515 56.028 258.708C56.6438 261.096 57.4484 264.412 58.0886 268.127C58.7256 271.84 59.0213 275.248 59.0866 277.715C59.1204 278.949 59.1212 279.948 59.0921 280.638C59.0787 280.96 59.0685 281.223 59.0598 281.432C59.0504 281.612 59.041 281.707 59.0315 281.707Z" fill="#6AB872"/>
<g opacity="0.3">
<path d="M59.0336 281.709C53.2769 278.53 49.8847 272.551 49.5678 265.986C49.3469 261.398 50.7575 256.895 52.3561 252.588C52.4945 252.214 52.6596 251.811 53.0064 251.615C53.4892 251.341 54.0931 251.585 54.5759 251.859C58.7591 254.239 61.2934 258.777 62.642 263.395C63.5392 266.467 64.0039 269.707 63.5887 272.881C63.1735 276.054 61.3579 279.507 59.0336 281.709Z" fill="#6AB872"/>
</g>
<path d="M65.5264 316.634C71.1918 317.878 75.857 321.871 81.3227 323.813C84.939 325.097 89.0287 325.552 91.9153 328.079C91.2225 326.331 89.5799 325.167 87.9844 324.17C83.4898 321.365 78.6768 319.069 73.6671 317.34C71.0959 316.453 68.306 315.711 65.6852 316.442" fill="#6AB872"/>
<path d="M57.3357 321.676C50.2408 321.562 42.7699 315.526 35.708 315.165C43.0978 312.781 53.6801 314.729 57.3357 321.676Z" fill="#6AB872"/>
<path d="M60.1084 304.668C63.7113 303.371 67.6673 303.309 71.4511 303.896C75.2356 304.484 78.8904 305.696 82.5248 306.904C82.1607 304.444 80.1674 302.594 78.2944 300.957C76.8853 299.725 75.4644 298.485 73.8478 297.541C72.2311 296.597 70.3856 295.959 68.5149 296.038C66.2582 296.134 64.1092 297.297 62.6293 299.003C61.1495 300.708 60.3537 302.424 60.1084 304.668Z" fill="#4D9654"/>
<path d="M45.5478 296.841C41.0815 293.031 34.3168 293.403 28.4453 293.535C37.4707 297.848 47.1959 303.759 54.9687 310.052C55.2069 305.904 51.1888 301.654 45.5478 296.841Z" fill="#6AB872"/>
<g opacity="0.3">
<path d="M45.5478 296.843C41.0815 293.033 34.3168 293.405 28.4453 293.537C37.4707 297.85 47.1959 303.761 54.9687 310.054C55.2069 305.906 51.1888 301.656 45.5478 296.843Z" fill="#6AB872"/>
</g>
<path d="M62.1168 291.58C64.3625 290.084 66.6342 288.658 68.9853 287.591C71.3364 286.524 73.5295 284.823 75.7996 283.594C78.7435 282.002 81.2944 279.787 83.9962 277.812C86.6987 275.837 89.6671 274.055 92.9736 273.531C90.2773 272.975 87.4599 273.278 84.8037 274.003C82.1475 274.729 79.6242 275.863 77.1143 276.993C73.6301 278.562 70.0854 280.169 67.2373 282.714C64.3901 285.26 61.8157 287.773 62.1168 291.58Z" fill="#4D9654"/>
<path d="M81.1958 321.676C81.1911 321.684 81.114 321.65 80.9709 321.579C80.8034 321.493 80.599 321.387 80.3521 321.259C79.8182 320.974 79.0507 320.554 78.0843 320.068C77.6062 319.816 77.0763 319.553 76.5015 319.283C75.9322 319.001 75.3141 318.722 74.6591 318.44C73.3491 317.88 71.8858 317.297 70.2903 316.918C68.6996 316.529 67.1144 316.443 65.7391 316.804C65.0456 316.971 64.3921 317.137 63.811 317.379C63.2276 317.615 62.7078 317.891 62.2541 318.177C61.3451 318.749 60.7098 319.355 60.2978 319.792C59.8865 320.232 59.6868 320.501 59.6687 320.487C59.6616 320.482 59.7057 320.41 59.7961 320.279C59.8849 320.146 60.0281 319.958 60.2246 319.727C60.6186 319.265 61.2437 318.63 62.1574 318.027C62.6127 317.726 63.1387 317.435 63.7316 317.185C64.3237 316.928 64.9913 316.751 65.6856 316.577C67.0908 316.192 68.7389 316.274 70.3493 316.672C71.9699 317.057 73.4403 317.651 74.7535 318.226C75.4093 318.517 76.0273 318.803 76.5942 319.095C77.1675 319.374 77.6943 319.647 78.1685 319.91C79.1262 320.417 79.8811 320.862 80.4016 321.173C80.6399 321.318 80.8364 321.437 80.9976 321.535C81.1321 321.62 81.2005 321.669 81.1958 321.676Z" fill="#4D9654"/>
<path d="M52.0423 318.164C52.0486 318.148 52.2059 318.195 52.4867 318.294C52.769 318.389 53.1654 318.56 53.6428 318.796C54.5975 319.267 55.8535 320.07 57.0332 321.198C58.2098 322.331 59.0623 323.553 59.5719 324.488C59.8283 324.954 60.0139 325.344 60.1201 325.621C60.231 325.898 60.2837 326.053 60.268 326.06C60.2271 326.078 59.962 325.478 59.417 324.577C58.8743 323.677 58.0139 322.494 56.8578 321.381C55.6986 320.271 54.4811 319.46 53.5594 318.954C52.6377 318.446 52.0258 318.206 52.0423 318.164Z" fill="#6AB872"/>
<path d="M36.3418 296.489C36.345 296.481 36.4488 296.511 36.6438 296.578C36.8632 296.656 37.1455 296.756 37.4954 296.881C37.8736 297.02 38.3226 297.185 38.8384 297.376C39.3613 297.57 39.9298 297.857 40.573 298.139C43.1278 299.298 46.527 301.249 49.8099 304.02C51.429 305.428 52.8931 306.86 54.1174 308.258C55.337 309.66 56.3694 310.979 57.1746 312.129C57.9845 313.275 58.5986 314.231 59.0201 314.892C59.219 315.204 59.3802 315.456 59.5052 315.652C59.6153 315.827 59.6696 315.921 59.6625 315.927C59.6554 315.932 59.587 315.847 59.4636 315.682C59.3393 315.517 59.1593 315.271 58.9383 314.948C58.4917 314.303 57.8555 313.364 57.0299 312.235C56.209 311.101 55.1663 309.801 53.9436 308.415C52.7162 307.032 51.256 305.614 49.6464 304.214C46.3831 301.459 43.0216 299.498 40.4968 298.302C39.8614 298.01 39.3008 297.713 38.7841 297.507C38.2762 297.302 37.8335 297.123 37.4608 296.973C37.1187 296.831 36.8419 296.716 36.6273 296.627C36.4378 296.544 36.3395 296.496 36.3418 296.489Z" fill="#6AB872"/>
<path d="M70.7536 300.685C70.7489 300.701 70.5468 300.674 70.1882 300.612C69.9932 300.575 69.777 300.536 69.5364 300.491C69.2832 300.442 68.9867 300.441 68.6651 300.408C67.3889 300.315 65.5301 300.421 63.7891 301.37C62.91 301.814 62.1733 302.414 61.5702 303.015C60.9576 303.612 60.4937 304.234 60.1438 304.778C59.4322 305.867 59.212 306.653 59.1687 306.638C59.1546 306.634 59.1947 306.434 59.3126 306.085C59.4432 305.743 59.6437 305.244 59.992 304.683C60.3286 304.118 60.787 303.472 61.4042 302.852C62.0121 302.227 62.7662 301.605 63.6704 301.147C65.4664 300.168 67.3897 300.09 68.6801 300.231C69.0064 300.276 69.306 300.291 69.56 300.354C69.7998 300.414 70.0152 300.469 70.2095 300.517C70.5649 300.609 70.7583 300.668 70.7536 300.685Z" fill="#6AB872"/>
<path d="M77.8832 278.574C77.8871 278.582 77.7943 278.639 77.615 278.739C77.4106 278.85 77.148 278.992 76.8232 279.169C76.1344 279.54 75.1444 280.087 73.9406 280.795C72.743 281.513 71.3316 282.395 69.8305 283.467C68.3333 284.542 66.7253 285.791 65.2415 287.309C64.5094 288.073 63.8348 288.871 63.3646 289.737C62.8999 290.629 62.4556 291.491 62.0475 292.319C61.2273 293.973 60.559 295.495 60.0762 296.803C59.595 298.112 59.2954 299.201 59.1169 299.96C58.9352 300.719 58.87 301.147 58.8448 301.143C58.8362 301.141 58.8464 301.034 58.8731 300.829C58.8991 300.625 58.9423 300.323 59.0209 299.94C59.1695 299.171 59.4455 298.067 59.9079 296.743C60.3718 295.419 61.0268 293.881 61.8383 292.217C62.2425 291.384 62.6828 290.518 63.1452 289.624C63.6335 288.717 64.3192 287.908 65.0607 287.133C66.5625 285.597 68.1847 284.347 69.6968 283.277C71.2128 282.21 72.6392 281.341 73.8517 280.64C75.0705 279.949 76.0754 279.425 76.7792 279.081C77.1134 278.922 77.3831 278.793 77.593 278.694C77.7794 278.608 77.8792 278.566 77.8832 278.574Z" fill="#6AB872"/>
<path d="M57.9892 300.044C57.9719 300.046 57.9223 299.834 57.8484 299.447C57.7658 299.009 57.662 298.461 57.5378 297.809C57.2672 296.429 56.8543 294.527 56.1961 292.488C55.5433 290.446 54.7497 288.669 54.1693 287.387C53.8941 286.782 53.6621 286.274 53.4772 285.869C53.316 285.509 53.2342 285.306 53.25 285.298C53.2657 285.29 53.3774 285.478 53.5661 285.825C53.7549 286.171 54.0191 286.676 54.3313 287.31C54.9542 288.574 55.7792 290.351 56.4375 292.409C57.1005 294.464 57.489 296.384 57.7147 297.776C57.8256 298.473 57.9058 299.038 57.9467 299.43C57.9908 299.824 58.0065 300.042 57.9892 300.044Z" fill="#6AB872"/>
<path d="M57.4769 283.911C57.2992 281.232 56.4256 278.629 55.1699 276.256C51.7258 269.75 45.2536 264.927 38.0312 263.484C43.32 271.362 48.6096 279.24 53.8984 287.117L55.9475 291.335C57.3448 289.043 57.6546 286.59 57.4769 283.911Z" fill="#6AB872"/>
<path d="M80.2346 330.487H43.3389V337.022H80.2346V330.487Z" fill="#141C2D"/>
<path d="M46.0928 335.724L49.2349 356H73.7288L77.4779 335.724H46.0928Z" fill="#141C2D"/>
<path d="M61.628 337.162C71.8934 337.162 80.2151 337.104 80.2151 337.032C80.2151 336.96 71.8934 336.902 61.628 336.902C51.3627 336.902 43.041 336.96 43.041 337.032C43.041 337.104 51.3627 337.162 61.628 337.162Z" fill="#141C2D"/>
</svg>
