<svg width="246" height="212" viewBox="0 0 246 212" fill="none" xmlns="http://www.w3.org/2000/svg">
<path d="M54.9999 28.9476L45 29.001L45.2632 78.0003L55.263 77.9469L54.9999 28.9476Z" fill="#C7CCD9"/>
<path d="M10.9996 28.8646L-15 29.001L-14.8526 56.0006L11.1471 55.8642L10.9996 28.8646Z" fill="#E9EDF6"/>
<path d="M-40.7747 36.9263C-23.6208 37.084 -6.41678 36.9713 10.7371 36.6558C11.0876 36.6445 11.0876 36.036 10.7371 36.036C-6.41678 35.9346 -23.6208 36.0247 -40.7747 36.3853C-41.0751 36.4079 -41.0751 36.9263 -40.7747 36.9263Z" fill="#C7CCD9"/>
<path d="M34.9993 55.7433L-11 56L-10.8817 78.9997L35.1176 78.743L34.9993 55.7433Z" fill="#E9EDF6"/>
<path d="M-56.7772 62.8798C-25.9678 63.1611 4.9406 62.912 35.7401 62.5101C36.0866 62.5021 36.0866 62.0681 35.7401 62.0681C4.9307 61.9395 -25.9777 61.9475 -56.7772 62.5021C-57.0743 62.5101 -57.0743 62.8798 -56.7772 62.8798Z" fill="#C7CCD9"/>
<path d="M106 78H-74V86H106V78Z" fill="#C7CCD9"/>
<path d="M72 82H65V109H72V82Z" fill="#C7CCD9"/>
<path d="M63.9999 10.9467L54 11.001L54.3537 78L64.3535 77.9457L63.9999 10.9467Z" fill="#DDE3F1"/>
<path d="M79.9998 23.9108L64 23.9951L64.3012 78.9943L80.301 78.91L79.9998 23.9108Z" fill="#E9EDF6"/>
<path d="M80 34.4951C80 34.7729 76.4191 34.9951 72 34.9951C67.5808 34.9951 64 34.7729 64 34.4951C64 34.2173 67.5808 33.9951 72 33.9951C76.4088 33.9951 80 34.2173 80 34.4951Z" fill="#C7CCD9"/>
<path d="M80 32.4951C80 32.7729 76.4191 32.9951 72 32.9951C67.5808 32.9951 64 32.7729 64 32.4951C64 32.2173 67.5808 31.9951 72 31.9951C76.4088 31.9951 80 32.2173 80 32.4951Z" fill="#C7CCD9"/>
<path d="M80 70.4951C80 70.7729 76.4191 70.9951 72 70.9951C67.5808 70.9951 64 70.7729 64 70.4951C64 70.2173 67.5808 69.9951 72 69.9951C76.4088 69.9951 80 70.2173 80 70.4951Z" fill="#C7CCD9"/>
<path d="M80 68.4951C80 68.7729 76.4191 68.9951 72 68.9951C67.5808 68.9951 64 68.7729 64 68.4951C64 68.2173 67.5808 67.9951 72 67.9951C76.4088 67.9951 80 68.2173 80 68.4951Z" fill="#C7CCD9"/>
<path d="M72.4999 63.9951C72.2222 63.9951 72 58.3983 72 51.4951C72 44.592 72.2222 38.9951 72.4999 38.9951C72.7777 38.9951 73 44.592 73 51.4951C73 58.3983 72.7777 63.9951 72.4999 63.9951Z" fill="#C7CCD9"/>
<path d="M97 37H80V78H97V37Z" fill="#DDE3F1"/>
<path d="M62 23C62 24.6573 60.6574 26 59 26C57.3426 26 56 24.6573 56 23C56 21.3427 57.3426 20 59 20C60.6574 20 62 21.3427 62 23Z" fill="#C7CCD9"/>
<path d="M60 30H58V70H60V30Z" fill="#C7CCD9"/>
<path d="M176.549 91C176.549 91 186.15 95.7174 189.584 107.898C193.017 120.079 203.319 151.762 203.319 151.762C203.319 151.762 209.205 158.733 209.836 163.943C210.467 169.153 209.205 181.616 207.313 184.01C205.421 186.333 202.688 185.981 202.688 185.981L177.132 181.309L168 117.614L176.549 91Z" fill="#DE314F"/>
<path d="M93.309 89.7807C93.309 89.7807 75.4336 95.4003 71 100.247L85.6381 168.245L86.1098 212L169.849 211.63L170.933 118.441L176 90.9046L145.879 85.6362L139.968 81L106.469 82.6859L101.402 87.7435L93.309 89.7807Z" fill="#DE314F"/>
<g opacity="0.3">
<path d="M99.5343 148.353C99.2548 147.793 98.9054 147.164 98.2765 147.024C97.2284 146.815 96.5995 148.003 96.2501 148.982C93.5249 156.742 89.8914 163.872 85.2096 170.584L85 181C89.8913 176.875 94.7128 172.471 97.8572 166.878C101.002 161.216 102.19 154.225 99.5343 148.353Z" fill="black"/>
</g>
<path d="M71.0609 100C71.0609 100 65.0913 107.995 62.6751 113.255C60.1878 118.445 39.7208 162.349 38.5126 166.908C37.3045 171.467 34.1065 185.704 43.4873 189H62.6751L82.0051 150.496L83 105.751L71.0609 100Z" fill="#DE314F"/>
<path d="M64 161.134C64 161.134 63.5793 160.774 62.7378 160.27C61.8963 159.767 60.4939 159.191 58.7408 158.759C57.8293 158.544 56.9177 158.4 55.8659 158.328C54.814 158.256 53.6921 158.256 52.5701 158.544C50.2561 159.047 48.0122 160.558 46.189 162.645C44.3659 164.732 43.2439 167.178 42.5427 169.552C41.8415 171.927 41.561 174.085 41.4207 175.956C41.2104 177.827 41.2104 179.266 41.1403 180.345C41.1403 180.849 41.0701 181.209 41.0701 181.568C41.0701 181.856 41 182 41 182C41 182 41 181.856 41 181.568C41 181.28 41 180.849 41 180.345C41 179.338 41.0701 177.827 41.2104 175.956C41.3506 174.085 41.6311 171.855 42.2622 169.48C42.8933 167.106 44.0854 164.588 45.9085 162.429C47.7317 160.27 50.1159 158.759 52.5 158.256C53.6921 157.968 54.8841 157.968 55.936 158.04C56.9878 158.112 57.9695 158.328 58.8811 158.544C60.6341 158.975 62.0366 159.623 62.878 160.127C63.2988 160.414 63.6494 160.63 63.7896 160.846C63.9299 161.062 64 161.134 64 161.134Z" fill="#263238"/>
<path d="M55 154.125C55 154.125 55.209 154.054 55.6269 154.054C56.0448 153.982 56.6716 153.982 57.3682 154.054C58.1343 154.054 58.9702 154.197 59.9453 154.411C60.9204 154.626 61.8955 154.984 62.9403 155.485C63.9851 155.986 64.8906 156.558 65.6567 157.203C66.4229 157.847 67.0497 158.419 67.5373 158.992C68.0249 159.564 68.3731 160.065 68.6517 160.423C68.8607 160.781 69 160.995 69 160.995C68.9303 161.067 68.4428 160.28 67.398 159.206C66.9105 158.634 66.2139 158.061 65.4478 157.489C64.6816 156.916 63.7761 156.344 62.801 155.843C61.8259 155.342 60.7811 154.984 59.8756 154.769C58.9701 154.555 58.0647 154.34 57.3682 154.34C55.9055 154.125 55 154.197 55 154.125Z" fill="#263238"/>
<path d="M72 151.711C72 151.711 71.6474 151.711 71.0833 151.649C70.5192 151.588 69.6731 151.526 68.6859 151.464C66.641 151.34 63.891 151.278 60.7885 151.588C57.6859 151.897 55.0064 152.515 53.1026 153.072C52.1154 153.32 51.3397 153.567 50.8462 153.753C50.282 153.938 50 154 50 154C50 154 50.2821 153.876 50.7756 153.629C51.2692 153.443 52.0449 153.134 53.0321 152.825C54.9359 152.206 57.6859 151.588 60.7885 151.216C63.891 150.907 66.7115 150.969 68.7564 151.155C69.7436 151.278 70.5898 151.34 71.1539 151.464C71.6474 151.588 72 151.649 72 151.711Z" fill="#263238"/>
<path d="M125.971 114C125.971 114 125.901 113.929 125.761 113.786C125.62 113.571 125.48 113.357 125.27 113.071C124.779 112.429 124.147 111.5 123.376 110.357C121.762 108 119.448 104.714 116.782 100.857L117.063 100.786C116.011 103.857 114.888 107.214 113.696 110.786L113.626 111L113.415 110.857C113.275 110.786 113.135 110.714 112.994 110.571C111.451 109.571 110.048 108.357 108.856 107C107.664 105.643 106.682 104.286 105.91 102.857C104.297 100 103.315 97.2143 102.683 94.8571C102.052 92.5 101.701 90.5 101.421 89.1429C101.281 88.5 101.21 88 101.14 87.5714C101.14 87.4286 101.07 87.2857 101.07 87.1429C101.07 87.0714 101 87 101 87C101.07 87 101.281 87.7143 101.561 89.0714C101.842 90.4286 102.192 92.3571 102.894 94.7143C103.595 97.0714 104.577 99.7857 106.191 102.643C106.962 104 107.944 105.429 109.137 106.714C110.329 108 111.662 109.214 113.205 110.214C113.345 110.286 113.485 110.357 113.626 110.5L113.345 110.571C114.538 107 115.66 103.643 116.712 100.571L116.852 100.286L117.063 100.571C119.728 104.5 121.973 107.786 123.586 110.143C124.358 111.286 124.989 112.214 125.41 112.857C125.62 113.143 125.761 113.429 125.901 113.571C125.971 113.929 126.041 114 125.971 114Z" fill="#263238"/>
<g opacity="0.3">
<path d="M148.178 136C147.408 143.856 149.157 151.923 153.074 158.797C156.99 165.601 162.726 171.703 169.86 175C170.07 168.056 169.79 159.849 170 152.835L148.178 136Z" fill="black"/>
</g>
<path d="M204 166.997C203.93 167.073 203.163 165.846 201.419 164.465C199.744 163.084 196.953 161.55 193.744 161.397C190.465 161.166 187.605 162.317 185.791 163.545C183.907 164.695 183 165.846 183 165.769C183 165.769 183.209 165.462 183.628 165.002C184.047 164.542 184.744 163.928 185.651 163.314C187.465 162.087 190.395 160.86 193.744 161.013C197.093 161.243 199.884 162.777 201.558 164.235C202.395 165.002 203.023 165.692 203.442 166.153C203.791 166.69 204 166.997 204 166.997Z" fill="#263238"/>
<path d="M204 160.084C203.928 160.157 202.922 159.057 200.694 158.25C198.538 157.369 195.159 157.002 191.709 157.956C189.984 158.47 188.403 159.13 187.109 159.937C185.744 160.744 184.666 161.551 183.731 162.359C182.869 163.166 182.15 163.826 181.719 164.266C181.216 164.707 181 165 181 165C181 165 181.216 164.707 181.647 164.193C182.078 163.679 182.725 162.946 183.588 162.138C184.45 161.331 185.6 160.451 186.966 159.644C188.331 158.837 189.913 158.103 191.638 157.589C195.159 156.562 198.609 157.002 200.766 157.956C201.844 158.396 202.706 158.983 203.209 159.35C203.497 159.57 203.641 159.717 203.784 159.864C203.928 160.011 204 160.084 204 160.084Z" fill="#263238"/>
<path d="M203 154.103C203 154.168 201.601 153.779 199.362 153.519C198.242 153.389 196.913 153.26 195.373 153.26C193.904 153.26 192.224 153.389 190.545 153.649C188.866 153.908 187.257 154.363 185.857 154.817C184.458 155.271 183.198 155.79 182.219 156.309C180.19 157.282 179.07 158.061 179 157.996C179 157.996 179.28 157.802 179.77 157.412C180.05 157.218 180.329 157.023 180.749 156.828C181.169 156.634 181.589 156.309 182.079 156.115C183.058 155.595 184.318 155.076 185.717 154.557C187.117 154.103 188.726 153.649 190.475 153.389C192.224 153.13 193.904 153 195.373 153C196.913 153 198.242 153.13 199.362 153.324C199.921 153.389 200.411 153.519 200.901 153.584C201.321 153.649 201.741 153.779 202.02 153.844C202.65 153.973 203 154.103 203 154.103Z" fill="#263238"/>
<path d="M143.317 85C143.317 85 143.671 85.7042 143.884 87.0421C144.096 88.4504 144.026 90.4925 143.601 93.0979C143.388 94.3654 143.034 95.7737 142.609 97.3229C142.113 98.8016 141.405 100.351 140.555 102.041C138.855 105.28 136.731 108.801 134.252 112.603L133.968 113.026V112.533C133.968 110.068 133.968 107.463 133.968 104.717L134.252 104.857C132.127 106.547 129.931 108.308 127.665 110.139L127.736 110.068C126.177 114.927 125.186 120.279 124.761 125.841C124.124 134.432 124.619 142.601 125.044 150.065C125.398 157.529 125.611 164.218 125.823 169.852C126.036 175.485 127.107 203.043 127.249 206.141C127.319 207.69 127.39 208.888 127.461 209.733C127.461 210.155 127.532 210.437 127.532 210.648C127.532 210.859 127.532 211 127.532 211C127.532 211 127.532 210.859 127.461 210.648C127.461 210.437 127.39 210.085 127.39 209.733C127.319 208.888 127.178 207.69 127.107 206.141C126.894 202.973 125.823 175.485 125.54 169.852C125.257 164.218 124.973 157.529 124.619 150.065C124.194 142.601 123.628 134.432 124.336 125.841C124.761 120.208 125.753 114.786 127.311 109.927V109.857H127.382C129.648 108.026 131.914 106.266 134.039 104.576L134.322 104.364V104.717C134.322 107.463 134.322 110.068 134.322 112.533L134.039 112.462C138.926 104.928 142.892 98.4495 143.459 93.1683C143.955 90.6333 144.026 88.5208 143.813 87.1829C143.742 86.4787 143.601 85.9858 143.53 85.6338C143.388 85.2113 143.317 85 143.317 85Z" fill="#263238"/>
<path d="M131.212 176H130.927C129.928 176 129 176.999 129 177.998C129 178.997 129.928 179.996 130.927 179.996C131.926 180.067 132.924 179.14 132.996 178.141C133.067 177.142 132.211 176.143 131.212 176Z" fill="white"/>
<path d="M132.212 201H131.927C130.928 201 130 201.999 130 202.998C130 203.997 130.928 204.996 131.927 204.996C132.926 205.067 133.924 204.14 133.996 203.141C134.067 202.142 133.211 201.143 132.212 201Z" fill="white"/>
<path d="M131.212 149H130.927C129.928 149 129 149.999 129 150.998C129 151.997 129.928 152.996 130.927 152.996C131.926 153.067 132.924 152.14 132.996 151.141C133.067 150.07 132.211 149.071 131.212 149Z" fill="white"/>
<path d="M130.927 124.996C131.926 125.067 132.924 124.14 132.996 123.141C133.067 122.142 132.211 121.071 131.212 121H130.927C129.928 121 129 121.999 129 122.998C129 123.997 129.928 124.925 130.927 124.996Z" fill="white"/>
<path d="M100.275 53C97.7898 50.2661 95.3046 47.5322 93.4585 44.3076C91.6124 41.083 90.5473 37.3677 91.1863 33.7225C91.5414 31.6195 92.4644 29.5866 92.6064 27.4836C92.8195 24.5394 91.5414 21.455 92.6064 18.7211C94.2396 14.3749 100.133 13.744 103.683 10.7297C106.453 8.41644 107.802 4.63104 110.855 2.66825C113.553 0.985847 116.961 0.985845 120.086 1.40644C123.21 1.82704 126.405 2.59814 129.529 2.17754C131.802 1.89714 133.861 0.985844 136.062 0.425044C138.263 -0.135755 140.748 -0.275956 142.665 0.845643C144.653 1.96724 145.719 4.70114 144.44 6.52374C148.062 4.84134 152.748 7.64534 153.742 11.5008C154.736 15.3563 152.748 19.4922 149.624 22.0158C146.5 24.5394 142.523 25.7311 138.547 26.4321C127.399 28.5351 115.257 27.3434 105.6 21.3849" fill="#263238"/>
<path d="M139.715 90.4656C139.151 86.1996 138.729 82.7157 138.729 82.2179C138.729 82.2179 152.744 79.0184 151.969 64.7272C151.617 57.8304 149.645 43.6102 147.814 30.8121C145.771 17.0185 133.588 7.13553 119.855 8.05984L118.516 8.13094C103.797 9.97956 97.1772 23.6309 99.4309 38.4199L107.389 87.9771C107.389 87.9771 110.77 98.9266 118.023 100.846L127.179 114L128.658 108.312L135.489 102.339C135.489 102.339 137.039 100.633 138.87 97.2913C140.208 94.5895 139.926 91.8166 139.715 90.4656Z" fill="#FFBE9D"/>
<path d="M138.72 82.0097C138.72 82.0097 129.815 83.3462 120 78C120 78 125.048 87.9186 139 85.6676L138.72 82.0097Z" fill="#EB996E"/>
<path d="M142.985 42.7476C143.124 43.8293 142.288 44.8388 141.174 44.9831C140.06 45.1273 139.085 44.3341 139.015 43.2524C138.876 42.1707 139.712 41.1612 140.826 41.0169C141.871 40.8727 142.846 41.6659 142.985 42.7476Z" fill="#263238"/>
<path d="M144.965 37.5605C144.754 37.7995 143.141 36.9031 140.968 37.0226C138.794 37.1421 137.251 38.1581 137.041 37.9788C136.901 37.8593 137.111 37.441 137.812 37.0226C138.443 36.5445 139.565 36.0663 140.968 36.0066C142.3 35.9468 143.492 36.3054 144.193 36.664C144.824 37.0226 145.105 37.441 144.965 37.5605Z" fill="#263238"/>
<path d="M122.985 44.7476C123.124 45.8293 122.288 46.8388 121.174 46.9831C120.06 47.1273 119.085 46.334 119.015 45.2524C118.876 44.1707 119.712 43.1612 120.826 43.0169C121.871 42.8727 122.846 43.6659 122.985 44.7476Z" fill="#263238"/>
<path d="M123.965 39.5605C123.754 39.7995 122.141 38.9031 119.968 39.0226C117.794 39.1421 116.251 40.1581 116.041 39.9788C115.901 39.8593 116.111 39.4409 116.812 39.0226C117.443 38.5445 118.565 38.0663 119.968 38.0066C121.3 37.9468 122.492 38.3054 123.193 38.664C123.824 39.0226 124.105 39.4409 123.965 39.5605Z" fill="#263238"/>
<path d="M133.31 55.9734C133.31 55.8258 134.715 55.5305 137.009 55.0876C137.601 55.0138 138.119 54.8662 138.192 54.4233C138.266 53.9804 138.045 53.3899 137.675 52.7256C137.009 51.3231 136.343 49.9206 135.677 48.3706C132.866 42.244 130.794 37.1508 131.016 37.0032C131.238 36.8556 133.754 41.8011 136.565 47.9277C137.231 49.4778 137.897 50.8802 138.488 52.2827C138.784 52.947 139.154 53.6851 138.932 54.5709C138.784 55.0138 138.414 55.3829 138.045 55.4567C137.675 55.6043 137.379 55.6043 137.083 55.6781C134.789 55.9734 133.31 56.0472 133.31 55.9734Z" fill="#263238"/>
<path d="M123.993 31.33C123.851 31.8965 121.575 31.7706 119.014 32.1483C116.454 32.526 114.391 33.3444 114.035 32.8408C113.893 32.6519 114.178 32.0854 114.96 31.5188C115.742 30.9523 117.023 30.3857 118.588 30.1339C120.152 29.8822 121.575 30.008 122.5 30.3228C123.567 30.7005 124.064 31.0782 123.993 31.33Z" fill="#263238"/>
<path d="M142.966 31.6071C142.633 32.0073 141.168 31.7215 139.503 31.7787C137.771 31.7787 136.372 32.236 136.039 31.8358C135.906 31.6643 136.106 31.2069 136.705 30.8067C137.305 30.4065 138.304 30.0063 139.503 30.0063C140.701 29.9491 141.7 30.2921 142.366 30.6352C142.833 30.9782 143.099 31.3784 142.966 31.6071Z" fill="#263238"/>
<path d="M101.423 49.263C101.129 49.1911 91.0432 46.961 92.0739 56.8882C93.1046 66.7435 104 63.5783 104 63.2905C104 62.9309 101.423 49.263 101.423 49.263Z" fill="#FFBE9D"/>
<path d="M99 59.9094C98.9267 59.9094 98.8535 60.0595 98.5605 60.2096C98.2674 60.3597 97.8279 60.5098 97.2419 60.3597C96.143 60.0595 95.0442 58.4085 94.8245 56.6073C94.678 55.7068 94.8245 54.7311 95.0442 53.9807C95.264 53.2302 95.7035 52.6298 96.2163 52.4797C96.7291 52.3296 97.1686 52.5548 97.3151 52.855C97.4616 53.1551 97.4616 53.3052 97.4616 53.3803C97.4616 53.3803 97.6814 53.1552 97.5349 52.7799C97.4617 52.5548 97.3151 52.3296 97.0954 52.1795C96.8024 52.0294 96.4361 51.9544 96.0698 52.0294C95.264 52.1795 94.678 52.93 94.3849 53.8306C94.0919 54.6561 93.9454 55.7068 94.0187 56.7574C94.3117 58.8587 95.4838 60.6599 97.0221 60.9601C97.7547 61.1102 98.3407 60.81 98.6337 60.5098C99 60.1346 99 59.9094 99 59.9094Z" fill="#EB996E"/>
<path d="M147 17.6814C146.362 21.5388 138.493 25.0456 131.97 24.8351C125.944 24.6949 122.966 21.6791 118.642 19.6452C115.877 18.3126 115.877 18.3126 112.119 18.9438C109.071 19.4348 107.511 22.9415 105.81 25.4664C109.071 32.4799 107.724 40.6155 106.377 48.1901C106.235 49.0317 106.022 49.9435 105.384 50.5045C104.321 51.4864 102.548 50.8552 101.414 49.9435C99.7126 48.4005 98.9327 46.086 98.3656 43.8417C97.0895 38.7219 96.5932 33.3916 97.373 28.2016C98.2238 23.0116 100.351 17.9619 103.966 14.0344C108.433 9.19506 115.026 6.38966 121.69 6.03899C128.354 5.68831 135.019 7.72223 140.549 11.3692C143.172 12.9824 145.582 15.0163 147 17.6814Z" fill="#263238"/>
<path d="M133.857 60.6906C132.214 59.8745 130.499 59.0584 128.856 58.2423C128.57 58.0939 128.285 57.9455 127.927 58.0197C127.57 58.0939 127.284 58.3165 127.07 58.6133C125.927 60.0971 125.641 62.2486 126.498 63.9549C127.427 65.5871 129.499 66.4774 131.214 65.7355C133 64.9936 133.857 62.8421 134 60.839L133.857 60.6906Z" fill="#EB996E"/>
<path d="M130.64 66.6416C130.64 66.7148 130.438 66.8613 129.966 66.9345C129.494 67.0077 128.752 67.081 127.943 66.788C127.134 66.4951 126.189 65.7628 125.583 64.6643C124.976 63.5658 124.773 62.0279 125.313 60.6364C125.583 59.9773 125.92 59.3182 126.392 58.8788C126.661 58.6591 126.864 58.4394 127.134 58.2197C127.268 58.1465 127.471 58.0732 127.673 58C127.875 58 128.078 58.0732 128.212 58.1465C128.55 58.2929 128.752 58.4394 128.954 58.5859C129.156 58.7323 129.359 58.8788 129.628 59.0253C130.033 59.3182 130.438 59.5379 130.775 59.8308C132.191 60.7829 133 61.442 133 61.5152C132.933 61.5884 131.989 61.149 130.572 60.2702C130.168 60.0505 129.831 59.8308 129.359 59.5379C129.156 59.3914 128.954 59.245 128.684 59.1717C128.482 59.0253 128.212 58.8788 128.01 58.8056C127.808 58.7323 127.673 58.7323 127.471 58.8788C127.268 59.0253 127.066 59.1717 126.864 59.3914C126.459 59.8308 126.122 60.3435 125.92 60.9293C125.515 62.1011 125.65 63.4193 126.122 64.3713C126.594 65.3234 127.336 65.9825 128.078 66.3486C128.819 66.6416 129.426 66.7148 129.898 66.7148C130.37 66.6416 130.64 66.5683 130.64 66.6416Z" fill="#263238"/>
<path d="M129.928 44.5C129.856 44.5 129.928 43.5618 129.567 41.9742C129.134 40.3866 128.124 38.1494 125.814 36.3453C124.66 35.4793 123.217 34.7577 121.485 34.469C119.825 34.1803 117.948 34.2525 116.144 34.902C115.206 35.1907 114.34 35.6958 113.546 36.2731C112.753 36.8505 112.031 37.5721 111.381 38.4381C110.155 40.0979 109.433 42.2629 109.433 44.4278C109.433 46.665 110.155 48.7578 111.381 50.4176C111.959 51.2835 112.753 52.0052 113.546 52.5825C114.34 53.1598 115.206 53.665 116.144 53.9537C117.948 54.6032 119.825 54.6753 121.485 54.3867C123.144 54.098 124.66 53.3763 125.814 52.5104C128.124 50.7062 129.206 48.4691 129.567 46.8815C129.928 45.366 129.928 44.4278 129.928 44.5C129.928 44.5 129.928 44.5722 129.928 44.6443C129.928 44.7887 129.928 44.933 129.928 45.1495C129.928 45.366 129.928 45.6546 129.856 45.9433C129.783 46.232 129.784 46.5928 129.639 47.0258C129.495 47.8196 129.134 48.8299 128.485 49.8402C127.907 50.8506 127.041 51.933 125.887 52.799C124.732 53.665 123.217 54.4588 121.485 54.8197C119.753 55.1083 117.804 55.1083 115.928 54.3867C114.99 54.098 114.124 53.5928 113.258 52.9434C112.392 52.366 111.67 51.5722 111.021 50.7062C109.722 48.9742 109 46.7371 109 44.5C109 42.1907 109.722 40.0257 111.021 38.2938C111.67 37.4278 112.392 36.634 113.258 36.0566C114.052 35.4072 114.99 34.9742 115.928 34.6133C117.804 33.8917 119.753 33.8917 121.485 34.1803C123.217 34.469 124.732 35.2628 125.887 36.201C127.041 37.1391 127.907 38.1494 128.557 39.1598C129.134 40.1701 129.495 41.1082 129.711 41.9742C129.856 42.4072 129.856 42.768 129.928 43.0567C130 43.3454 130 43.634 130 43.8505C130 44.067 130 44.2113 130 44.3557C129.928 44.4278 129.928 44.5 129.928 44.5Z" fill="#263238"/>
<path d="M154 42.92C153.929 42.92 154 42.0711 153.647 40.5149C153.293 39.0294 152.304 36.8365 150.042 35.1388C148.912 34.29 147.569 33.5826 145.943 33.2997C144.318 33.0167 142.551 33.0874 140.855 33.7241C140.007 34.007 139.159 34.5022 138.382 35.0681C137.604 35.634 136.898 36.3414 136.332 37.1195C135.131 38.6757 134.495 40.7271 134.424 42.8492C134.424 44.9714 135.131 47.0227 136.332 48.579C136.898 49.3571 137.604 50.0645 138.382 50.6304C139.159 51.1963 140.007 51.6207 140.855 51.9744C142.551 52.611 144.389 52.6818 145.943 52.3988C147.569 52.1159 148.912 51.4085 150.042 50.5596C152.304 48.8619 153.293 46.6691 153.647 45.1836C154 43.8396 153.929 42.92 154 42.92C154 42.92 154 43.1322 154 43.5566C154 43.7688 154 44.0518 153.929 44.3347C153.859 44.6177 153.859 44.9714 153.717 45.3958C153.364 46.8813 152.375 49.1449 150.113 50.9133C148.982 51.7622 147.569 52.5403 145.943 52.8232C144.318 53.1062 142.41 53.1062 140.643 52.3988C139.724 52.1159 138.876 51.6207 138.099 51.0548C137.322 50.4889 136.544 49.7815 135.979 48.9327C134.707 47.3057 134.071 45.1836 134 42.9907C134 40.7978 134.707 38.6757 135.979 37.0487C136.615 36.1999 137.322 35.4925 138.099 34.9266C138.876 34.3607 139.724 33.8655 140.643 33.5826C142.41 32.946 144.247 32.8752 145.943 33.1582C147.569 33.4411 149.053 34.2192 150.113 35.0681C152.375 36.8365 153.364 39.1001 153.717 40.5856C153.859 40.9393 153.859 41.293 153.929 41.6467C154 41.9296 154 42.2126 154 42.4248C154 42.7077 154 42.92 154 42.92Z" fill="#263238"/>
<path d="M133.987 40.9886C133.915 41.0467 133.702 40.8723 133.274 40.6978C132.847 40.5234 132.206 40.3489 131.493 40.3489C130.781 40.3489 130.14 40.5234 129.712 40.6978C129.285 40.8723 129.071 41.0467 129 40.9886C129 40.9886 129.142 40.756 129.57 40.4652C129.997 40.2326 130.71 40 131.493 40C132.277 40 132.989 40.2326 133.417 40.4652C133.844 40.756 134.058 40.9886 133.987 40.9886Z" fill="#263238"/>
<path d="M109.998 42.0025C110.068 42.0754 108.115 43.7512 105.605 45.6457C103.164 47.5402 101.072 49.0704 101.002 48.9975C100.932 48.9246 102.885 47.2488 105.395 45.3543C107.906 43.4598 109.928 41.9296 109.998 42.0025Z" fill="#263238"/>
<g opacity="0.3">
<path d="M101.157 88C100.176 97.5265 103.819 107.543 111.454 113.287C112.085 113.707 112.785 114.198 113.486 113.918C113.976 113.707 114.256 113.287 114.536 112.797C116.708 109.014 117.408 104.881 116.778 100.609C115.587 103.761 114.536 106.913 113.345 110.205C106.691 106.212 102.558 97.6666 101.157 88Z" fill="black"/>
</g>
<path opacity="0.3" d="M128 109.553L133.738 107.515L134.671 117C134.671 117 140.839 105.97 143.421 100.911C146.003 95.8525 144.641 87 144.641 87C144.641 87 145.573 94.7283 139.333 104.635L134.671 112.082V104.283L128 109.553Z" fill="black"/>
<g opacity="0.3">
<path d="M62.1355 158.183C59.5601 156.982 56.6271 156.841 53.8372 157.124C50.9042 157.477 47.8996 158.324 45.6104 160.231C43.3212 162.067 41.7474 164.963 42.0336 167.929L42.3197 168C44.3227 162.703 48.2573 158.819 53.408 158.324C58.4871 157.83 63.4947 160.09 67 163.833C66.6423 161.008 64.7108 159.384 62.1355 158.183Z" fill="black"/>
</g>
<g opacity="0.3">
<path d="M204.454 164.088C202.582 161.983 200.017 160.749 197.313 160.241C192.598 159.37 187.536 160.894 184 164.306L185.04 163.435C187.744 161.765 190.795 160.821 193.915 160.894C197.035 160.967 200.156 162.201 202.374 164.451C204.454 166.483 205.702 169.314 206.881 172C207.367 169.169 206.327 166.193 204.454 164.088Z" fill="black"/>
</g>
<path d="M168 119C168 119 168.069 118.722 168.277 118.234C168.485 117.678 168.762 116.982 169.04 116.216C169.733 114.476 170.634 112.179 171.604 109.535C172.574 106.89 173.406 104.524 174.03 102.784C174.307 101.949 174.584 101.322 174.723 100.766C174.931 100.278 175 100 175 100C175 100 174.931 100.278 174.861 100.766C174.723 101.253 174.515 101.949 174.238 102.853C173.683 104.593 172.921 107.029 171.95 109.674C170.98 112.319 170.01 114.615 169.317 116.355C168.97 117.19 168.624 117.886 168.416 118.304C168.139 118.722 168.069 119 168 119Z" fill="#263238"/>
<path d="M78.9808 120C78.9119 120 78.1543 116.69 77.3278 112.535C76.5013 108.38 75.8815 105 76.0192 105C76.0881 105 76.8457 108.31 77.6722 112.465C78.4987 116.549 79.1185 119.93 78.9808 120Z" fill="#263238"/>
<path d="M78.6161 161.509C78.8282 161.648 76 139.747 76 139.747C76 139.747 77.7676 123.147 78.7575 122.38V116.521C78.7575 116.521 81.515 114.848 82.2221 117.498C82.2221 117.498 84.626 115.406 85.0503 120.358C85.4745 125.31 85.5452 130.401 85.5452 130.401L90.9895 143.793L91.9087 144.211C91.9087 144.211 93.04 133.749 93.747 132.215C94.4541 130.68 94.8783 126.914 97.4944 127.472C100.04 128.03 100.252 130.122 99.8277 133.54C99.3327 136.958 98.7671 140.515 98.9792 142.677C99.1913 144.909 100.181 149.721 99.8984 153.627C99.6155 157.463 97.4237 161.578 95.1611 164.438C92.8986 167.298 88.5855 173.226 86.2523 174.97C85.5452 175.737 78.6161 161.509 78.6161 161.509Z" fill="#FFBE9D"/>
<path d="M81.3667 144C81.3667 144 81.3667 143.651 81.3667 143.094C81.4343 142.396 81.5019 141.56 81.5695 140.583C81.7048 138.422 81.9752 135.493 82.2457 132.216C82.381 130.613 82.5162 129.009 82.6514 127.614C82.7191 126.917 82.7867 126.22 82.6514 125.662C82.5838 125.035 82.3133 124.547 81.9753 124.128C81.2991 123.361 80.42 123.152 79.879 123.152C79.3381 123.152 79 123.291 79 123.291C79 123.291 79.0676 123.222 79.2029 123.152C79.3381 123.082 79.5409 123.013 79.879 123.013C80.4876 122.943 81.4343 123.152 82.1781 123.919C82.5838 124.337 82.8543 124.895 82.9219 125.523C83.0572 126.15 82.9895 126.847 82.9219 127.545C82.7867 128.939 82.6514 130.543 82.5162 132.147C82.2457 135.424 81.9753 138.352 81.7048 140.514C81.5695 141.56 81.5019 142.396 81.4343 143.024C81.4343 143.651 81.4343 144 81.3667 144Z" fill="#EB996E"/>
<path d="M83.9948 135.018C84.0623 135.086 83.4549 135.567 83.05 136.735C82.645 137.834 82.5101 139.551 82.1726 141.406C81.9027 143.26 81.6327 144.909 81.4302 146.077C81.2278 147.244 81.0928 148 81.0253 148C80.9578 148 81.0253 147.244 81.2278 146.008C81.3628 144.772 81.6327 143.123 81.9027 141.268C82.1726 139.414 82.3751 137.765 82.8475 136.597C83.05 136.048 83.3874 135.567 83.5899 135.361C83.7924 135.086 83.9273 134.949 83.9948 135.018Z" fill="#EB996E"/>
<path d="M82 117C82 117 82.0909 117.21 82.2727 117.7C82.3637 118.121 82.5455 118.821 82.7273 119.591C83.0909 121.202 83.4545 123.444 83.7273 125.965C84 128.486 84 130.728 84 132.339C84 133.179 83.9091 133.809 83.9091 134.3C83.9091 134.79 83.8182 135 83.8182 135C83.7273 135 83.7273 134.019 83.6364 132.339C83.5455 130.728 83.4545 128.416 83.2727 125.965C83 123.444 82.7273 121.202 82.4545 119.591C82.1818 117.981 82 117 82 117Z" fill="#EB996E"/>
<path d="M97.9962 137.78C98.0609 137.836 97.2849 138.168 96.3149 137.891C95.345 137.67 94.8923 137.005 95.0216 137.005C95.0863 136.949 95.6036 137.393 96.4443 137.614C97.2203 137.891 97.9316 137.725 97.9962 137.78Z" fill="#EB996E"/>
<path d="M78.7977 159L64.3165 164.973H55.6849C55.6849 164.973 47.196 167.573 45.8406 175.444C44.5565 183.314 44.3425 187.39 48.1233 188.304C51.9041 189.287 62.4618 189.358 67.6693 187.671C72.9482 185.985 86.6446 175.022 86.6446 175.022L88 167.152L78.7977 159Z" fill="#FFBE9D"/>
<path d="M81.9937 168C81.9937 168 81.8611 167.859 81.596 167.647C81.3308 167.364 81.0657 167.011 80.7343 166.446C80.0714 165.386 79.3423 163.761 78.8783 161.924C78.348 160.087 78.1491 158.321 78.0829 157.049C77.9503 155.777 78.0166 155 78.0166 155C78.0829 155 78.1491 155.777 78.2817 157.049C78.4806 158.321 78.6794 160.016 79.2097 161.853C79.6737 163.69 80.3366 165.245 80.9331 166.375C81.596 167.364 82.06 168 81.9937 168Z" fill="#EB996E"/>
<path d="M87.6674 170C87.5939 170 88.2551 168.899 88.549 167.04C88.696 166.076 88.6959 164.975 88.4021 163.736C88.1082 162.496 87.5204 161.257 86.5653 160.087C85.6837 158.917 84.6551 157.884 83.7735 156.851C82.8919 155.888 82.2306 154.855 81.7898 154.029C81.349 153.134 81.1286 152.377 81.0551 151.826C80.9816 151.275 80.9816 151 81.0551 151C81.1286 151 81.1286 152.239 82.0837 153.96C82.5245 154.786 83.2592 155.75 84.1408 156.714C85.0225 157.678 86.051 158.71 86.9327 159.949C87.8878 161.188 88.549 162.496 88.7694 163.736C89.0633 165.043 89.0633 166.214 88.8429 167.178C88.696 168.141 88.4021 168.899 88.1817 169.38C88.0347 169.656 87.9613 169.793 87.8878 169.931C87.6674 169.931 87.6674 170 87.6674 170Z" fill="#EB996E"/>
<path d="M65.9973 136.999C65.9229 137.07 64.2859 134.142 62.3512 130.571C60.4165 127.001 58.9283 124.001 59.0027 124.001C59.0771 123.93 60.7141 126.858 62.6488 130.429C64.5835 133.999 66.0717 136.927 65.9973 136.999Z" fill="white"/>
<path d="M88.0041 109.999C87.9284 109.931 88.9117 107.702 90.3487 104.932C91.7101 102.162 92.9203 100 92.9959 100C93.0716 100.068 92.0883 102.297 90.6513 105.067C89.2899 107.837 88.0797 110.066 88.0041 109.999Z" fill="white"/>
<path d="M110.997 126.998C110.929 127.064 109.499 125.546 107.864 123.632C106.229 121.718 104.934 120.068 105.003 120.002C105.071 119.936 106.501 121.454 108.136 123.368C109.771 125.282 111.066 126.932 110.997 126.998Z" fill="white"/>
<path d="M106.003 149.998C105.936 149.928 106.948 148.335 108.365 146.396C109.715 144.457 110.929 142.933 110.997 143.002C111.064 143.072 110.052 144.665 108.635 146.604C107.285 148.543 106.071 150.067 106.003 149.998Z" fill="white"/>
<path d="M98 182C97.9357 182 97.6787 181.517 97.2289 180.621C96.7791 179.724 96.2651 178.483 95.6867 177.103C95.1084 175.724 94.6586 174.414 94.4016 173.517C94.0803 172.552 93.9518 172 94.0161 172C94.0803 172 94.2731 172.552 94.6586 173.448C95.0442 174.483 95.5582 175.655 96.0723 177.034C96.5863 178.345 97.1004 179.517 97.4859 180.552C97.8072 181.379 98 181.931 98 182Z" fill="white"/>
<path d="M119 168.987C119 169.073 116.992 168.729 114.463 168.215C112.008 167.7 110 167.099 110 167.013C110 166.927 112.008 167.271 114.537 167.785C117.066 168.3 119 168.901 119 168.987Z" fill="white"/>
<path d="M107 204.987C107 205.073 104.992 204.729 102.463 204.215C100.008 203.7 98 203.099 98 203.013C98 202.927 100.008 203.271 102.537 203.785C105.066 204.3 107 204.901 107 204.987Z" fill="white"/>
<path d="M134.002 138.998C133.935 138.928 135.668 136.836 137.867 134.395C140.066 131.885 141.932 129.932 141.998 130.002C142.065 130.072 140.332 132.164 138.133 134.605C135.934 137.115 134.068 139.068 134.002 138.998Z" fill="white"/>
<path d="M145.002 203.998C144.935 203.928 146.668 201.836 148.867 199.395C151.066 196.885 152.932 194.932 152.998 195.002C153.065 195.072 151.332 197.164 149.133 199.605C146.934 202.115 145.068 204.068 145.002 203.998Z" fill="white"/>
<path d="M149.993 178.999C149.922 179.069 147.638 176.403 144.855 173.105C142.071 169.808 139.93 167.072 140.002 167.001C140.073 166.931 142.357 169.597 145.14 172.895C147.924 176.262 150.136 178.999 149.993 178.999Z" fill="white"/>
<path d="M52.9983 162.013C53.0667 162.08 51.0158 163.089 48.8283 164.77C46.6407 166.451 45.0684 168.065 45 167.998C45 167.998 45.2734 167.527 45.9571 166.855C46.5723 166.182 47.5294 165.308 48.6232 164.501C49.717 163.694 50.8108 163.021 51.6311 162.618C52.4514 162.147 52.93 161.945 52.9983 162.013Z" fill="white"/>
<path d="M58.9946 146.003C59.0728 146.068 58.2906 147.235 57.1955 148.597C56.1005 149.959 55.0836 151.062 55.0054 150.997C54.9272 150.932 55.7094 149.765 56.8044 148.403C57.8995 147.041 58.9164 145.938 58.9946 146.003Z" fill="white"/>
<path d="M71.9959 161.997C71.9485 162.068 71.4268 160.798 71.1897 159.106C70.9052 157.413 71 155.932 71.0948 156.002C71.1897 156.002 71.1897 157.413 71.4743 159.035C71.664 160.657 72.0434 161.927 71.9959 161.997Z" fill="white"/>
<path d="M74 113.066C74 113.148 72.9103 113.477 71.5 113.723C70.1538 113.969 69 114.051 69 113.969C69 113.887 70.0897 113.559 71.5 113.312C72.8462 113.066 74 112.902 74 113.066Z" fill="white"/>
<path d="M83.9966 96.0234C84.068 96.0995 82.998 96.8609 81.5713 97.6984C80.216 98.536 79.0034 99.0689 79.0034 98.9928C78.932 98.9166 80.002 98.1553 81.4287 97.3177C82.784 96.4802 83.9253 95.8711 83.9966 96.0234Z" fill="white"/>
<path d="M110.997 102.998C110.929 103.07 109.768 101.54 108.334 99.6457C106.968 97.7512 105.875 96.0754 106.012 96.0025C106.08 95.9296 107.241 97.4598 108.675 99.3543C109.973 101.322 111.065 102.925 110.997 102.998Z" fill="white"/>
<path d="M145.989 120.997C145.923 121.069 144.732 119.699 143.607 117.752C142.481 115.805 141.886 114.002 142.018 114.002C142.084 113.93 142.812 115.661 143.938 117.536C144.997 119.483 146.122 120.925 145.989 120.997Z" fill="white"/>
<path d="M159.995 125C160.06 125.069 159.475 126.647 158.63 128.569C157.785 130.49 157.07 132 157.005 132C156.94 131.931 157.525 130.353 158.37 128.431C159.215 126.51 159.93 125 159.995 125Z" fill="white"/>
<path d="M161.998 105.998C161.926 106.066 160.284 104.358 158.357 102.103C156.43 99.9156 154.931 98.0703 155.002 98.002C155.074 97.9336 156.716 99.6422 158.643 101.897C160.57 104.084 162.069 105.93 161.998 105.998Z" fill="white"/>
<path d="M141.399 91.8182C141.328 91.8182 141.187 90.2718 141.046 88.4442C140.976 86.5464 140.976 85 141.117 85C141.187 85 141.328 86.5464 141.469 88.374C141.54 90.3421 141.469 91.8182 141.399 91.8182Z" fill="white"/>
<path d="M158.048 90.9043C158.048 90.9746 156.145 91.3263 153.678 91.6781C151.282 92.0298 149.309 92.1705 149.309 92.1001C149.309 92.0298 151.212 91.6781 153.678 91.3263C156.074 90.9746 158.048 90.834 158.048 90.9043Z" fill="white"/>
<path d="M184.337 110.164C184.266 110.235 183.068 107.985 181.729 105.174C180.39 102.362 179.333 100.113 179.474 100.043C179.544 99.9723 180.742 102.222 182.081 105.033C183.42 107.845 184.407 110.094 184.337 110.164Z" fill="white"/>
<path d="M179.895 126.753C179.825 126.753 180.036 124.926 180.529 122.747C180.952 120.568 181.375 118.811 181.516 118.811C181.587 118.811 181.375 120.638 180.882 122.817C180.459 125.066 180.036 126.824 179.895 126.753Z" fill="white"/>
<path d="M192.088 139.898C192.017 139.898 191.031 137.508 189.973 134.486C188.916 131.463 188.141 129.003 188.211 128.933C188.282 128.933 189.269 131.323 190.326 134.345C191.383 137.367 192.158 139.828 192.088 139.898Z" fill="white"/>
<path d="M190.398 147.559C190.398 147.629 188.707 147.278 186.804 146.294C184.971 145.31 183.703 144.044 183.773 144.044C183.844 143.974 185.112 145.028 186.945 146.012C188.848 146.926 190.398 147.418 190.398 147.559Z" fill="white"/>
<path d="M205.973 165.062C205.903 165.132 205.339 164.008 204.704 162.672C204.07 161.337 203.718 160.212 203.788 160.142C203.859 160.072 204.422 161.196 205.057 162.532C205.691 163.867 206.114 164.992 205.973 165.062Z" fill="white"/>
<path d="M113.856 189.387C113.786 189.387 113.504 187.981 113.293 186.294C113.081 184.537 113.011 183.131 113.081 183.131C113.152 183.131 113.434 184.537 113.645 186.224C113.856 187.981 113.927 189.387 113.856 189.387Z" fill="white"/>
<path d="M161.712 188.192C161.641 188.192 161.853 186.786 162.205 185.17C162.557 183.483 162.91 182.147 163.051 182.217C163.121 182.217 162.91 183.623 162.557 185.24C162.205 186.927 161.782 188.262 161.712 188.192Z" fill="white"/>
<path d="M212.667 135.805C213.232 135.639 214.43 128.146 214.43 128.146C214.43 128.146 222.72 122.783 223.908 120.452C225.095 118.121 225.302 112.21 225.302 112.21L212.834 102.576C212.834 102.576 204.795 108.471 202.667 110.869C200.539 113.267 198.67 123.811 198.67 123.811L198.865 129.763C198.859 129.62 203.622 138.177 212.667 135.805Z" fill="#FFBE9D"/>
<path d="M223.22 121.822C223.22 121.822 224.246 121.095 226.009 119.51C227.771 117.925 229.766 116.445 228.281 114.454C227.403 113.293 226.314 113.224 226.314 113.224C226.314 113.224 227.363 111.669 226.602 110.56C225.84 109.451 224.583 109.446 224.583 109.446C224.583 109.446 226.003 107.22 224.933 105.553C223.585 103.413 221.139 103.715 221.139 103.715C221.139 103.715 228.445 95.1455 228.765 94.5904C230.087 92.7389 230.923 90.9904 229.493 89.9791C227.632 88.6633 225.736 90.5375 223.347 93.517C220.899 96.4704 215.743 100.46 215.743 100.46C215.743 100.46 211.494 103.374 209.336 105.061C207.178 106.747 202.659 110.728 201.851 111.902C199.844 115.122 199.904 120.595 199.904 120.595L214.395 128.063C214.453 128.089 222.193 122.549 223.22 121.822Z" fill="#FFBE9D"/>
<path d="M225.817 113.559C225.758 113.533 225.089 113.931 223.972 114.548C223.387 114.915 222.744 115.255 222.049 115.712C221.686 115.898 221.296 116.142 220.938 116.471C220.58 116.799 220.255 117.212 220.162 117.729C220.07 118.246 220.211 118.868 220.625 119.193C221.038 119.518 221.557 119.61 222.043 119.619C222.529 119.627 222.925 119.525 223.295 119.481C223.664 119.437 224.06 119.335 224.372 119.265C224.995 119.125 225.533 119.017 225.871 118.889C226.208 118.761 226.435 118.723 226.377 118.697C226.345 118.613 225.553 118.817 224.249 119.071C223.594 119.126 222.802 119.33 221.973 119.308C221.571 119.268 221.111 119.201 220.813 118.928C220.516 118.656 220.381 118.176 220.48 117.802C220.546 117.342 220.846 116.988 221.177 116.717C221.509 116.447 221.899 116.203 222.23 115.932C222.925 115.476 223.536 115.051 224.121 114.684C225.18 114.042 225.875 113.585 225.817 113.559Z" fill="#EB996E"/>
<path d="M213.088 109.325C213.146 109.351 213.707 108.415 213.906 107.038C214.163 105.687 213.972 104.555 213.888 104.587C213.804 104.619 213.82 105.673 213.588 106.966C213.357 108.259 213.03 109.299 213.088 109.325Z" fill="#EB996E"/>
<path d="M205.846 109.711C207.761 109.032 209.933 109.028 211.896 109.488C213.943 109.916 215.84 110.836 217.652 111.787C219.115 112.582 220.68 113.772 220.746 115.337C220.845 116.987 219.271 118.308 217.592 118.463C215.912 118.618 214.254 117.946 212.759 117.067C211.238 116.246 209.796 115.251 208.176 114.805" fill="#FFBE9D"/>
<path d="M208.177 114.805C208.177 114.805 208.611 114.929 209.368 115.269C210.125 115.608 211.18 116.22 212.442 116.995C213.115 117.366 213.788 117.737 214.604 118.103C215.446 118.41 216.372 118.685 217.371 118.644C218.37 118.602 219.382 118.218 220.15 117.444C220.534 117.058 220.827 116.561 220.92 116.043C221.012 115.526 220.956 114.873 220.678 114.399C220.176 113.337 219.232 112.634 218.294 112.074C217.355 111.514 216.449 111.039 215.575 110.647C213.769 109.838 212.033 109.34 210.542 109.231C209.077 109.064 207.825 109.201 207.034 109.405C206.638 109.507 206.326 109.577 206.131 109.699C205.963 109.763 205.794 109.828 205.852 109.854C205.852 109.854 206.274 109.693 207.098 109.574C207.863 109.428 209.089 109.348 210.554 109.516C212.019 109.683 213.696 110.155 215.477 111.022C216.351 111.414 217.257 111.889 218.195 112.449C219.075 112.983 219.961 113.659 220.431 114.638C220.65 115.085 220.759 115.622 220.608 116.113C220.516 116.631 220.274 117.011 219.891 117.398C219.234 118.081 218.279 118.492 217.339 118.559C216.398 118.627 215.472 118.352 214.688 118.071C213.905 117.79 213.173 117.392 212.5 117.021C211.212 116.304 210.158 115.692 209.374 115.411C208.966 115.228 208.649 115.156 208.474 115.078C208.319 114.799 208.177 114.805 208.177 114.805Z" fill="#EB996E"/>
<path d="M225.621 113.681C223.029 115.243 220.534 117.058 218.181 118.867C217.46 119.382 216.712 119.955 215.83 120.048C215.091 120.136 213.98 118.87 213.475 118.435L221.941 111.125" fill="#FFBE9D"/>
<path d="M221.966 111.067C221.966 111.067 221.687 111.221 221.245 111.582C220.777 112 220.14 112.483 219.451 113.082C217.904 114.344 215.81 116.199 213.411 118.267L213.3 118.357L213.449 118.493C213.837 118.876 214.224 119.259 214.755 119.637C214.962 119.799 215.11 119.935 215.343 120.04C215.46 120.092 215.577 120.144 215.719 120.138C215.836 120.19 216.004 120.126 216.147 120.12C216.601 120.045 217.049 119.826 217.413 119.64C218.166 119.21 218.771 118.643 219.382 118.218C220.63 117.311 221.709 116.467 222.651 115.772C223.594 115.077 224.373 114.589 224.9 114.196C225.426 113.803 225.705 113.649 225.731 113.591C225.731 113.591 225.394 113.719 224.809 114.086C224.251 114.394 223.445 114.941 222.47 115.552C221.47 116.221 220.359 116.98 219.169 117.913C218.558 118.338 217.895 118.879 217.2 119.335C216.836 119.522 216.473 119.708 216.077 119.81C215.681 119.912 215.325 119.613 214.944 119.372C214.472 119.021 214.084 118.638 213.696 118.255L213.734 118.481C216.133 116.414 218.227 114.559 219.742 113.213C220.457 112.555 221.036 112.047 221.504 111.628C221.719 111.305 221.94 111.125 221.966 111.067Z" fill="#EB996E"/>
<path d="M224.359 108.857C221.498 111.485 218.669 114.198 215.807 116.826C215.203 117.393 214.598 117.96 213.812 118.306C213.027 118.653 212.086 118.72 211.323 118.239C210.294 117.569 210.065 116.209 210.477 115.137C210.889 114.065 211.741 113.259 212.567 112.512C215.123 110.096 217.498 107.46 219.666 104.66" fill="#FFBE9D"/>
<path d="M219.75 104.629C219.75 104.629 219.64 104.719 219.503 104.867C219.34 105.073 219.093 105.312 218.878 105.634C218.305 106.286 217.518 107.259 216.451 108.387C215.442 109.541 214.154 110.85 212.697 112.222C211.956 112.937 211.098 113.6 210.57 114.62C210.276 115.117 210.158 115.692 210.156 116.32C210.18 116.889 210.379 117.537 210.857 118.03C211.335 118.524 212.028 118.694 212.657 118.697C213.286 118.699 213.876 118.475 214.377 118.141C215.351 117.53 216.06 116.73 216.802 116.015C218.259 114.643 219.605 113.361 220.73 112.259C221.829 111.215 222.707 110.352 223.338 109.726C223.611 109.43 223.859 109.192 224.08 109.011C224.216 108.863 224.327 108.773 224.327 108.773C224.327 108.773 224.216 108.863 224.021 108.985C223.8 109.165 223.579 109.346 223.248 109.616C222.559 110.215 221.622 111.053 220.523 112.096C219.366 113.114 218.02 114.396 216.563 115.768C215.763 116.458 215.054 117.257 214.164 117.836C213.69 118.112 213.183 118.304 212.613 118.328C212.042 118.352 211.492 118.175 211.104 117.792C210.716 117.409 210.491 116.819 210.441 116.308C210.417 115.739 210.568 115.248 210.777 114.783C211.279 113.821 212.079 113.132 212.82 112.416C214.303 110.986 215.533 109.652 216.541 108.498C217.55 107.344 218.338 106.37 218.852 105.692C219.093 105.312 219.34 105.073 219.419 104.899C219.64 104.719 219.75 104.629 219.75 104.629Z" fill="#EB996E"/>
<path d="M213.642 131.771C213.642 131.771 211.253 162.468 211.028 163.903L188.741 162.748L198.838 122.975L213.642 131.771Z" fill="#FFBE9D"/>
<path d="M206.287 123.524C206.261 123.582 206.611 123.738 207.214 123.799C207.816 123.859 208.646 123.882 209.548 123.588C210.451 123.293 211.146 122.837 211.53 122.45C211.939 122.005 212.128 121.741 212.07 121.715C211.98 121.604 211.088 122.811 209.394 123.309C207.758 123.833 206.281 123.381 206.287 123.524Z" fill="#EB996E"/>
<path d="M211.031 163.902C211.031 163.902 210.611 172.665 208.615 179.637C207.003 185.268 205.391 189.022 195.186 189.291C184.981 189.561 178.536 186.88 176.925 181.786C175.314 176.692 175.583 172.316 179.612 168.111C183.641 163.905 195.583 159.496 195.583 159.496L211.031 163.902Z" fill="#FFBE9D"/>
<path d="M186.801 177.627C186.801 177.627 186.795 177.484 186.809 177.141C186.823 176.799 186.805 176.372 186.839 175.828C186.815 175.259 186.928 174.542 187.008 173.74C187.03 172.912 187.221 172.02 187.348 170.96C187.919 166.887 189.084 161.335 190.511 155.202C191.996 149.095 193.421 143.589 194.51 139.609C195.028 137.677 195.475 136.062 195.796 134.879C195.973 134.33 196.013 133.929 196.17 133.58C196.242 133.264 196.294 133.147 196.236 133.121C196.236 133.121 196.158 133.296 196.053 133.528C195.981 133.845 195.798 134.252 195.621 134.801C195.268 135.899 194.822 137.514 194.219 139.479C193.071 143.433 191.588 148.912 190.162 155.045C188.676 161.152 187.627 166.756 187.115 170.855C187.014 171.858 186.856 172.834 186.86 173.603C186.837 174.431 186.725 175.149 186.749 175.718C186.773 176.287 186.791 176.714 186.777 177.057C186.737 177.458 186.743 177.6 186.801 177.627Z" fill="#EB996E"/>
</svg>
