<svg width="107" height="94" viewBox="0 0 107 94" fill="none" xmlns="http://www.w3.org/2000/svg">
<path d="M67 51H55V63H67V51Z" fill="#F5F5F5"/>
<path d="M56 50H3V64H56V50Z" fill="#E0E0E0"/>
<path d="M67 50.9996H54V49.9996H67C67.3712 49.9996 68 49.7237 68 49.9996C68 50.2755 67.3721 50.9996 67 50.9996Z" fill="#E0E0E0"/>
<path d="M67 64H54V63H67C67.3712 63 68 63.7241 68 64C68 64.2759 67.3721 64 67 64Z" fill="#E0E0E0"/>
<path d="M51 50H45V64H51V50Z" fill="#EBEBEB"/>
<path d="M14 50H8V64H14V50Z" fill="#EBEBEB"/>
<path d="M61.64 53.1236C64.7549 53.1236 67.28 53.096 67.28 53.0618C67.28 53.0277 64.7549 53 61.64 53C58.5251 53 56 53.0277 56 53.0618C56 53.096 58.5251 53.1236 61.64 53.1236Z" fill="#E0E0E0"/>
<path d="M61.3529 54.7877C64.4678 54.7877 66.9929 54.76 66.9929 54.7259C66.9929 54.6917 64.4678 54.6641 61.3529 54.6641C58.238 54.6641 55.7129 54.6917 55.7129 54.7259C55.7129 54.76 58.238 54.7877 61.3529 54.7877Z" fill="#E0E0E0"/>
<path d="M61.3549 57.0777C64.4697 57.0777 66.9949 57.0501 66.9949 57.0159C66.9949 56.9818 64.4697 56.9541 61.3549 56.9541C58.24 56.9541 55.7148 56.9818 55.7148 57.0159C55.7148 57.0501 58.24 57.0777 61.3549 57.0777Z" fill="#E0E0E0"/>
<path d="M61.3558 59.3668C64.4707 59.3668 66.9958 59.3391 66.9958 59.305C66.9958 59.2708 64.4707 59.2432 61.3558 59.2432C58.2409 59.2432 55.7158 59.2708 55.7158 59.305C55.7158 59.3391 58.2409 59.3668 61.3558 59.3668Z" fill="#E0E0E0"/>
<path d="M61.3549 61.6559C64.4697 61.6559 66.9949 61.6282 66.9949 61.594C66.9949 61.5599 64.4697 61.5322 61.3549 61.5322C58.24 61.5322 55.7148 61.5599 55.7148 61.594C55.7148 61.6282 58.24 61.6559 61.3549 61.6559Z" fill="#E0E0E0"/>
<path d="M42.0017 55.7549H18.2793V58.2749H42.0017V55.7549Z" fill="#EBEBEB"/>
<path d="M67.431 64.1738H55.5176V71.677H67.431V64.1738Z" fill="#FAFAFA"/>
<path d="M55.6506 63.8975H4.9502V71.9458H55.6506V63.8975Z" fill="#EBEBEB"/>
<path d="M55.2822 64.4432H68.0867C68.257 64.4432 68.395 64.3212 68.395 64.1708C68.395 64.0204 68.257 63.8984 68.0867 63.8984H55.2822V64.4432Z" fill="#EBEBEB"/>
<path d="M55.2812 71.9442H68.0925C68.2594 71.9442 68.3949 71.8245 68.3949 71.677V71.6666C68.3949 71.5191 68.2594 71.3994 68.0925 71.3994H55.2812V71.9442Z" fill="#EBEBEB"/>
<path d="M61.5406 65.6559C64.7937 65.6559 67.4308 65.6285 67.4308 65.5946C67.4308 65.5607 64.7937 65.5332 61.5406 65.5332C58.2875 65.5332 55.6504 65.5607 55.6504 65.5946C55.6504 65.6285 58.2875 65.6559 61.5406 65.6559Z" fill="#E0E0E0"/>
<path d="M61.5406 67.0739C64.7937 67.0739 67.4308 67.0464 67.4308 67.0125C67.4308 66.9786 64.7937 66.9512 61.5406 66.9512C58.2875 66.9512 55.6504 66.9786 55.6504 67.0125C55.6504 67.0464 58.2875 67.0739 61.5406 67.0739Z" fill="#E0E0E0"/>
<path d="M61.5406 68.4928C64.7937 68.4928 67.4308 68.4654 67.4308 68.4315C67.4308 68.3976 64.7937 68.3701 61.5406 68.3701C58.2875 68.3701 55.6504 68.3976 55.6504 68.4315C55.6504 68.4654 58.2875 68.4928 61.5406 68.4928Z" fill="#E0E0E0"/>
<path d="M61.5406 69.9147C64.7937 69.9147 67.4308 69.8872 67.4308 69.8534C67.4308 69.8195 64.7937 69.792 61.5406 69.792C58.2875 69.792 55.6504 69.8195 55.6504 69.8534C55.6504 69.8872 58.2875 69.9147 61.5406 69.9147Z" fill="#E0E0E0"/>
<path d="M69.238 72.6562H57.0781V92.9973H69.238V72.6562Z" fill="#EBEBEB"/>
<path d="M57.0785 71.9424H0V93.9973H57.0785V71.9424Z" fill="#E0E0E0"/>
<path d="M70.1888 93.9949H55.5166V92.5645H70.1888C70.636 92.5645 70.9985 92.8845 70.9985 93.2793C70.9985 93.6749 70.636 93.9949 70.1888 93.9949Z" fill="#E0E0E0"/>
<path d="M70.2058 73.3719H55.5176V71.9414H70.2058C70.6446 71.9414 71.0004 72.2555 71.0004 72.6428V72.6712C70.9995 73.0586 70.6446 73.3719 70.2058 73.3719Z" fill="#E0E0E0"/>
<path d="M63.1581 75.444C66.5159 75.444 69.238 75.4165 69.238 75.3827C69.238 75.3488 66.5159 75.3213 63.1581 75.3213C59.8002 75.3213 57.0781 75.3488 57.0781 75.3827C57.0781 75.4165 59.8002 75.444 63.1581 75.444Z" fill="#E0E0E0"/>
<path d="M63.1581 78.0524C66.5159 78.0524 69.238 78.0249 69.238 77.9911C69.238 77.9572 66.5159 77.9297 63.1581 77.9297C59.8002 77.9297 57.0781 77.9572 57.0781 77.9911C57.0781 78.0249 59.8002 78.0524 63.1581 78.0524Z" fill="#E0E0E0"/>
<path d="M63.1581 80.6628C66.5159 80.6628 69.238 80.6353 69.238 80.6014C69.238 80.5675 66.5159 80.54 63.1581 80.54C59.8002 80.54 57.0781 80.5675 57.0781 80.6014C57.0781 80.6353 59.8002 80.6628 63.1581 80.6628Z" fill="#E0E0E0"/>
<path d="M63.1581 83.2712C66.5159 83.2712 69.238 83.2437 69.238 83.2098C69.238 83.1759 66.5159 83.1484 63.1581 83.1484C59.8002 83.1484 57.0781 83.1759 57.0781 83.2098C57.0781 83.2437 59.8002 83.2712 63.1581 83.2712Z" fill="#E0E0E0"/>
<path d="M63.1581 85.8835C66.5159 85.8835 69.238 85.856 69.238 85.8221C69.238 85.7882 66.5159 85.7607 63.1581 85.7607C59.8002 85.7607 57.0781 85.7882 57.0781 85.8221C57.0781 85.856 59.8002 85.8835 63.1581 85.8835Z" fill="#E0E0E0"/>
<path d="M63.1581 88.486C66.5159 88.486 69.238 88.4585 69.238 88.4246C69.238 88.3908 66.5159 88.3633 63.1581 88.3633C59.8002 88.3633 57.0781 88.3908 57.0781 88.4246C57.0781 88.4585 59.8002 88.486 63.1581 88.486Z" fill="#E0E0E0"/>
<path d="M63.1581 91.1012C66.5159 91.1012 69.238 91.0738 69.238 91.0399C69.238 91.006 66.5159 90.9785 63.1581 90.9785C59.8002 90.9785 57.0781 91.006 57.0781 91.0399C57.0781 91.0738 59.8002 91.1012 63.1581 91.1012Z" fill="#E0E0E0"/>
<path d="M72.2609 65.7178C72.2609 65.7178 57.5886 48.7233 52.052 31.7219C46.5154 14.7273 49.1423 16.6773 49.1423 16.6773C49.1423 16.6773 56.6164 33.1861 62.2909 41.1594C67.9654 49.1327 78.0733 60.8394 78.0733 60.8394L72.2609 65.7178Z" fill="#6AB872"/>
<path d="M75.1843 19.3272C74.7085 18.4945 73.4537 18.9316 73.5916 19.8754C74.4879 25.8432 76.4185 39.8538 76.3427 48.9444C76.2461 60.7483 76.3495 65.3144 76.3495 65.3144H82.4584C82.4584 65.3144 81.3759 40.9156 79.9969 33.4696C79.0248 28.2512 76.9701 22.4568 75.1843 19.3272Z" fill="#6AB872"/>
<path d="M78.5156 63.3228C78.5156 63.3228 82.3561 55.1899 83.542 44.9682C84.0453 40.6242 83.149 34.7535 81.8114 26.912C81.1633 23.1161 81.0185 20.2294 81.0392 18.2239C81.053 16.7111 83.0387 16.2184 83.7764 17.5369C84.5142 18.8623 86.6447 23.3798 87.1894 26.218C88.6649 33.9554 90.3404 37.8207 89.0648 45.1625C87.7824 52.5044 83.0525 63.8086 83.0525 63.8086L78.5156 63.3228Z" fill="#6AB872"/>
<path d="M84.0166 63.821C84.0166 63.821 100.13 28.9784 101.24 23.8086C102.357 18.6388 106.156 6.72385 106.597 7.40391C107.046 8.07703 107.714 14.3711 104.812 21.5602C101.909 28.7494 89.5119 64.8827 89.5119 64.8827H84.0098" fill="#6AB872"/>
<path d="M76.7499 62.2604C76.743 62.2673 76.5844 62.1632 76.3017 61.9481C76.019 61.733 75.5846 61.4207 75.0537 60.9905C73.9781 60.1439 72.475 58.8531 70.7237 57.1461C67.2073 53.7458 62.829 48.5065 59.0368 42.046C55.2378 35.5924 52.6797 29.2775 51.0594 24.6559C50.2458 22.3451 49.6598 20.4507 49.2737 19.1322C49.0737 18.473 48.9427 17.9594 48.8462 17.6125C48.7565 17.2655 48.7083 17.0781 48.7221 17.0781C48.7358 17.0781 48.7979 17.2516 48.9151 17.5917C49.0392 17.9664 49.1978 18.466 49.4047 19.0906C49.8253 20.3952 50.4527 22.2757 51.2939 24.5727C52.9693 29.1665 55.5549 35.4397 59.3402 41.8725C63.1186 48.3053 67.4417 53.5445 70.903 56.9726C72.6267 58.7005 74.1022 60.012 75.1433 60.8864C75.6604 61.3374 76.0741 61.6566 76.3499 61.8926C76.6188 62.1285 76.7568 62.2534 76.7499 62.2604Z" fill="#263238"/>
<path d="M78.5149 45.5438C78.4942 45.5438 78.439 45.183 78.3701 44.5237C78.2942 43.802 78.1908 42.8652 78.0736 41.7272C77.8185 39.3678 77.4186 36.1201 76.8532 32.5464C76.2809 28.9726 75.6466 25.7597 75.1571 23.4419C74.9158 22.3316 74.7227 21.4087 74.571 20.6939C74.4331 20.0486 74.3642 19.6808 74.3917 19.6808C74.4124 19.6738 74.5227 20.0277 74.702 20.6662C74.8813 21.3046 75.1226 22.2345 75.3984 23.3933C75.95 25.7041 76.6257 28.9171 77.198 32.4978C77.7702 36.0785 78.1288 39.34 78.3218 41.7063C78.4184 42.893 78.4804 43.8506 78.508 44.5098C78.5287 45.176 78.5356 45.5438 78.5149 45.5438Z" fill="#263238"/>
<path d="M82.2866 17.2727C82.3004 17.2657 82.3625 17.4184 82.4797 17.7168C82.6038 18.043 82.7624 18.4732 82.9623 19.0145C83.176 19.5766 83.4174 20.2705 83.6518 21.0893C83.8931 21.9082 84.2034 22.8311 84.4378 23.879C84.5619 24.3994 84.6998 24.9476 84.8377 25.5167C84.9756 26.0857 85.0722 26.6894 85.1894 27.307C85.4514 28.5422 85.6168 29.8885 85.8099 31.2902C86.1271 34.1145 86.2994 37.2442 86.196 40.5265C86.065 43.8088 85.672 46.9177 85.1549 49.7142C84.8584 51.1021 84.6033 52.4345 84.2517 53.6489C84.0862 54.2595 83.9483 54.8563 83.769 55.4115C83.5898 55.9666 83.4174 56.5079 83.2519 57.0145C82.9416 58.0415 82.5693 58.9436 82.2728 59.7416C81.9832 60.5466 81.6868 61.2197 81.4385 61.761C81.2041 62.2814 81.0111 62.6978 80.8663 63.017C80.7284 63.3015 80.6594 63.4473 80.6456 63.4473C80.6318 63.4403 80.687 63.2877 80.8042 62.9893C80.9352 62.6631 81.1076 62.2398 81.3144 61.7124C81.5489 61.1642 81.8247 60.4842 82.0936 59.6792C82.3694 58.8742 82.7279 57.979 83.0244 56.9451C83.1829 56.4316 83.3484 55.8972 83.5139 55.3421C83.6794 54.78 83.8104 54.1901 83.9759 53.5795C84.3137 52.3651 84.5619 51.0466 84.8446 49.6587C85.3411 46.876 85.7203 43.7811 85.8513 40.5196C85.9547 37.2581 85.7892 34.1492 85.4927 31.3319C85.3066 29.9301 85.1549 28.5908 84.9067 27.3625C84.7895 26.7449 84.6998 26.1412 84.5757 25.5722C84.4447 25.0032 84.3206 24.4549 84.2034 23.9345C83.9897 22.8866 83.6932 21.9637 83.4725 21.1449C83.2588 20.3191 83.0313 19.6251 82.8382 19.0561C82.6658 18.5148 82.521 18.0777 82.4176 17.7446C82.3211 17.4392 82.2728 17.2727 82.2866 17.2727Z" fill="#263238"/>
<path d="M106.418 8.10156C106.425 8.10156 106.418 8.15709 106.405 8.26118C106.384 8.38608 106.363 8.53181 106.336 8.71223C106.267 9.10777 106.177 9.69762 106.019 10.4471C105.708 11.946 105.191 14.1041 104.384 16.7203C103.585 19.3364 102.481 22.4105 101.178 25.7761C99.882 29.1487 98.3652 32.8265 96.9379 36.7404C95.4831 40.6472 94.3661 44.4569 93.3181 47.9197C92.277 51.3824 91.291 54.4913 90.3326 57.0519C89.388 59.6194 88.4779 61.6457 87.7884 63.0128C87.4574 63.6998 87.1609 64.2202 86.9679 64.5742C86.8782 64.7338 86.8024 64.8656 86.7404 64.9697C86.6852 65.0599 86.6576 65.1016 86.6507 65.1016C86.6438 65.1016 86.6645 65.046 86.7059 64.9558C86.7611 64.8448 86.8231 64.706 86.8989 64.5395C87.0713 64.1786 87.3471 63.6512 87.6574 62.9573C88.3055 61.5764 89.1811 59.5431 90.0913 56.9756C91.0152 54.408 91.9736 51.2991 93.0009 47.8295C94.0352 44.3667 95.1452 40.5431 96.607 36.6224C98.0411 32.7016 99.558 29.0307 100.875 25.6651C102.192 22.3065 103.316 19.2531 104.143 16.6509C104.977 14.0486 105.529 11.9113 105.881 10.4193C106.06 9.67682 106.17 9.0939 106.26 8.69836C106.301 8.51794 106.336 8.3722 106.363 8.25423C106.398 8.15014 106.412 8.10156 106.418 8.10156Z" fill="#263238"/>
<path d="M56.7407 0.401778C55.7272 -0.61137 54.0379 0.450366 54.4585 1.82436C54.886 3.21917 55.5272 5.0234 56.4856 7.06358C58.6989 11.8032 65.2077 28.7977 68.2483 38.1311C71.2959 47.4646 75.5845 64.8824 75.5845 64.8824L82.0864 63.8207C82.0864 63.8207 76.1361 35.2097 70.3237 24.8978C65.649 16.6122 60.9811 4.64173 56.7407 0.401778Z" fill="#6AB872"/>
<path d="M70.0268 43.9679C70.0475 43.961 70.1647 44.2385 70.3646 44.7521C70.5577 45.2656 70.8197 46.015 71.1162 46.9518C71.716 48.8185 72.4469 51.4277 73.1846 54.3215C73.9224 57.2221 74.536 59.8591 74.9635 61.7674C75.1566 62.6695 75.3221 63.4328 75.4531 64.0366C75.5634 64.5709 75.6116 64.8762 75.5909 64.8762C75.5703 64.8832 75.4737 64.5917 75.329 64.0643C75.1704 63.4675 74.9704 62.7181 74.736 61.8229C74.2395 59.8521 73.5845 57.2637 72.8606 54.4047C72.1228 51.511 71.4264 48.9018 70.8886 47.0212C70.6335 46.133 70.4129 45.3905 70.2474 44.7937C70.0819 44.2732 70.0061 43.9818 70.0268 43.9679Z" fill="#263238"/>
<path d="M78.8529 64.3492C78.846 64.3492 78.8322 64.2937 78.8184 64.1757C78.7977 64.037 78.777 63.8704 78.7425 63.6622C78.6736 63.2112 78.6115 62.538 78.4737 61.6776C78.2323 59.9566 77.8117 57.4792 77.1085 54.4606C76.4121 51.4351 75.3985 47.8821 74.0678 44.003C72.7371 40.1239 71.0616 35.9325 69.1655 31.6023C65.3389 22.942 61.5191 15.2601 59.0093 9.57676C57.7407 6.7455 56.7547 4.42776 56.1066 2.81782C55.7756 2.01286 55.5412 1.38138 55.3757 0.958077C55.2999 0.756835 55.2447 0.597221 55.1964 0.472312C55.1551 0.361282 55.1413 0.305767 55.1482 0.298828C55.1551 0.298828 55.1826 0.347411 55.2309 0.458441C55.2861 0.58335 55.355 0.74295 55.4447 0.930313C55.6377 1.37443 55.8997 1.98509 56.2376 2.76924C56.9202 4.3653 57.9406 6.66224 59.2369 9.47962C61.8018 15.1283 65.656 22.7893 69.4896 31.4705C71.3857 35.8145 73.0543 40.0128 74.3781 43.9128C75.7019 47.8058 76.6948 51.3795 77.3567 54.419C78.0255 57.4584 78.4185 59.9497 78.6184 61.6776C78.7357 62.538 78.777 63.2181 78.8184 63.6692C78.8322 63.8773 78.846 64.0508 78.8598 64.1896C78.8529 64.2868 78.8529 64.3492 78.8529 64.3492Z" fill="#263238"/>
<path d="M82.0856 63.8194C82.0649 63.8194 81.9822 63.4308 81.8649 62.716C81.7339 61.9458 81.5685 60.9326 81.3616 59.7043C80.9135 57.1715 80.2309 53.674 79.2449 49.8712C78.2727 46.0685 77.1764 42.6821 76.3283 40.2463C75.9146 39.0736 75.5699 38.109 75.3079 37.3734C75.0666 36.6934 74.9425 36.3187 74.9632 36.3048C74.9838 36.2978 75.1493 36.6587 75.432 37.3249C75.7147 37.9911 76.1008 38.9556 76.5559 40.1631C77.4591 42.578 78.5968 45.9644 79.5758 49.781C80.5618 53.5977 81.2099 57.109 81.5961 59.6558C81.7822 60.9326 81.9201 61.9666 81.996 62.6883C82.0787 63.4169 82.1063 63.8124 82.0856 63.8194Z" fill="#263238"/>
<path d="M95.4299 62.877H70.0498V94H95.4299V62.877Z" fill="#DE314F"/>
<g opacity="0.3">
<path d="M95.4299 62.877H70.0498V94H95.4299V62.877Z" fill="black"/>
</g>
<path d="M87.3342 62.877H64.8154V94H87.3342V62.877Z" fill="#DE314F"/>
</svg>
