<svg width="14" height="14" viewBox="0 0 14 14" fill="none" xmlns="http://www.w3.org/2000/svg">
<path d="M14 14H10.8889V8.75C10.8889 7.92556 9.96333 7.24111 9.13889 7.24111C8.31444 7.24111 7.77778 7.92556 7.77778 8.75V14H4.66667V4.66667H7.77778V6.22222C8.29111 5.39 9.61333 4.85333 10.5 4.85333C12.4444 4.85333 14 6.44 14 8.36111V14ZM3.11111 14H0V4.66667H3.11111V14ZM1.55556 0C1.96811 0 2.36378 0.163888 2.6555 0.455612C2.94722 0.747335 3.11111 1.143 3.11111 1.55556C3.11111 1.96811 2.94722 2.36378 2.6555 2.6555C2.36378 2.94722 1.96811 3.11111 1.55556 3.11111C1.143 3.11111 0.747335 2.94722 0.455612 2.6555C0.163888 2.36378 0 1.96811 0 1.55556C0 1.143 0.163888 0.747335 0.455612 0.455612C0.747335 0.163888 1.143 0 1.55556 0Z" fill="#DE314F"/>
</svg>
