<svg width="128" height="22" viewBox="0 0 128 22" fill="none" xmlns="http://www.w3.org/2000/svg">
<path d="M2 0.446476H10.6102C13.5835 0.446476 16.0612 1.46277 18.0434 3.49536C20.0463 5.50783 21.0477 8.01335 21.0477 11.0119C21.0477 14.0105 20.0463 16.516 18.0434 18.5285C16.0612 20.5611 13.5835 21.5774 10.6102 21.5774H2V0.446476ZM6.27412 17.5927H10.6102C12.4892 17.5927 14.0171 16.989 15.194 15.7815C16.371 14.5338 16.9594 12.9439 16.9594 11.0119C16.9594 9.05984 16.371 7.48005 15.194 6.27257C14.0171 5.04496 12.4892 4.43116 10.6102 4.43116L6 4.5L6.27412 17.5927Z" fill="white"/>
<path d="M40.4947 15.6305H28.8183C29.3345 17.5223 30.7902 18.4681 33.1853 18.4681C34.7133 18.4681 35.8696 17.965 36.6542 16.9588L39.8753 18.77C38.3473 20.9233 36.0967 22 33.1234 22C30.563 22 28.5086 21.2453 26.96 19.736C25.4114 18.2266 24.6371 16.3249 24.6371 14.0306C24.6371 11.7767 25.401 9.88495 26.929 8.35547C28.4363 6.826 30.3978 6.06126 32.8137 6.06126C35.1056 6.06126 36.9742 6.826 38.4196 8.35547C39.9062 9.88495 40.6495 11.7767 40.6495 14.0306C40.6495 14.4533 40.5979 14.9866 40.4947 15.6305ZM28.7563 12.6118H36.6542C36.427 11.6257 35.9625 10.8711 35.2604 10.3478C34.5791 9.82458 33.7635 9.56296 32.8137 9.56296C31.74 9.56296 30.8521 9.83464 30.1501 10.378C29.448 10.9012 28.9835 11.6459 28.7563 12.6118Z" fill="white"/>
<path d="M52.8651 0.0238573V3.76705C50.6764 3.62618 49.582 4.48148 49.582 6.33295V6.48388H52.8651V10.2271H49.582V21.5774H45.5867V10.2271H43.3567V6.48388H45.5867V6.33295C45.5867 4.1796 46.1958 2.55957 47.414 1.47284C48.6529 0.365978 50.4699 -0.117015 52.8651 0.0238573Z" fill="white"/>
<path d="M60.2402 21.5774H56.2449V6.48388H60.2402V21.5774Z" fill="white"/>
<path d="M74.0559 6.06126C75.7697 6.06126 77.1634 6.61469 78.2371 7.72155C79.3521 8.82841 79.9096 10.3579 79.9096 12.31V21.5774H75.9142V12.793C75.9142 11.8069 75.6355 11.0421 75.078 10.4988C74.5411 9.95539 73.7978 9.6837 72.848 9.6837C71.7949 9.6837 70.9587 10.0057 70.3393 10.6497C69.7405 11.2736 69.4411 12.1993 69.4411 13.4269V21.5774H65.4457V6.48388H69.4411V8.17435C70.3909 6.76563 71.9292 6.06126 74.0559 6.06126Z" fill="white"/>
<path d="M101.997 6.06126C103.773 6.06126 105.187 6.62475 106.24 7.75173C107.314 8.87872 107.851 10.3881 107.851 12.2798V21.5774H103.855V12.5515C103.855 11.6459 103.628 10.9415 103.174 10.4384C102.72 9.93526 102.08 9.6837 101.254 9.6837C100.345 9.6837 99.633 9.97551 99.1168 10.5591C98.6212 11.1427 98.3734 11.988 98.3734 13.0948V21.5774H94.3781V12.5515C94.3781 11.6459 94.1509 10.9415 93.6967 10.4384C93.2424 9.93526 92.6023 9.6837 91.7764 9.6837C90.8886 9.6837 90.1762 9.98557 89.6394 10.5893C89.1232 11.1729 88.8651 12.0081 88.8651 13.0948V21.5774H84.8697V6.48388H88.8651V8.08379C89.7942 6.73544 91.2293 6.06126 93.1702 6.06126C95.0904 6.06126 96.4945 6.78575 97.3823 8.23473C98.3941 6.78575 99.9324 6.06126 101.997 6.06126Z" fill="white"/>
<path d="M127.845 15.6305H116.169C116.685 17.5223 118.141 18.4681 120.536 18.4681C122.064 18.4681 123.22 17.965 124.005 16.9588L127.226 18.77C125.698 20.9233 123.447 22 120.474 22C117.913 22 115.859 21.2453 114.31 19.736C112.762 18.2266 111.988 16.3249 111.988 14.0306C111.988 11.7767 112.751 9.88495 114.279 8.35547C115.787 6.826 117.748 6.06126 120.164 6.06126C122.456 6.06126 124.325 6.826 125.77 8.35547C127.257 9.88495 128 11.7767 128 14.0306C128 14.4533 127.948 14.9866 127.845 15.6305ZM116.107 12.6118H124.005C123.777 11.6257 123.313 10.8711 122.611 10.3478C121.93 9.82458 121.114 9.56296 120.164 9.56296C119.09 9.56296 118.203 9.83464 117.501 10.378C116.799 10.9012 116.334 11.6459 116.107 12.6118Z" fill="white"/>
<rect x="56" width="4" height="4" fill="white"/>
<rect x="6" y="8" width="4" height="4" fill="white"/>
</svg>
