<svg width="360" height="274" viewBox="0 0 360 274" fill="none" xmlns="http://www.w3.org/2000/svg">
<path d="M360 0H64V179H360V0Z" fill="white"/>
<path d="M339 33H274V75H339V33Z" fill="#FAFAFA"/>
<path d="M212.098 62C212.098 62 214.127 76.8622 212.098 85L192 84.2069C192 84.2069 196.082 69.2885 193.546 62.7931L212.098 62Z" fill="#EBEBEB"/>
<path d="M192.273 60C192.273 60 191.057 77.0528 190 80.4286L207.427 82L210.458 79.6429C210.458 79.6429 212.237 64.9713 211.973 60.7857L192.273 60Z" fill="#30394F"/>
<path d="M207.75 80L207 82L210 80H207.75Z" fill="#1F283D"/>
<path d="M209 67.9299C208.992 67.9645 207.931 68.0687 206.667 67.9299C205.308 67.7854 203.881 67.1875 202 66.987C200.114 66.8094 198.695 66.1726 197.333 66.0442C196.065 65.9291 194.996 66.0793 195 66.0442C195.004 66.0115 196.057 65.9736 197.333 66.0442C198.61 66.1148 200.063 66.7933 202 66.987C203.935 67.1813 205.41 66.8037 206.667 66.987C207.924 67.1704 209.008 67.8977 209 67.9299Z" fill="white"/>
<path d="M208 71.9525C207.996 71.9887 206.889 72.0276 205.706 71.9525C204.522 71.8779 202.914 71.203 201.118 71.0098C199.321 70.8161 197.698 71.188 196.53 71.0098C195.361 70.8317 194.993 70.1034 195 70.0671C195.007 70.0293 196.119 69.9371 197.294 70.0671C198.564 70.2075 200.137 70.8172 201.882 71.0098C203.628 71.1921 205.199 71.8199 206.471 71.9525C207.647 72.0763 208.004 71.9147 208 71.9525Z" fill="white"/>
<path d="M206.848 75.9302C206.836 76.0374 204.195 75.5088 200.922 74.9889C197.65 74.4691 194.984 74.1549 194.997 74.0476C195.009 73.9404 197.65 74.4691 200.922 74.9889C204.195 75.5088 206.86 75.823 206.848 75.9302Z" fill="white"/>
<path d="M359.966 178.962C359.966 177.968 360.041 109.36 359.966 0.00427241C280.114 0.0139698 176.404 -0.00906148 64.0013 0.00427241C63.9971 63.2385 64.0049 124.052 64.0013 178.962C237.445 179.048 358.645 178.962 359.966 178.962C358.646 178.963 237.446 178.877 64.0013 178.962C63.9977 124.052 64.0055 63.2385 64.0013 0.00427241C176.404 0.0188185 280.114 -0.00542497 359.966 0.00427241C359.891 109.36 359.967 177.969 359.966 178.962Z" fill="#1F283D"/>
<path d="M103.902 30C103.902 30 101.873 44.216 103.902 52L124 51.2414C124 51.2414 119.919 36.971 122.454 30.7586L103.902 30Z" fill="#E0E0E0"/>
<path d="M103 31C103 31 102.965 47.0907 103.778 52L124 51.2222C124 51.2222 122.545 35.2273 123.222 31H103Z" fill="#DE314F"/>
<path d="M118.97 37.1354C118.976 37.2355 115.686 37.3656 112.105 37.6167C108.524 37.8677 106.007 38.1446 106.002 38.0445C105.997 37.9444 108.524 37.8677 112.105 37.6167C115.686 37.3656 118.965 37.0353 118.97 37.1354Z" fill="white"/>
<path d="M118.97 41.1354C118.976 41.2355 116.449 41.3121 112.868 41.5632C109.287 41.8142 106.007 42.1446 106.002 42.0445C105.997 41.9444 109.287 41.8142 112.868 41.5632C116.449 41.3121 118.965 41.0353 118.97 41.1354Z" fill="white"/>
<path d="M115.957 44.226C115.963 44.3923 114.177 44.4158 111.98 44.6499C109.783 44.8841 108.008 45.2402 108.003 45.0739C107.997 44.9076 109.783 44.8841 111.98 44.6499C114.177 44.4158 115.952 44.0597 115.957 44.226Z" fill="white"/>
<path d="M103 54C103 54 102.965 70.0913 103.778 75L124 74.2222C124 74.2222 122.545 58.2273 123.222 54H103Z" fill="#DE314F"/>
<path d="M118.97 60.1354C118.976 60.2355 115.686 60.3656 112.105 60.6167C108.524 60.8677 106.007 61.1446 106.002 61.0445C105.997 60.9444 108.524 60.8677 112.105 60.6167C115.686 60.3656 118.965 60.0353 118.97 60.1354Z" fill="white"/>
<path d="M118.97 64.1354C118.976 64.2355 116.449 64.3122 112.868 64.5632C109.287 64.8143 106.007 65.1446 106.002 65.0445C105.997 64.9444 109.287 64.8143 112.868 64.5632C116.449 64.3122 118.965 64.0353 118.97 64.1354Z" fill="white"/>
<path d="M115.957 67.226C115.963 67.3924 114.177 67.4159 111.98 67.65C109.783 67.8841 108.008 68.2403 108.003 68.0739C107.997 67.9076 109.783 67.8841 111.98 67.65C114.177 67.4159 115.952 67.0597 115.957 67.226Z" fill="white"/>
<path d="M103 81C103 81 102.965 97.0907 103.778 102L124 101.222C124 101.222 122.545 85.2273 123.222 81H103Z" fill="#1F283D"/>
<path d="M118.97 87.1354C118.976 87.2355 115.686 87.3656 112.105 87.6167C108.524 87.8677 106.007 88.1446 106.002 88.0445C105.997 87.9444 108.524 87.8677 112.105 87.6167C115.686 87.3656 118.965 87.0353 118.97 87.1354Z" fill="white"/>
<path d="M118.97 91.1356C118.976 91.2358 116.449 91.3123 112.868 91.5633C109.287 91.8143 106.007 92.1448 106.002 92.0445C105.997 91.9443 109.287 91.8143 112.868 91.5633C116.449 91.3123 118.965 91.0353 118.97 91.1356Z" fill="white"/>
<path d="M115.957 94.2261C115.963 94.3925 114.177 94.4159 111.98 94.65C109.783 94.8842 108.008 95.2403 108.003 95.0739C107.997 94.9076 109.783 94.8842 111.98 94.65C114.177 94.4159 115.952 94.0597 115.957 94.2261Z" fill="white"/>
<path d="M100 112C100 112 99.9654 128.091 100.778 133L121 132.222C121 132.222 119.545 116.227 120.222 112H100Z" fill="#30394F"/>
<path d="M115.97 118.135C115.976 118.235 113.449 118.312 109.868 118.563C106.287 118.814 103.007 119.145 103.002 119.044C102.997 118.944 106.287 118.814 109.868 118.563C113.449 118.312 115.965 118.035 115.97 118.135Z" fill="white"/>
<path d="M115.97 122.135C115.976 122.235 112.686 122.366 109.105 122.617C105.524 122.868 103.007 123.145 103.002 123.044C102.997 122.944 105.524 122.868 109.105 122.617C112.686 122.366 115.965 122.035 115.97 122.135Z" fill="white"/>
<path d="M112.957 125.226C112.963 125.392 111.177 125.416 108.98 125.65C106.783 125.884 105.008 126.24 105.003 126.074C104.997 125.908 106.783 125.884 108.98 125.65C111.177 125.416 112.952 125.06 112.957 125.226Z" fill="white"/>
<path d="M126 112C126 112 125.965 128.091 126.778 133L147 132.222C147 132.222 145.545 116.227 146.222 112H126Z" fill="#1F283D"/>
<path d="M141.97 118.135C141.976 118.235 139.449 118.312 135.868 118.563C132.287 118.814 129.007 119.145 129.002 119.044C128.997 118.944 132.287 118.814 135.868 118.563C139.449 118.312 141.965 118.035 141.97 118.135Z" fill="white"/>
<path d="M141.97 122.136C141.976 122.236 139.449 122.312 135.868 122.563C132.287 122.814 129.007 123.145 129.002 123.045C128.997 122.944 132.287 122.814 135.868 122.563C139.449 122.312 141.965 122.035 141.97 122.136Z" fill="white"/>
<path d="M138.957 125.226C138.963 125.392 137.177 125.416 134.98 125.65C132.783 125.884 131.008 126.24 131.003 126.074C130.997 125.908 132.783 125.884 134.98 125.65C137.177 125.416 138.952 125.06 138.957 125.226Z" fill="white"/>
<path d="M148 113C148 113 147.965 129.091 148.778 134L169 133.222C169 133.222 167.545 117.227 168.222 113H148Z" fill="#DE314F"/>
<path d="M163.97 119.135C163.976 119.235 160.686 119.366 157.105 119.617C153.524 119.868 151.007 120.145 151.002 120.044C150.997 119.944 153.524 119.868 157.105 119.617C160.686 119.366 163.965 119.035 163.97 119.135Z" fill="white"/>
<path d="M163.97 123.136C163.976 123.236 160.686 123.366 157.105 123.617C153.524 123.868 151.007 124.145 151.002 124.045C150.997 123.944 153.524 123.868 157.105 123.617C160.686 123.366 163.965 123.035 163.97 123.136Z" fill="white"/>
<path d="M160.957 126.226C160.963 126.392 159.177 126.416 156.98 126.65C154.783 126.884 153.008 127.24 153.003 127.074C152.997 126.908 154.783 126.884 156.98 126.65C159.177 126.416 160.952 126.06 160.957 126.226Z" fill="white"/>
<path d="M123 140C123 140 122.965 156.091 123.778 161L144 160.222C144 160.222 142.545 144.227 143.222 140H123Z" fill="#30394F"/>
<path d="M138.97 146.136C138.976 146.236 135.686 146.366 132.105 146.617C128.524 146.868 126.007 147.145 126.002 147.045C125.997 146.944 128.524 146.868 132.105 146.617C135.686 146.366 138.965 146.035 138.97 146.136Z" fill="white"/>
<path d="M138.97 150.135C138.976 150.235 136.449 150.312 132.868 150.563C129.287 150.814 126.007 151.145 126.002 151.044C125.997 150.944 129.287 150.814 132.868 150.563C136.449 150.312 138.965 150.035 138.97 150.135Z" fill="white"/>
<path d="M135.957 153.226C135.963 153.392 134.177 153.416 131.98 153.65C129.783 153.884 128.008 154.24 128.003 154.074C127.997 153.908 129.783 153.884 131.98 153.65C134.177 153.416 135.952 153.06 135.957 153.226Z" fill="white"/>
<path d="M186 104C186 104 185.965 120.091 186.778 125L207 124.222C207 124.222 205.545 108.227 206.222 104H186Z" fill="#1F283D"/>
<path d="M201.97 110.136C201.976 110.236 199.449 110.312 195.868 110.563C192.287 110.814 189.007 111.145 189.002 111.045C188.997 110.944 192.287 110.814 195.868 110.563C199.449 110.312 201.965 110.035 201.97 110.136Z" fill="white"/>
<path d="M201.97 114.136C201.976 114.236 199.449 114.312 195.868 114.563C192.287 114.814 189.007 115.145 189.002 115.045C188.997 114.944 192.287 114.814 195.868 114.563C199.449 114.312 201.965 114.035 201.97 114.136Z" fill="white"/>
<path d="M198.957 117.226C198.963 117.392 197.177 117.416 194.98 117.65C192.783 117.884 191.008 118.24 191.003 118.074C190.997 117.908 192.783 117.884 194.98 117.65C197.177 117.416 198.952 117.06 198.957 117.226Z" fill="white"/>
<path d="M228 140C228 140 227.965 156.091 228.778 161L249 160.222C249 160.222 247.545 144.227 248.222 140H228Z" fill="#30394F"/>
<path d="M243.97 146.135C243.976 146.235 241.449 146.312 237.868 146.563C234.287 146.814 231.007 147.145 231.002 147.044C230.997 146.944 234.287 146.814 237.868 146.563C241.449 146.312 243.965 146.035 243.97 146.135Z" fill="white"/>
<path d="M243.97 150.135C243.976 150.235 241.449 150.312 237.868 150.563C234.287 150.814 231.007 151.145 231.002 151.044C230.997 150.944 234.287 150.814 237.868 150.563C241.449 150.312 243.965 150.035 243.97 150.135Z" fill="white"/>
<path d="M240.957 153.226C240.963 153.393 239.177 153.416 236.98 153.65C234.783 153.884 233.008 154.24 233.003 154.074C232.997 153.908 234.783 153.884 236.98 153.65C239.177 153.416 240.952 153.06 240.957 153.226Z" fill="white"/>
<path d="M287.908 149.409C291.488 149.141 294.017 149.124 294.008 148.953C294 148.782 291.443 148.218 287.863 148.486C284.283 148.754 281.036 149.751 281.045 149.922C281.053 150.093 284.328 149.676 287.908 149.409Z" fill="white"/>
<path d="M287.908 153.41C291.488 153.142 294.017 153.125 294.008 152.954C294 152.783 291.443 152.219 287.863 152.487C284.283 152.755 281.036 153.752 281.045 153.923C281.053 154.094 284.328 153.677 287.908 153.41Z" fill="white"/>
<path d="M290.957 156.226C290.963 156.392 289.177 156.416 286.98 156.65C284.783 156.884 283.008 157.24 283.003 157.074C282.997 156.908 284.783 156.884 286.98 156.65C289.177 156.416 290.952 156.06 290.957 156.226Z" fill="white"/>
<path d="M228 112C228 112 227.965 128.091 228.778 133L249 132.222C249 132.222 247.545 116.227 248.222 112H228Z" fill="#30394F"/>
<path d="M243.97 118.135C243.976 118.235 241.449 118.312 237.868 118.563C234.287 118.814 231.007 119.145 231.002 119.044C230.997 118.944 234.287 118.814 237.868 118.563C241.449 118.312 243.965 118.035 243.97 118.135Z" fill="white"/>
<path d="M243.97 122.135C243.976 122.235 241.449 122.312 237.868 122.563C234.287 122.814 231.007 123.145 231.002 123.044C230.997 122.944 234.287 122.814 237.868 122.563C241.449 122.312 243.965 122.035 243.97 122.135Z" fill="white"/>
<path d="M240.957 125.225C240.963 125.392 239.177 125.415 236.98 125.649C234.783 125.883 233.008 126.239 233.003 126.073C232.997 125.907 234.783 125.883 236.98 125.649C239.177 125.415 240.952 125.059 240.957 125.225Z" fill="white"/>
<path d="M133 81C133 81 132.965 97.0907 133.778 102L154 101.222C154 101.222 152.545 85.2273 153.222 81H133Z" fill="#30394F"/>
<path d="M148.97 87.1354C148.976 87.2355 145.686 87.3656 142.105 87.6167C138.524 87.8677 136.007 88.1446 136.002 88.0445C135.997 87.9444 138.524 87.8677 142.105 87.6167C145.686 87.3656 148.965 87.0353 148.97 87.1354Z" fill="white"/>
<path d="M148.97 91.1355C148.976 91.2358 146.449 91.3123 142.868 91.5633C139.287 91.8143 136.007 92.1448 136.002 92.0445C135.997 91.9443 139.287 91.8143 142.868 91.5633C146.449 91.3123 148.965 91.0353 148.97 91.1355Z" fill="white"/>
<path d="M145.957 94.2253C145.963 94.3917 144.177 94.415 141.98 94.6491C139.783 94.8832 138.008 95.2395 138.003 95.073C137.997 94.9065 139.783 94.8832 141.98 94.6491C144.177 94.415 145.952 94.0588 145.957 94.2253Z" fill="white"/>
<path d="M125 31C125 31 124.965 47.0907 125.778 52L146 51.2222C146 51.2222 144.545 35.2273 145.222 31H125Z" fill="#DE314F"/>
<path d="M140.97 37.1353C140.976 37.2354 138.449 37.3121 134.868 37.5632C131.287 37.8142 128.007 38.1445 128.002 38.0445C127.997 37.9444 131.287 37.8142 134.868 37.5632C138.449 37.3121 140.965 37.0353 140.97 37.1353Z" fill="white"/>
<path d="M140.97 41.1353C140.976 41.2353 137.686 41.3656 134.105 41.6166C130.524 41.8677 128.007 42.1445 128.002 42.0445C127.997 41.9444 130.524 41.8677 134.105 41.6166C137.686 41.3656 140.965 41.0353 140.97 41.1353Z" fill="white"/>
<path d="M137.957 44.226C137.963 44.3922 136.177 44.4158 133.98 44.6499C131.783 44.8841 130.008 45.2402 130.003 45.0739C129.997 44.9076 131.783 44.8841 133.98 44.6499C136.177 44.4158 137.952 44.0597 137.957 44.226Z" fill="white"/>
<path d="M126 54C126 54 125.965 70.0907 126.778 75L147 74.2222C147 74.2222 145.545 58.2273 146.222 54H126Z" fill="#DE314F"/>
<path d="M141.97 60.1368C141.976 60.2373 138.686 60.367 135.105 60.618C131.524 60.8689 129.007 61.1461 129.002 61.0456C128.997 60.9452 131.524 60.8689 135.105 60.618C138.686 60.367 141.965 60.0364 141.97 60.1368Z" fill="white"/>
<path d="M141.97 64.1353C141.976 64.2354 139.449 64.3121 135.868 64.5632C132.287 64.8142 129.007 65.1446 129.002 65.0445C128.997 64.9444 132.287 64.8142 135.868 64.5632C139.449 64.3121 141.965 64.0353 141.97 64.1353Z" fill="white"/>
<path d="M138.957 67.226C138.963 67.3924 137.177 67.4158 134.98 67.65C132.783 67.8841 131.008 68.2402 131.003 68.0739C130.997 67.9076 132.783 67.8841 134.98 67.65C137.177 67.4158 138.952 67.0597 138.957 67.226Z" fill="white"/>
<path d="M150 31C150 31 149.965 47.0907 150.778 52L171 51.2222C171 51.2222 169.545 35.2273 170.222 31H150Z" fill="#DE314F"/>
<path d="M165.97 37.1353C165.976 37.2353 162.686 37.3656 159.105 37.6166C155.524 37.8677 153.007 38.1445 153.002 38.0445C152.997 37.9444 155.524 37.8677 159.105 37.6166C162.686 37.3656 165.965 37.0353 165.97 37.1353Z" fill="white"/>
<path d="M165.97 41.1353C165.976 41.2353 162.686 41.3656 159.105 41.6166C155.524 41.8677 153.007 42.1445 153.002 42.0445C152.997 41.9444 155.524 41.8677 159.105 41.6166C162.686 41.3656 165.965 41.0353 165.97 41.1353Z" fill="white"/>
<path d="M162.957 44.226C162.963 44.3922 161.177 44.4158 158.98 44.6499C156.783 44.8841 155.008 45.2402 155.003 45.0739C154.997 44.9076 156.783 44.8841 158.98 44.6499C161.177 44.4158 162.952 44.0597 162.957 44.226Z" fill="white"/>
<path d="M174 31C174 31 173.965 47.0907 174.778 52L195 51.2222C195 51.2222 193.545 35.2273 194.222 31H174Z" fill="#DE314F"/>
<path d="M189.97 37.1354C189.976 37.2355 187.449 37.3122 183.868 37.5632C180.287 37.8142 177.007 38.1446 177.002 38.0445C176.997 37.9444 180.287 37.8142 183.868 37.5632C187.449 37.3122 189.965 37.0353 189.97 37.1354Z" fill="white"/>
<path d="M189.97 41.1353C189.976 41.2354 186.686 41.3656 183.105 41.6167C179.524 41.8677 177.007 42.1446 177.002 42.0445C176.997 41.9444 179.524 41.8677 183.105 41.6167C186.686 41.3656 189.965 41.0353 189.97 41.1353Z" fill="white"/>
<path d="M186.957 44.226C186.963 44.3923 185.177 44.4158 182.98 44.6499C180.783 44.8841 179.008 45.2402 179.003 45.0739C178.997 44.9076 180.783 44.8841 182.98 44.6499C185.177 44.4158 186.952 44.0597 186.957 44.226Z" fill="white"/>
<path d="M199 31C199 31 198.965 47.0907 199.778 52L220 51.2222C220 51.2222 218.545 35.2273 219.222 31H199Z" fill="#DE314F"/>
<path d="M214.97 37.1354C214.976 37.2355 212.449 37.3122 208.868 37.5632C205.287 37.8142 202.007 38.1446 202.002 38.0445C201.997 37.9444 205.287 37.8142 208.868 37.5632C212.449 37.3122 214.965 37.0353 214.97 37.1354Z" fill="white"/>
<path d="M214.97 41.1354C214.976 41.2355 212.449 41.3121 208.868 41.5632C205.287 41.8142 202.007 42.1446 202.002 42.0445C201.997 41.9444 205.287 41.8142 208.868 41.5632C212.449 41.3121 214.965 41.0353 214.97 41.1354Z" fill="white"/>
<path d="M211.957 44.226C211.963 44.3923 210.177 44.4158 207.98 44.6499C205.783 44.8841 204.008 45.2402 204.003 45.0739C203.997 44.9076 205.783 44.8841 207.98 44.6499C210.177 44.4158 211.952 44.0597 211.957 44.226Z" fill="white"/>
<path d="M164 131C164 131 163.965 147.091 164.778 152L185 151.222C185 151.222 183.545 135.227 184.222 131H164Z" fill="#DE314F"/>
<path d="M179.97 137.136C179.976 137.236 177.449 137.312 173.868 137.563C170.287 137.814 167.007 138.145 167.002 138.045C166.997 137.944 170.287 137.814 173.868 137.563C177.449 137.312 179.965 137.035 179.97 137.136Z" fill="white"/>
<path d="M179.97 141.136C179.976 141.236 177.449 141.312 173.868 141.563C170.287 141.814 167.007 142.145 167.002 142.045C166.997 141.944 170.287 141.814 173.868 141.563C177.449 141.312 179.965 141.035 179.97 141.136Z" fill="white"/>
<path d="M176.957 144.226C176.963 144.392 175.177 144.416 172.98 144.65C170.783 144.884 169.008 145.24 169.003 145.074C168.997 144.908 170.783 144.884 172.98 144.65C175.177 144.416 176.952 144.06 176.957 144.226Z" fill="white"/>
<path d="M226 31C226 31 225.965 47.0907 226.778 52L247 51.2222C247 51.2222 245.545 35.2273 246.222 31H226Z" fill="#DE314F"/>
<path d="M241.97 37.1355C241.976 37.2358 239.449 37.3123 235.868 37.5633C232.287 37.8143 229.007 38.1448 229.002 38.0445C228.997 37.9443 232.287 37.8143 235.868 37.5633C239.449 37.3123 241.965 37.0353 241.97 37.1355Z" fill="white"/>
<path d="M241.97 41.1353C241.976 41.2354 238.686 41.3656 235.105 41.6166C231.524 41.8677 229.007 42.1445 229.002 42.0445C228.997 41.9444 231.524 41.8677 235.105 41.6166C238.686 41.3656 241.965 41.0353 241.97 41.1353Z" fill="white"/>
<path d="M238.957 44.2262C238.963 44.3926 237.177 44.4159 234.98 44.6501C232.783 44.8842 231.008 45.2404 231.003 45.074C230.997 44.9075 232.783 44.8842 234.98 44.6501C237.177 44.4159 238.952 44.0597 238.957 44.2262Z" fill="white"/>
<path d="M263.908 42.4088C267.488 42.1412 270.017 42.1236 270.008 41.9527C270 41.7818 267.443 41.2183 263.863 41.4859C260.283 41.7536 257.036 42.751 257.045 42.9219C257.053 43.0928 260.328 42.6764 263.908 42.4088Z" fill="white"/>
<path d="M263.908 46.4088C267.488 46.1412 270.017 46.1236 270.008 45.9527C270 45.7818 267.443 45.2183 263.863 45.4859C260.283 45.7536 257.036 46.751 257.045 46.9219C257.053 47.0928 260.328 46.6764 263.908 46.4088Z" fill="white"/>
<path d="M266.957 49.2259C266.963 49.3921 265.177 49.4157 262.98 49.6499C260.783 49.884 259.008 50.2401 259.003 50.0739C258.997 49.9077 260.783 49.884 262.98 49.6499C265.177 49.4157 266.952 49.0597 266.957 49.2259Z" fill="white"/>
<path d="M231 44C231 44 230.965 60.0907 231.778 65L252 64.2222C252 64.2222 250.545 48.2273 251.222 44H231Z" fill="#30394F"/>
<path d="M246.97 50.1355C246.976 50.2357 244.449 50.3123 240.868 50.5633C237.287 50.8143 234.007 51.1448 234.002 51.0445C233.997 50.9443 237.287 50.8143 240.868 50.5633C244.449 50.3123 246.965 50.0353 246.97 50.1355Z" fill="white"/>
<path d="M246.97 54.1353C246.976 54.2354 244.449 54.3121 240.868 54.5631C237.287 54.8142 234.007 55.1445 234.002 55.0445C233.997 54.9444 237.287 54.8142 240.868 54.5631C244.449 54.3121 246.965 54.0353 246.97 54.1353Z" fill="white"/>
<path d="M243.957 57.226C243.963 57.3924 242.177 57.4158 239.98 57.65C237.783 57.8841 236.008 58.2402 236.003 58.0739C235.997 57.9076 237.783 57.8841 239.98 57.65C242.177 57.4158 243.952 57.0597 243.957 57.226Z" fill="white"/>
<path d="M229 79C229 79 228.965 95.0913 229.778 100L250 99.2222C250 99.2222 248.545 83.2273 249.222 79H229Z" fill="#DE314F"/>
<path d="M245.979 86.2544C245.984 86.3434 243.455 86.4071 239.872 86.6239C236.289 86.8407 233.008 87.1285 233.002 87.0395C232.997 86.9506 236.289 86.8407 239.872 86.6239C243.455 86.4071 245.973 86.1655 245.979 86.2544Z" fill="white"/>
<path d="M245.979 89.2544C245.984 89.3434 243.455 89.4071 239.872 89.6239C236.289 89.8407 233.008 90.1285 233.002 90.0395C232.997 89.9506 236.289 89.8407 239.872 89.6239C243.455 89.4071 245.973 89.1655 245.979 89.2544Z" fill="white"/>
<path d="M242.988 92.5564C242.993 92.6454 241.2 92.6646 238.995 92.798C236.79 92.9314 235.008 93.1286 235.002 93.0396C234.997 92.9506 236.79 92.9314 238.995 92.798C241.2 92.6646 242.982 92.4674 242.988 92.5564Z" fill="white"/>
<path d="M354.986 84.9919C354.986 84.9919 354.992 84.0853 354.986 83.456C354.981 82.8163 354.994 82.3594 354.986 81.1521C354.975 78.7133 355.006 74.9616 354.986 70.4008C354.963 61.2783 355.026 47.9885 354.986 32.003V32.771C332.861 32.784 304.374 31.9856 274.002 32.003C273.995 50.6858 274.778 68.9412 274.773 84.9919L274.002 84.224C297.668 84.2657 318.422 84.9675 332.619 84.9919C339.721 85.0154 344.951 84.9789 348.815 84.9919C350.737 85.0032 352.426 84.9858 353.443 84.9919C353.938 84.9971 353.944 84.9893 354.214 84.9919C354.471 84.9971 354.986 84.9919 354.986 84.9919C354.986 84.9919 354.464 84.9876 354.214 84.9919C353.95 84.9945 353.927 84.9867 353.443 84.9919C352.436 84.998 350.719 84.9806 348.815 84.9919C344.963 85.005 339.699 84.9684 332.619 84.9919C318.388 85.0172 297.723 84.951 274.002 84.9919C273.996 68.9412 274.009 50.6858 274.002 32.003C304.374 32.0204 332.861 31.9909 354.986 32.003C354.945 48.0363 355.008 61.2513 354.986 70.4008C354.965 74.9442 354.996 78.7229 354.986 81.1521C354.977 82.3454 354.99 83.5912 354.986 84.224C354.979 84.8411 354.986 84.9919 354.986 84.9919Z" fill="#263238"/>
<path d="M355 37.9238C355 38.0952 337.088 37.9238 315 37.9238C292.905 37.9238 275 38.094 275 37.9238C275 37.7524 292.905 37 315 37C337.088 37 355 37.7524 355 37.9238Z" fill="#263238"/>
<path d="M306 45H281V79H306V45Z" fill="#DE314F"/>
<path d="M330.383 47.9239C340.324 47.9239 348 48.0951 348 47.9239C348 47.7528 340.324 47 330.383 47C320.442 47 312 47.7528 312 47.9239C312 48.0951 320.442 47.9239 330.383 47.9239Z" fill="#E8505B"/>
<path d="M330.383 50.9239C340.324 50.9239 348 51.0951 348 50.9239C348 50.7528 340.324 50 330.383 50C320.442 50 312 50.7528 312 50.9239C312 51.0951 320.442 50.9239 330.383 50.9239Z" fill="#E8505B"/>
<path d="M330.383 55.9239C340.324 55.9239 348 56.0951 348 55.9239C348 55.7528 340.324 55 330.383 55C320.442 55 312 55.7528 312 55.9239C312 56.0951 320.442 55.9239 330.383 55.9239Z" fill="#E8505B"/>
<path d="M330.383 59.9239C340.324 59.9239 348 60.0951 348 59.9239C348 59.7528 340.324 59 330.383 59C320.442 59 312 59.7528 312 59.9239C312 60.0951 320.442 59.9239 330.383 59.9239Z" fill="#E8505B"/>
<path d="M347 63H332V79H347V63Z" fill="#DE314F"/>
<path d="M320.609 64C325.579 64 330 63.2472 330 63.0761C330 62.9049 325.579 63.0761 320.609 63.0761C315.638 63.0761 312 62.9049 312 63.0761C312 63.2472 315.638 64 320.609 64Z" fill="#E8505B"/>
<path d="M320.609 67.9239C325.579 67.9239 330 68.0951 330 67.9239C330 67.7528 325.579 67 320.609 67C315.638 67 312 67.7528 312 67.9239C312 68.0951 315.638 67.9239 320.609 67.9239Z" fill="#E8505B"/>
<path d="M320.609 73C325.579 73 330 72.2472 330 72.0761C330 71.9049 325.579 72.0761 320.609 72.0761C315.638 72.0761 312 71.9049 312 72.0761C312 72.2472 315.638 73 320.609 73Z" fill="#E8505B"/>
<path d="M321.391 78C326.362 78 330 77.2472 330 77.0761C330 76.9049 326.362 77.0761 321.391 77.0761C316.421 77.0761 312 76.9049 312 77.0761C312 77.2472 316.421 78 321.391 78Z" fill="#E8505B"/>
<path d="M294.381 58.9235C298.799 58.9233 302 59.0943 302 58.9232C302 58.7521 298.799 57.9994 294.381 57.9996C289.963 57.9998 286 58.7528 286 58.9239C286 59.0951 289.963 58.9238 294.381 58.9235Z" fill="white"/>
<path d="M294.381 62.9996C298.799 62.9994 302 62.2464 302 62.0753C302 61.9042 298.799 62.0755 294.381 62.0757C289.963 62.0759 286 61.9049 286 62.0761C286 62.2472 289.963 62.9998 294.381 62.9996Z" fill="white"/>
<path d="M293.5 66.9998C295.985 66.9997 298 66.2468 298 66.0756C298 65.9045 295.985 66.0757 293.5 66.0758C291.015 66.076 289 65.9049 289 66.0761C289 66.2472 291.015 66.9999 293.5 66.9998Z" fill="white"/>
<path d="M172.098 47C172.098 47 174.127 61.8622 172.098 70L152 69.2069C152 69.2069 156.082 54.2885 153.546 47.7931L172.098 47Z" fill="#EBEBEB"/>
<path d="M152.273 45C152.273 45 151.057 62.0524 150 65.4277L167.427 66.9991L170.458 64.642C170.458 64.642 172.237 49.9707 171.973 45.7857L152.273 45Z" fill="#30394F"/>
<path d="M167.75 65L167 67L170 65H167.75Z" fill="#1F283D"/>
<path d="M169 52.9299C168.992 52.9645 167.931 53.0687 166.667 52.9299C165.308 52.7854 163.881 52.1875 162 51.987C160.114 51.8094 158.695 51.1726 157.333 51.0442C156.065 50.9291 154.996 51.0793 155 51.0442C155.004 51.0115 156.057 50.9736 157.333 51.0442C158.61 51.1148 160.063 51.7933 162 51.987C163.935 52.1813 165.41 51.8037 166.667 51.987C167.924 52.1704 169.008 52.8977 169 52.9299Z" fill="white"/>
<path d="M168 56.9525C167.996 56.9887 166.889 57.0276 165.706 56.9525C164.522 56.8779 162.914 56.203 161.118 56.0098C159.321 55.8161 157.698 56.188 156.53 56.0098C155.361 55.8317 154.993 55.1034 155 55.0671C155.007 55.0293 156.119 54.9371 157.294 55.0671C158.564 55.2075 160.137 55.8172 161.882 56.0098C163.628 56.1921 165.199 56.8199 166.471 56.9525C167.647 57.0763 168.004 56.9147 168 56.9525Z" fill="white"/>
<path d="M166.848 60.9302C166.836 61.0375 164.195 60.5088 160.922 59.9889C157.65 59.4691 154.984 59.1551 154.997 59.0477C155.009 58.9404 157.65 59.4691 160.922 59.9889C164.195 60.5088 166.86 60.8228 166.848 60.9302Z" fill="white"/>
<path d="M110.273 65C110.273 65 109.057 82.0528 108 85.4277L125.427 86.999L128.458 84.642C128.458 84.642 130.237 69.9709 129.973 65.7857L110.273 65Z" fill="#30394F"/>
<path d="M125.75 85L125 87L128 85H125.75Z" fill="#1F283D"/>
<path d="M127 72.9299C126.991 72.9645 125.931 73.0687 124.667 72.9299C123.308 72.7854 121.881 72.1875 120 71.987C118.114 71.8094 116.695 71.1726 115.333 71.0442C114.065 70.9291 112.996 71.0793 113 71.0442C113.004 71.0115 114.057 70.9736 115.333 71.0442C116.61 71.1148 118.063 71.7933 120 71.987C121.936 72.1813 123.41 71.8037 124.667 71.987C125.924 72.1704 127.007 72.8972 127 72.9299Z" fill="white"/>
<path d="M126 76.9525C125.996 76.9887 124.89 77.0276 123.706 76.9525C122.522 76.8779 120.915 76.203 119.118 76.0098C117.321 75.8161 115.698 76.188 114.53 76.0098C113.361 75.8317 112.993 75.1034 113 75.0671C113.007 75.0293 114.119 74.9371 115.294 75.0671C116.564 75.2075 118.138 75.8166 119.882 76.0098C121.628 76.1921 123.2 76.8199 124.471 76.9525C125.647 77.0763 126.004 76.9147 126 76.9525Z" fill="white"/>
<path d="M124.848 80.9301C124.836 81.0377 122.195 80.5087 118.922 79.989C115.65 79.4692 112.984 79.1554 112.997 79.0478C113.009 78.9402 115.65 79.4692 118.922 79.989C122.195 80.5087 124.86 80.8225 124.848 80.9301Z" fill="white"/>
<path d="M92 34H77V37H92V34Z" fill="#DE314F"/>
<path d="M92 115H77V118H92V115Z" fill="#1F283D"/>
<path d="M92 142H77V145H92V142Z" fill="#1F283D"/>
<path d="M204 14H153V17H204V14Z" fill="#E0E0E0"/>
<path d="M319 14H294V17H319V14Z" fill="#E0E0E0"/>
<path d="M354.068 24.1516C354.068 24.2356 291.592 24.3033 214.541 24.3033C137.463 24.3033 75 24.235 75 24.1516C75 24.0677 137.463 24 214.541 24C291.592 24 354.068 24.0677 354.068 24.1516Z" fill="#1F283D"/>
<path d="M274.666 163.969C274.666 164.137 229.943 164.273 174.787 164.273C119.612 164.273 74.8984 164.136 74.8984 163.969C74.8984 163.802 119.612 163.665 174.787 163.665C229.944 163.664 274.666 163.801 274.666 163.969Z" fill="#1F283D"/>
<path d="M97.2941 164.569C97.2069 164.569 97.1367 130.388 97.1367 88.2325C97.1367 46.0628 97.2076 11.8887 97.2941 11.8887C97.3807 11.8887 97.4515 46.0628 97.4515 88.2325C97.4521 130.388 97.3813 164.569 97.2941 164.569Z" fill="#1F283D"/>
<path d="M267.569 165.358C267.482 165.358 267.412 131.233 267.412 89.1467C267.412 47.0455 267.483 12.9277 267.569 12.9277C267.657 12.9277 267.727 47.0462 267.727 89.1467C267.727 131.233 267.657 165.358 267.569 165.358Z" fill="#1F283D"/>
<path d="M246.275 75.2799C246.277 75.275 246.359 75.3047 246.516 75.3677C246.687 75.4381 246.918 75.5338 247.213 75.6556C247.801 75.9563 248.69 76.3884 249.68 77.1757C250.669 77.9527 251.809 79.0291 252.805 80.5274C253.316 81.2668 253.767 82.1189 254.184 83.0487C254.572 83.9918 254.899 85.0233 255.108 86.1379C255.516 88.3659 255.359 90.9266 254.47 93.4425C253.586 95.9523 251.974 98.4233 249.662 100.341C247.364 102.268 244.324 103.537 241.072 103.799C237.829 104.092 234.366 103.423 231.349 101.714C228.343 99.9882 225.991 97.3463 224.623 94.3837C223.219 91.4284 222.883 88.1246 223.527 85.1912C224.169 82.2535 225.665 79.6867 227.585 77.8388C228.545 76.9133 229.612 76.1648 230.721 75.6175C231.821 75.052 232.956 74.6707 234.06 74.4326C236.268 73.9186 238.336 73.9495 240.115 74.0531C241.901 74.1762 243.422 74.4332 244.656 74.6665C245.891 74.9011 246.842 75.1205 247.486 75.2726C247.795 75.349 248.037 75.409 248.216 75.4532C248.38 75.4956 248.463 75.5199 248.462 75.5253C248.461 75.5308 248.375 75.5168 248.208 75.4847C248.028 75.4477 247.784 75.398 247.472 75.3344C246.824 75.2029 245.87 75.0029 244.634 74.7877C243.399 74.5738 241.879 74.335 240.103 74.2295C238.334 74.1428 236.283 74.1295 234.109 74.6501C233.021 74.892 231.908 75.2738 230.83 75.835C229.745 76.3781 228.704 77.1157 227.766 78.0273C225.891 79.8467 224.431 82.3717 223.811 85.2524C223.188 88.1289 223.521 91.3545 224.902 94.2534C226.247 97.1572 228.559 99.7494 231.505 101.44C234.461 103.114 237.86 103.775 241.045 103.491C244.24 103.237 247.219 102 249.477 100.117C251.749 98.2414 253.344 95.8183 254.223 93.3546C255.108 90.8848 255.275 88.3707 254.888 86.1767C254.689 85.0791 254.374 84.0596 253.999 83.1263C253.594 82.2062 253.157 81.3607 252.658 80.6255C251.688 79.1352 250.572 78.0569 249.604 77.2721C248.633 76.4769 247.761 76.0308 247.185 75.7126C246.896 75.5793 246.67 75.4744 246.503 75.3974C246.351 75.3253 246.273 75.2853 246.275 75.2799Z" fill="#1F283D"/>
<path d="M258.061 72.6531C255.019 75.0761 252.597 77.0954 252.651 77.1635C252.706 77.2316 255.215 75.3227 258.257 72.8998C261.298 70.4769 263.72 68.4575 263.666 68.3894C263.612 68.3213 261.102 70.2302 258.061 72.6531Z" fill="#1F283D"/>
<path d="M263.083 76.6301C263.084 76.6513 262.808 76.6895 262.306 76.7398C261.742 76.7889 261.027 76.8507 260.174 76.9247C258.372 77.0677 255.876 77.2441 253.103 77.421L252.875 77.4356L252.942 77.2186C252.968 77.1356 252.996 77.0453 253.024 76.9556C253.864 74.2185 255.065 71.9008 256.071 70.328C256.572 69.5389 257.016 68.9261 257.338 68.5152C257.661 68.1043 257.854 67.8897 257.87 67.9019C257.888 67.9158 257.728 68.1564 257.438 68.5873C257.148 69.0189 256.734 69.6468 256.261 70.445C255.311 72.036 254.155 74.3421 253.325 77.0489C253.298 77.138 253.27 77.2271 253.244 77.3089L253.083 77.1065C255.856 76.9319 258.354 76.7913 260.16 76.7053C261.016 76.6707 261.732 76.6422 262.298 76.6198C262.803 76.6059 263.082 76.6083 263.083 76.6301Z" fill="#1F283D"/>
<path d="M287.035 108.228L293 139.77L352.559 128.482L342.207 97.7715L287.035 108.228Z" fill="#EBEBEB"/>
<path d="M342.196 97.7631L285.787 108.454L291.071 136.397L347.48 125.706L342.196 97.7631Z" fill="white"/>
<path d="M347.494 125.71C347.494 125.71 347.45 125.535 347.383 125.204C347.314 124.861 347.217 124.376 347.091 123.745C346.838 122.456 346.472 120.579 346 118.171C345.068 113.339 343.724 106.377 342.067 97.7924L342.236 97.908C327.46 100.722 307.613 104.502 285.838 108.649L285.834 108.65L285.989 108.422C287.848 118.271 289.632 127.725 291.262 136.368L291.047 136.221C307.483 133.142 321.566 130.505 331.556 128.633C336.551 127.708 340.522 126.973 343.26 126.466C344.616 126.219 345.667 126.028 346.394 125.896C346.742 125.834 347.011 125.788 347.208 125.753C347.393 125.721 347.494 125.71 347.494 125.71C347.494 125.71 347.41 125.733 347.235 125.77C347.044 125.809 346.783 125.862 346.446 125.931C345.73 126.072 344.695 126.276 343.358 126.54C340.634 127.068 336.683 127.834 331.714 128.798C321.702 130.718 307.589 133.425 291.117 136.583L290.936 136.618L290.902 136.436C289.264 127.794 287.473 118.341 285.607 108.494L285.57 108.302L285.762 108.265L285.766 108.264C307.548 104.156 327.401 100.411 342.183 97.6227L342.325 97.5957L342.352 97.7384C343.951 106.372 345.248 113.373 346.148 118.233C346.586 120.633 346.927 122.504 347.162 123.79C347.272 124.411 347.358 124.89 347.418 125.228C347.474 125.55 347.494 125.71 347.494 125.71Z" fill="#1F283D"/>
<path d="M308.157 110.593L292.561 113.549L295.513 129.164L311.109 126.208L308.157 110.593Z" fill="white"/>
<path d="M311.119 126.223C311.111 126.217 311.086 126.115 311.042 125.921C310.995 125.699 310.936 125.42 310.861 125.072C310.705 124.301 310.487 123.232 310.214 121.889C309.672 119.136 308.911 115.267 307.999 110.638L308.196 110.772C303.656 111.641 298.31 112.664 292.606 113.754C292.57 113.804 292.899 113.323 292.76 113.529L292.761 113.534L292.762 113.542L292.765 113.558L292.771 113.592L292.784 113.659L292.81 113.793L292.86 114.06L292.96 114.593C293.027 114.947 293.094 115.301 293.161 115.652C293.293 116.355 293.425 117.051 293.554 117.74C293.813 119.118 294.066 120.466 294.312 121.778C294.801 124.4 295.263 126.874 295.686 129.148L295.489 129.013C300.126 128.17 304.002 127.466 306.76 126.965C308.108 126.729 309.181 126.54 309.955 126.404C310.305 126.346 310.587 126.299 310.809 126.262C311.006 126.231 311.111 126.217 311.119 126.223C311.126 126.228 311.036 126.251 310.854 126.293C310.642 126.338 310.373 126.395 310.039 126.467C309.278 126.622 308.223 126.837 306.897 127.107C304.122 127.654 300.221 128.424 295.553 129.345L295.388 129.377L295.355 129.21C294.92 126.939 294.446 124.467 293.943 121.847C293.694 120.536 293.437 119.189 293.175 117.812C293.044 117.123 292.912 116.426 292.779 115.724C292.712 115.372 292.645 115.02 292.579 114.665L292.478 114.132L292.428 113.865L292.402 113.731L292.39 113.664L292.384 113.631L292.381 113.614L292.379 113.606L292.378 113.601C292.239 113.804 292.567 113.32 292.535 113.37C298.243 112.298 303.593 111.293 308.136 110.44L308.303 110.408L308.333 110.574C309.182 115.261 309.893 119.177 310.399 121.964C310.632 123.298 310.818 124.36 310.951 125.126C311.007 125.463 311.052 125.735 311.087 125.949C311.115 126.136 311.126 126.228 311.119 126.223Z" fill="#1F283D"/>
<path d="M311.121 126.218C311.087 126.223 311.033 125.815 310.812 125.102C310.584 124.417 310.177 123.322 309.161 122.478L309.146 122.466C308.636 122.008 307.994 121.568 307.214 121.291C306.437 121.01 305.533 120.899 304.59 120.99L304.243 121.024L304.43 120.727C305.071 119.71 305.176 118.238 304.573 116.984C304.277 116.362 303.808 115.793 303.188 115.432C302.575 115.061 301.824 114.897 301.077 114.938C300.235 114.986 299.414 115.279 298.788 115.79C298.149 116.289 297.744 117.01 297.579 117.76C297.249 119.276 297.831 120.842 298.861 121.662L299.047 121.809L298.843 121.933C297.779 122.578 296.995 123.46 296.491 124.337C295.968 125.209 295.719 126.078 295.589 126.793C295.351 128.244 295.595 129.087 295.532 129.091C295.518 129.094 295.46 128.889 295.395 128.495C295.342 128.1 295.301 127.509 295.4 126.763C295.505 126.024 295.735 125.119 296.258 124.202C296.761 123.281 297.561 122.345 298.673 121.65L298.656 121.921C297.509 121.029 296.866 119.342 297.213 117.681C297.387 116.857 297.839 116.044 298.547 115.489C299.24 114.92 300.137 114.599 301.057 114.546C301.874 114.503 302.702 114.682 303.387 115.099C304.08 115.506 304.597 116.14 304.915 116.823C305.566 118.196 305.441 119.793 304.72 120.912L304.56 120.649C305.551 120.563 306.505 120.695 307.32 121.005C308.139 121.312 308.804 121.789 309.321 122.28L309.307 122.269C310.401 123.227 310.742 124.347 310.944 125.064C311.038 125.432 311.087 125.721 311.106 125.918C311.127 126.114 311.133 126.217 311.121 126.218Z" fill="#1F283D"/>
<path d="M314.131 110.058C318.639 109.203 323.148 108.349 327.657 107.494L314.131 110.058Z" fill="white"/>
<path d="M320.919 108.961C324.654 108.253 327.666 107.593 327.646 107.488C327.626 107.382 324.582 107.87 320.847 108.578C317.112 109.285 314.1 109.945 314.12 110.051C314.14 110.157 317.184 109.669 320.919 108.961Z" fill="#1F283D"/>
<path d="M314.727 113.199C315.638 113.025 316.549 112.852 317.461 112.679L314.727 113.199Z" fill="white"/>
<path d="M316.115 113.124C316.87 112.981 317.466 112.779 317.446 112.673C317.426 112.567 316.797 112.597 316.043 112.74C315.288 112.883 314.692 113.085 314.712 113.191C314.732 113.297 315.36 113.267 316.115 113.124Z" fill="#1F283D"/>
<path d="M327.872 116.566C334.549 115.3 339.946 114.189 339.926 114.083C339.906 113.977 334.476 114.917 327.799 116.183C321.122 117.449 315.725 118.56 315.745 118.666C315.765 118.772 321.194 117.832 327.872 116.566Z" fill="#1F283D"/>
<path d="M328.458 119.281C335.173 118.008 340.6 116.89 340.58 116.784C340.56 116.679 335.1 117.625 328.385 118.898C321.67 120.17 316.243 121.288 316.263 121.394C316.283 121.499 321.743 120.553 328.458 119.281Z" fill="#1F283D"/>
<path d="M340.777 120.02C340.782 120.046 340.452 120.135 339.851 120.273C339.172 120.419 338.318 120.602 337.301 120.82C335.144 121.264 332.161 121.852 328.86 122.478C325.558 123.104 322.566 123.649 320.396 124.024C319.37 124.193 318.508 124.336 317.823 124.448C317.214 124.54 316.874 124.578 316.869 124.552C316.864 124.526 317.194 124.437 317.795 124.299C318.474 124.153 319.328 123.97 320.345 123.752C322.502 123.308 325.486 122.72 328.788 122.094C332.088 121.468 335.081 120.923 337.25 120.548C338.276 120.379 339.138 120.236 339.824 120.123C340.433 120.031 340.772 119.993 340.777 120.02Z" fill="#1F283D"/>
<path d="M316.186 106.987C316.183 106.981 316.234 106.95 316.335 106.895C316.458 106.831 316.607 106.755 316.788 106.661C317.191 106.464 317.802 106.203 318.611 105.93C320.227 105.417 322.715 104.882 325.77 105.262C327.29 105.454 328.938 105.852 330.576 106.647C331.38 107.066 332.182 107.608 332.794 108.393C333.415 109.159 333.742 110.265 333.466 111.306C333.202 112.352 332.45 113.197 331.615 113.855C330.772 114.527 329.797 115.026 328.815 115.512C326.835 116.462 324.686 117.286 322.382 117.718C320.086 118.166 317.738 118.183 315.583 117.628C314.513 117.354 313.47 116.976 312.564 116.38C311.671 115.791 310.867 115.002 310.509 113.991C310.14 112.984 310.329 111.859 310.839 111.017C311.338 110.16 312.04 109.501 312.757 108.95C314.213 107.871 315.724 107.116 317.149 106.559C320.023 105.472 322.539 105.277 324.235 105.295C325.089 105.318 325.749 105.379 326.193 105.442C326.394 105.474 326.56 105.5 326.697 105.522C326.81 105.542 326.867 105.556 326.866 105.563C326.865 105.569 326.806 105.569 326.691 105.562C326.554 105.551 326.388 105.537 326.184 105.521C325.74 105.483 325.082 105.447 324.235 105.448C322.551 105.476 320.069 105.713 317.25 106.817C315.853 107.381 314.367 108.145 312.955 109.208C312.263 109.747 311.596 110.389 311.138 111.187C310.671 111.975 310.517 112.97 310.849 113.869C311.17 114.773 311.916 115.512 312.768 116.068C313.625 116.628 314.635 116.993 315.678 117.257C317.769 117.791 320.057 117.774 322.31 117.334C324.57 116.911 326.69 116.102 328.649 115.167C329.626 114.688 330.576 114.203 331.386 113.561C332.191 112.933 332.882 112.145 333.119 111.218C333.367 110.292 333.092 109.317 332.523 108.602C331.964 107.873 331.201 107.343 330.429 106.935C328.854 106.154 327.224 105.74 325.737 105.536C322.736 105.127 320.272 105.611 318.658 106.075C317.85 106.324 317.234 106.56 316.822 106.733C316.635 106.813 316.481 106.877 316.354 106.931C316.246 106.974 316.189 106.993 316.186 106.987Z" fill="#DE314F"/>
<path d="M336.357 103.056C334.077 104.912 332.283 106.485 332.351 106.569C332.419 106.652 334.323 105.215 336.603 103.359C338.884 101.502 340.677 99.9293 340.609 99.8456C340.541 99.7619 338.638 101.199 336.357 103.056Z" fill="#DE314F"/>
<path d="M337.421 105.895C337.443 106.001 335.348 106.521 332.742 107.057C332.549 107.096 332.358 107.135 332.177 107.172L331.877 107.233L331.949 106.936C332.526 104.568 333.572 102.975 333.643 103.027C333.744 103.077 332.865 104.716 332.326 107.027L332.099 106.792C332.28 106.754 332.471 106.715 332.664 106.674C335.269 106.137 337.399 105.789 337.421 105.895Z" fill="#DE314F"/>
<path d="M321.575 110.651C325.692 110.019 329.015 109.42 328.999 109.313C328.983 109.206 325.632 109.633 321.516 110.266C317.4 110.898 314.076 111.498 314.092 111.604C314.108 111.711 317.459 111.284 321.575 110.651Z" fill="#DE314F"/>
<path d="M308.696 107.421C310.609 107.421 312.16 105.868 312.16 103.954C312.16 102.039 310.609 100.486 308.696 100.486C306.783 100.486 305.232 102.039 305.232 103.954C305.232 105.868 306.783 107.421 308.696 107.421Z" fill="#DE314F"/>
<path d="M308.69 107.441C307.998 107.441 307.321 107.234 306.736 106.834C305.967 106.31 305.449 105.517 305.277 104.601C305.103 103.686 305.297 102.759 305.82 101.989C306.345 101.22 307.136 100.7 308.05 100.528C308.268 100.486 308.485 100.467 308.699 100.467C310.339 100.467 311.804 101.634 312.12 103.304C312.477 105.193 311.233 107.02 309.346 107.378C309.127 107.42 308.908 107.441 308.69 107.441ZM308.698 100.504C308.487 100.504 308.272 100.524 308.057 100.564C307.153 100.736 306.37 101.249 305.851 102.01C305.333 102.773 305.142 103.689 305.313 104.594C305.484 105.499 305.997 106.283 306.757 106.802C307.517 107.321 308.434 107.513 309.338 107.341C311.204 106.987 312.435 105.18 312.082 103.312C311.77 101.66 310.321 100.504 308.698 100.504Z" fill="#1F283D"/>
<path d="M218.634 166.324C218.634 166.324 203.012 169.863 198.218 171.279C193.424 172.695 188.986 173.757 189.874 175.881C190.762 178.005 185.081 195.704 185.081 195.704L177.092 214.996L188.454 223.845L197.507 206.323L205.674 246.146H260.531C260.531 246.146 258.933 179.775 256.27 176.412C253.607 173.05 232.481 165.793 227.332 165.262C222.185 164.731 218.634 166.324 218.634 166.324Z" fill="#DE314F" stroke="#141C2D" stroke-width="0.43" stroke-miterlimit="10" stroke-linecap="round" stroke-linejoin="round"/>
<path d="M244.464 204.485C244.464 204.485 240.858 196.998 238.455 188.912" stroke="#141C2D" stroke-width="0.43" stroke-miterlimit="10" stroke-linecap="round" stroke-linejoin="round"/>
<path d="M239.369 203.037C240.808 204.776 243.096 206.602 246.567 207.179" stroke="#141C2D" stroke-width="0.43" stroke-miterlimit="10" stroke-linecap="round" stroke-linejoin="round"/>
<path d="M237.254 199.392C237.254 199.392 237.547 200.311 238.291 201.526" stroke="#141C2D" stroke-width="0.43" stroke-miterlimit="10" stroke-linecap="round" stroke-linejoin="round"/>
<path d="M194.465 189.841L197.508 206.323L191.959 189.838" stroke="#141C2D" stroke-width="0.43" stroke-miterlimit="10" stroke-linecap="round" stroke-linejoin="round"/>
<path d="M193.404 184.084L194.043 187.547" stroke="#141C2D" stroke-width="0.43" stroke-miterlimit="10" stroke-linecap="round" stroke-linejoin="round"/>
<path d="M211.416 165.268C211.416 165.268 207.392 170.115 207.057 174.795C206.721 179.475 207.521 194.342 207.521 194.342C207.521 194.342 215.775 189.837 219.127 189.837C222.481 189.837 230.192 196.355 230.192 196.355C230.192 196.355 235.39 179.641 232.707 169.78C230.025 159.919 218.457 157.412 211.416 165.268Z" fill="white" stroke="#141C2D" stroke-width="0.43" stroke-miterlimit="10" stroke-linecap="round" stroke-linejoin="round"/>
<path d="M211.75 166.939C211.75 166.939 213.091 173.123 214.097 177.134C215.103 181.146 217.785 190.505 219.127 189.837C220.468 189.168 226.336 175.295 226.504 171.786C226.576 170.274 229.593 163.23 226.927 161.426C223.403 159.042 213.754 162.466 211.75 166.939Z" fill="#FFBE9D" stroke="#141C2D" stroke-width="0.43" stroke-miterlimit="10" stroke-linecap="round" stroke-linejoin="round"/>
<path d="M214.098 177.135C214.353 178.151 214.716 179.512 215.137 180.967C215.991 180.23 216.992 179.344 218.175 178.267C224.696 172.331 226.114 167.525 226.114 167.525L212.191 168.941C212.669 171.096 213.452 174.559 214.098 177.135Z" fill="#141C2D" stroke="#141C2D" stroke-width="0.43" stroke-miterlimit="10" stroke-linecap="round"/>
<path d="M190.761 219.418C190.761 219.418 189.696 215.17 183.659 212.869C177.623 210.568 176.913 211.63 176.025 213.4C175.137 215.171 172.474 217.825 173.007 219.595C173.54 221.365 175.67 225.612 183.482 227.205C191.294 228.798 189.696 224.905 190.583 223.843C191.471 222.78 192.359 223.312 190.761 219.418Z" fill="white" stroke="#141C2D" stroke-width="0.43" stroke-miterlimit="10" stroke-linecap="round" stroke-linejoin="round"/>
<path d="M132.708 235.864C132.708 235.864 124.719 238.519 125.074 240.288C125.429 242.058 132.886 238.165 132.886 238.165C132.886 238.165 134.129 240.466 136.436 239.58C138.744 238.695 136.791 235.155 135.549 235.333C134.306 235.51 132.708 235.864 132.708 235.864Z" fill="#FFBE9D" stroke="#141C2D" stroke-width="0.43" stroke-miterlimit="10" stroke-linecap="round" stroke-linejoin="round"/>
<path d="M175.493 234.447C175.493 234.447 186.323 228.606 186.323 225.775C186.323 222.943 178.156 219.226 176.026 219.404C173.896 219.581 173.008 220.289 171.41 222.944C169.812 225.598 156.852 237.634 156.852 237.634C156.852 237.634 148.331 231.616 145.846 231.616C143.361 231.616 137.679 238.165 137.324 240.82C136.969 243.475 149.041 244.714 153.835 244.714C159.735 244.712 175.493 234.447 175.493 234.447Z" fill="#FFBE9D" stroke="#141C2D" stroke-width="0.43" stroke-miterlimit="10" stroke-linecap="round" stroke-linejoin="round"/>
<path d="M149.425 240.521C149.425 240.521 142.733 233.001 134.13 236.439C125.526 239.876 126.291 245.677 126.291 245.677H151.336C151.336 245.677 151.719 243.099 149.425 240.521Z" fill="#FFBE9D" stroke="#141C2D" stroke-width="0.43" stroke-miterlimit="10" stroke-linecap="round" stroke-linejoin="round"/>
<path d="M136.514 231.563C136.514 231.563 133.433 232.048 132.898 232.816C132.362 233.584 129.049 238.007 130.163 238.95C131.277 239.892 134.698 234.576 135.435 234.175C136.171 233.775 137.402 232.748 136.514 231.563Z" fill="#FFBE9D" stroke="#141C2D" stroke-width="0.43" stroke-miterlimit="10" stroke-linecap="round" stroke-linejoin="round"/>
<path d="M139.402 232.254C139.402 232.254 138.112 230.335 136.514 231.562C134.915 232.789 132.431 238.071 132.666 239.373C132.901 240.675 134.658 239.956 135.562 238.988C136.466 238.021 139.402 232.254 139.402 232.254Z" fill="#FFBE9D" stroke="#141C2D" stroke-width="0.43" stroke-miterlimit="10" stroke-linecap="round" stroke-linejoin="round"/>
<path d="M146.911 232.677C146.911 232.677 143.538 229.845 141.585 229.668C139.632 229.491 138.922 230.907 138.744 232.5C138.567 234.093 136.081 241.35 136.791 241.704C137.501 242.058 138.921 241.881 139.809 240.288C140.697 238.695 142.472 233.563 142.472 233.563L143.892 234.625" fill="#FFBE9D"/>
<path d="M146.911 232.677C146.911 232.677 143.538 229.845 141.585 229.668C139.632 229.491 138.922 230.907 138.744 232.5C138.567 234.093 136.081 241.35 136.791 241.704C137.501 242.058 138.921 241.881 139.809 240.288C140.697 238.695 142.472 233.563 142.472 233.563L143.892 234.625" stroke="#141C2D" stroke-width="0.43" stroke-miterlimit="10" stroke-linecap="round" stroke-linejoin="round"/>
<path d="M149.805 236.907C149.805 236.907 149.231 238.432 148.658 239.766C148.084 241.1 138.525 242.816 138.143 244.531C137.761 246.247 143.687 245.103 145.79 245.103C147.893 245.103 151.717 245.675 154.011 243.769C156.305 241.863 157.07 241.481 157.07 241.481" fill="#FFBE9D"/>
<path d="M149.805 236.907C149.805 236.907 149.231 238.432 148.658 239.766C148.084 241.1 138.525 242.816 138.143 244.531C137.761 246.247 143.687 245.103 145.79 245.103C147.893 245.103 151.717 245.675 154.011 243.769C156.305 241.863 157.07 241.481 157.07 241.481" stroke="#141C2D" stroke-width="0.43" stroke-miterlimit="10" stroke-linecap="round" stroke-linejoin="round"/>
<path d="M246.684 184.021C246.684 184.021 244.554 187.738 243.843 189.862C243.133 191.986 245.086 218.18 245.086 218.18C245.086 218.18 248.637 216.941 252.365 217.826C256.093 218.711 263.549 222.782 263.549 222.782C263.549 222.782 264.259 215.172 263.016 209.508C261.773 203.845 259.466 181.013 257.868 178.712C256.27 176.411 256.803 175.172 253.43 176.411" fill="#DE314F"/>
<path d="M246.684 184.021C246.684 184.021 244.554 187.738 243.843 189.862C243.133 191.986 245.086 218.18 245.086 218.18C245.086 218.18 248.637 216.941 252.365 217.826C256.093 218.711 263.549 222.782 263.549 222.782C263.549 222.782 264.259 215.172 263.016 209.508C261.773 203.845 259.466 181.013 257.868 178.712C256.27 176.411 256.803 175.172 253.43 176.411" stroke="#141C2D" stroke-width="0.43" stroke-miterlimit="10" stroke-linecap="round" stroke-linejoin="round"/>
<path d="M266.035 218.358C266.035 218.358 261.241 214.287 257.513 213.402C253.785 212.517 246.684 213.402 245.618 213.756C244.553 214.11 243.843 215.349 243.666 217.119C243.488 218.888 242.246 220.127 243.133 221.189C244.021 222.251 248.991 225.613 253.074 226.676C257.157 227.738 263.371 227.384 264.259 224.729C265.147 222.074 266.922 220.305 266.035 218.358Z" fill="white" stroke="#141C2D" stroke-width="0.43" stroke-miterlimit="10" stroke-linecap="round" stroke-linejoin="round"/>
<path d="M170.957 232.67C170.957 232.67 165.24 235.112 163.403 235.723C161.565 236.334 160.948 238.018 162.586 238.572C164.224 239.127 171.682 236.336 172.386 236.537C173.089 236.738 180.756 239.183 183.206 239.387C185.656 239.59 187.698 237.962 187.698 237.962C187.698 237.962 176.061 230.634 170.957 232.67Z" fill="#FFBE9D" stroke="#141C2D" stroke-width="0.43" stroke-miterlimit="10" stroke-linecap="round" stroke-linejoin="round"/>
<path d="M258.402 229.701C262.589 228.397 263.183 222.632 259.369 220.47C258.233 219.826 256.903 219.255 255.381 218.888C249.522 217.472 244.374 218.888 242.598 219.596C240.823 220.304 200.967 232.466 198.109 232.873C195.251 233.28 176.471 226.972 173.61 226.767C169.821 226.496 165.447 236.468 164.223 239.127C164.022 239.563 163.824 240.022 163.843 240.502C163.862 240.982 164.168 241.485 164.642 241.57C165.182 241.666 165.653 241.216 165.996 240.79C168.52 237.651 169.905 233.555 173.09 231.084C171.617 233.918 170.144 236.752 168.671 239.586C168.432 240.047 168.187 240.525 168.159 241.043C168.132 241.562 168.383 242.133 168.871 242.311C169.565 242.565 170.258 241.945 170.68 241.34C171.674 239.919 172.284 238.274 173.088 236.738C173.892 235.202 174.966 233.709 176.532 232.959C174.795 235.931 173.382 239.091 172.327 242.365C172.161 242.881 172.366 243.486 172.862 243.707C173.552 244.013 174.071 243.344 174.4 242.771C175.982 240.018 177.563 237.266 179.144 234.513C177.891 237.36 176.76 240.26 175.752 243.202C175.683 243.403 175.614 243.619 175.671 243.824C175.728 244.031 175.907 244.186 176.104 244.272C176.628 244.502 177.263 244.292 177.685 243.907C178.108 243.521 178.362 242.991 178.599 242.471C179.449 240.609 180.057 238.62 180.939 236.787C183.388 237.308 185.431 239.586 188.105 239.997C190.759 240.404 195.659 239.183 195.659 239.183C195.659 239.183 244.374 232.516 250.765 231.277C253.642 230.719 256.23 230.377 258.402 229.701Z" fill="#FFBE9D" stroke="#141C2D" stroke-width="0.43" stroke-miterlimit="10" stroke-linecap="round" stroke-linejoin="round"/>
<path d="M231.008 145.21C232.25 144.5 233.834 144.646 234.861 145.639C235.929 146.671 235.658 150.298 235.298 152.657C234.593 157.277 231.239 158.616 231.239 158.616C231.239 158.616 226.3 169.666 222.151 173.437C218.003 177.208 213.141 178.493 207.082 169.464C204.417 165.491 200.398 146.563 200.398 146.563C200.398 146.563 198.892 142.16 201.161 138.481C203.431 134.802 210.756 131.458 215.574 131.182C220.392 130.906 224.531 133.873 226.937 136.454C229.343 139.036 230.573 143.122 230.573 143.122L230.882 145.282L231.008 145.21Z" fill="#FFBE9D" stroke="#141C2D" stroke-width="0.43" stroke-miterlimit="10"/>
<path d="M214.995 161.369C214.977 161.28 213.987 161.395 212.406 161.649C212.008 161.723 211.619 161.754 211.476 161.51C211.303 161.258 211.342 160.795 211.397 160.29C211.485 159.25 211.828 159.011 211.924 157.868C212.276 153.22 211.382 150.671 211.195 150.658C211.008 150.645 211.597 153.175 211.245 157.825C211.167 158.968 210.841 159.208 210.771 160.25C210.755 160.731 210.65 161.303 211.018 161.823C211.207 162.081 211.553 162.207 211.82 162.2C212.09 162.203 212.309 162.142 212.502 162.098C214.06 161.729 215.014 161.456 214.995 161.369Z" fill="#263238"/>
<path d="M217.634 151.227C217.654 151.798 217.187 152.285 216.59 152.317C215.995 152.349 215.496 151.914 215.475 151.344C215.455 150.773 215.922 150.286 216.518 150.254C217.114 150.221 217.614 150.657 217.634 151.227Z" fill="#141C2D"/>
<path d="M207.899 152.868C208.048 153.419 207.704 154 207.131 154.166C206.558 154.332 205.973 154.022 205.823 153.471C205.674 152.92 206.018 152.34 206.59 152.173C207.164 152.006 207.75 152.317 207.899 152.868Z" fill="#141C2D"/>
<path d="M218.949 150.397C218.815 150.538 217.995 149.932 216.83 149.935C215.667 149.921 214.813 150.52 214.686 150.377C214.624 150.314 214.76 150.06 215.133 149.789C215.499 149.52 216.123 149.258 216.849 149.261C217.574 149.264 218.185 149.531 218.535 149.804C218.893 150.079 219.015 150.334 218.949 150.397Z" fill="#141C2D"/>
<path d="M208.992 151.76C208.894 151.927 207.957 151.523 206.824 151.791C205.688 152.041 204.992 152.817 204.836 152.707C204.762 152.66 204.837 152.381 205.137 152.033C205.432 151.688 205.981 151.291 206.689 151.129C207.396 150.968 208.051 151.09 208.455 151.276C208.866 151.462 209.042 151.683 208.992 151.76Z" fill="#141C2D"/>
<path d="M218.45 146.465C218.45 146.465 216.409 144.575 213.34 145.502" stroke="#141C2D" stroke-width="0.86" stroke-miterlimit="10" stroke-linecap="round"/>
<path d="M207.732 148.185C207.732 148.185 205.212 147.527 203.531 149.979" stroke="#141C2D" stroke-width="0.86" stroke-miterlimit="10" stroke-linecap="round"/>
<path d="M213.906 165.909C213.906 165.909 217.88 165.714 219.69 162.822" stroke="#141C2D" stroke-width="0.43" stroke-miterlimit="10" stroke-linecap="round"/>
<path d="M217.818 125.568C217.818 125.568 209.863 122.727 204.168 124.918C198.473 127.109 198.838 130.152 195.417 131.779C191.997 133.406 187.775 135.755 188.864 140.825C189.62 144.342 194.552 147.567 200.394 146.561C206.237 145.556 213.203 141.011 215.268 139.907C217.333 138.802 221.505 137.507 221.505 137.507C221.505 137.507 221.867 143.27 224.122 144.266C226.377 145.262 227.067 146.239 227.486 147.32C227.904 148.401 229.388 150.626 229.388 150.626L231.225 150.541L230.888 147.253C230.888 147.253 233.052 142.382 231.982 137.202C230.911 132.022 224.959 128.72 224.959 128.72L217.818 125.568Z" fill="#141C2D"/>
<path d="M198.943 144.593C198.943 144.593 208.891 142.775 214.997 136.982C221.102 131.189 212.518 127.604 212.518 127.604" stroke="white" stroke-width="0.185631" stroke-miterlimit="10" stroke-linecap="round"/>
<path d="M213.828 126.526C214.58 126.237 222.681 128.573 222.782 132.552C222.883 136.53 220.474 137.744 220.474 137.744" stroke="white" stroke-width="0.185631" stroke-miterlimit="10" stroke-linecap="round"/>
<path d="M186.939 243.492H141.443V245.865H186.939V243.492Z" fill="#3B455B" stroke="#141C2D" stroke-width="0.43" stroke-miterlimit="10" stroke-linecap="round" stroke-linejoin="round"/>
<path d="M175.18 243.492H118.246V245.865H175.18V243.492Z" fill="#3B455B" stroke="#141C2D" stroke-width="0.43" stroke-miterlimit="10" stroke-linecap="round" stroke-linejoin="round"/>
<path d="M119.727 243.224H97.2988V245.643H119.727V243.224Z" fill="#3B455B" stroke="#141C2D" stroke-width="0.43" stroke-miterlimit="10" stroke-linecap="round" stroke-linejoin="round"/>
<path d="M140.967 192.406H73.0508V236.073H140.967V192.406Z" fill="#3B455B" stroke="#141C2D" stroke-width="0.43" stroke-miterlimit="10" stroke-linecap="round" stroke-linejoin="round"/>
<path d="M137.26 192.406H73.0508V236.073H137.26V192.406Z" fill="#141C2D" stroke="#141C2D" stroke-width="0.43" stroke-miterlimit="10" stroke-linecap="round" stroke-linejoin="round"/>
<path d="M111.413 212.698H96.5527V246.409H111.413V212.698Z" fill="#3B455B" stroke="#141C2D" stroke-width="0.43" stroke-miterlimit="10" stroke-linecap="round" stroke-linejoin="round"/>
<path d="M110.043 212.698H95.1836V246.409H110.043V212.698Z" fill="#141C2D" stroke="#141C2D" stroke-width="0.43" stroke-miterlimit="10" stroke-linecap="round" stroke-linejoin="round"/>
<path d="M111.029 213.097H94.8359V236.179" stroke="#3B455B" stroke-width="0.43" stroke-miterlimit="10" stroke-linecap="round" stroke-linejoin="round"/>
<path d="M293.467 245.947H0V251.176H293.467V245.947Z" fill="#141C2D" stroke="#141C2D" stroke-width="0.43" stroke-miterlimit="10" stroke-linecap="round" stroke-linejoin="round"/>
<path d="M46.2864 256.538C46.2864 256.538 43.7251 238.969 43.9385 228.748C44.1519 218.527 43.9258 207.027 43.9258 207.027H45.1061C45.1061 207.027 44.3071 227.316 45.177 239.552C46.0463 251.78 48.3366 256.538 48.3366 256.538H46.2864Z" fill="#6AB872"/>
<path d="M53.9152 187.261C53.6775 186.661 53.386 186.036 52.8398 185.691C52.0912 185.217 51.1099 185.414 50.274 185.709C46.708 186.967 43.5469 193.6 42.1055 197.089L46.8395 213.005C55.3851 205.095 56.8647 194.719 53.9152 187.261Z" fill="#4D9654"/>
<path d="M52.5694 186.336C52.5755 186.339 52.5519 186.41 52.5009 186.543C52.4397 186.696 52.3633 186.888 52.2693 187.123C52.062 187.624 51.7704 188.352 51.4224 189.257C50.7246 191.064 49.8364 193.59 49.0428 196.437C48.2522 199.286 47.7072 201.908 47.3713 203.816C47.2028 204.769 47.0755 205.543 46.9948 206.079C46.9536 206.329 46.9203 206.533 46.8936 206.695C46.8681 206.836 46.8517 206.909 46.8451 206.909C46.8384 206.908 46.842 206.833 46.8548 206.69C46.8718 206.527 46.893 206.321 46.9196 206.069C46.9772 205.53 47.0839 204.752 47.2355 203.793C47.5374 201.877 48.0619 199.242 48.8555 196.386C49.6515 193.531 50.5627 191.004 51.2951 189.207C51.66 188.308 51.9711 187.586 52.2008 187.094C52.3087 186.865 52.3966 186.677 52.4664 186.528C52.5276 186.4 52.5634 186.334 52.5694 186.336Z" fill="#6AB872"/>
<path d="M44.7403 216.821C40.3027 214.374 37.6877 209.772 37.4434 204.72C37.2731 201.188 38.3606 197.723 39.5929 194.407C39.6995 194.119 39.8268 193.81 40.0942 193.659C40.4663 193.448 40.9319 193.636 41.304 193.847C44.5288 195.678 46.4824 199.171 47.522 202.725C48.2136 205.09 48.5718 207.583 48.2518 210.026C47.9317 212.469 46.5321 215.126 44.7403 216.821Z" fill="#6AB872"/>
<path d="M44.7395 216.82C44.7328 216.82 44.7268 216.747 44.7219 216.607C44.7189 216.445 44.7146 216.243 44.7104 215.996C44.7086 215.466 44.6874 214.699 44.6437 213.752C44.5582 211.859 44.3097 209.25 43.8198 206.4C43.3275 203.549 42.7297 200.996 42.2896 199.151C42.0725 198.249 41.8949 197.509 41.7645 196.967C41.7094 196.726 41.6639 196.529 41.6281 196.371C41.599 196.235 41.5869 196.162 41.5936 196.16C41.6003 196.158 41.6251 196.228 41.6663 196.362C41.7118 196.516 41.7688 196.711 41.8385 196.948C41.9846 197.459 42.1859 198.2 42.4242 199.119C42.8989 200.957 43.5191 203.509 44.0126 206.368C44.5037 209.226 44.7316 211.848 44.7819 213.747C44.808 214.697 44.8086 215.466 44.7862 215.997C44.7759 216.245 44.768 216.447 44.7613 216.608C44.754 216.747 44.7468 216.82 44.7395 216.82Z" fill="#6AB872"/>
<g opacity="0.3">
<path d="M44.7403 216.821C40.3027 214.374 37.6877 209.772 37.4434 204.72C37.2731 201.188 38.3606 197.723 39.5929 194.407C39.6995 194.119 39.8268 193.81 40.0942 193.659C40.4663 193.448 40.9319 193.636 41.304 193.847C44.5288 195.678 46.4824 199.171 47.522 202.725C48.2136 205.09 48.5718 207.583 48.2518 210.026C47.9317 212.469 46.5321 215.126 44.7403 216.821Z" fill="#6AB872"/>
</g>
<path d="M49.7461 243.701C54.1134 244.658 57.7097 247.732 61.9231 249.226C64.7108 250.215 67.8634 250.565 70.0886 252.51C69.5546 251.165 68.2883 250.268 67.0584 249.501C63.5937 247.342 59.8834 245.575 56.0216 244.245C54.0395 243.562 51.8888 242.991 49.8685 243.554" fill="#6AB872"/>
<path d="M43.4281 247.582C37.9588 247.495 32.1997 242.849 26.7559 242.571C32.4525 240.736 40.6101 242.236 43.4281 247.582Z" fill="#6AB872"/>
<path d="M45.5684 234.492C48.3458 233.494 51.3953 233.446 54.3121 233.898C57.2295 234.351 60.0469 235.284 62.8486 236.213C62.5679 234.32 61.0313 232.896 59.5875 231.636C58.5013 230.687 57.4059 229.733 56.1597 229.007C54.9134 228.28 53.4908 227.789 52.0487 227.85C50.3091 227.924 48.6525 228.819 47.5117 230.132C46.3709 231.445 45.7575 232.765 45.5684 234.492Z" fill="#4D9654"/>
<path d="M34.344 228.468C30.901 225.535 25.6863 225.822 21.1602 225.923C28.1176 229.242 35.6145 233.792 41.6063 238.636C41.79 235.443 38.6925 232.172 34.344 228.468Z" fill="#6AB872"/>
<g opacity="0.3">
<path d="M34.344 228.469C30.901 225.536 25.6863 225.823 21.1602 225.924C28.1176 229.243 35.6145 233.793 41.6063 238.637C41.79 235.444 38.6925 232.173 34.344 228.469Z" fill="#6AB872"/>
</g>
<path d="M47.1162 224.418C48.8474 223.267 50.5985 222.169 52.4109 221.348C54.2233 220.526 55.9139 219.218 57.6639 218.272C59.9333 217.046 61.8997 215.342 63.9824 213.821C66.0658 212.302 68.354 210.929 70.9029 210.527C68.8244 210.098 66.6525 210.332 64.6049 210.89C62.5574 211.448 60.6122 212.322 58.6774 213.191C55.9915 214.398 53.259 215.635 51.0635 217.595C48.8686 219.554 46.884 221.488 47.1162 224.418Z" fill="#4D9654"/>
<path d="M61.8218 247.582C61.8182 247.588 61.7588 247.562 61.6484 247.507C61.5193 247.441 61.3617 247.359 61.1714 247.261C60.7598 247.042 60.1682 246.718 59.4232 246.344C59.0547 246.15 58.6462 245.948 58.2031 245.74C57.7642 245.522 57.2878 245.308 56.7828 245.091C55.773 244.66 54.6449 244.211 53.4151 243.92C52.1888 243.62 50.9668 243.554 49.9066 243.832C49.372 243.96 48.8683 244.088 48.4203 244.274C47.9706 244.456 47.5699 244.669 47.2202 244.889C46.5195 245.329 46.0297 245.795 45.7121 246.131C45.395 246.47 45.2411 246.678 45.2271 246.667C45.2217 246.662 45.2556 246.607 45.3253 246.506C45.3938 246.404 45.5041 246.26 45.6557 246.081C45.9594 245.726 46.4413 245.237 47.1456 244.773C47.4966 244.542 47.9021 244.317 48.3591 244.125C48.8156 243.927 49.3302 243.791 49.8654 243.657C50.9486 243.361 52.2191 243.424 53.4605 243.73C54.7098 244.026 55.8433 244.484 56.8556 244.926C57.3611 245.15 57.8376 245.371 58.2746 245.595C58.7165 245.81 59.1226 246.02 59.4881 246.222C60.2264 246.612 60.8083 246.955 61.2096 247.195C61.3932 247.306 61.5448 247.398 61.669 247.473C61.7727 247.539 61.8254 247.576 61.8218 247.582Z" fill="#4D9654"/>
<path d="M39.3518 244.879C39.3567 244.867 39.4779 244.903 39.6944 244.979C39.912 245.052 40.2176 245.184 40.5856 245.366C41.3216 245.728 42.2898 246.346 43.1992 247.215C44.1061 248.086 44.7633 249.027 45.1562 249.746C45.3538 250.105 45.4969 250.405 45.5788 250.619C45.6642 250.832 45.7049 250.951 45.6927 250.956C45.6612 250.97 45.4569 250.508 45.0368 249.815C44.6184 249.122 43.9552 248.212 43.064 247.355C42.1703 246.501 41.2318 245.877 40.5213 245.487C39.8108 245.097 39.3391 244.911 39.3518 244.879Z" fill="#6AB872"/>
<path d="M27.2461 228.196C27.2486 228.19 27.3286 228.214 27.4789 228.265C27.648 228.325 27.8656 228.402 28.1354 228.498C28.4269 228.605 28.773 228.733 29.1707 228.879C29.5738 229.028 30.012 229.249 30.5078 229.467C32.4772 230.359 35.0976 231.86 37.6283 233.993C38.8764 235.077 40.0051 236.179 40.9488 237.255C41.889 238.334 42.6849 239.349 43.3056 240.234C43.9299 241.117 44.4033 241.852 44.7282 242.361C44.8816 242.601 45.0058 242.795 45.1022 242.946C45.1871 243.08 45.2289 243.153 45.2234 243.157C45.218 243.161 45.1652 243.096 45.0701 242.969C44.9743 242.842 44.8355 242.652 44.6652 242.404C44.3209 241.908 43.8305 241.185 43.194 240.316C42.5612 239.443 41.7574 238.442 40.8149 237.375C39.8687 236.311 38.743 235.219 37.5022 234.142C34.9867 232.022 32.3954 230.513 30.449 229.592C29.9593 229.367 29.5271 229.138 29.1288 228.98C28.7373 228.822 28.396 228.685 28.1087 228.569C27.845 228.46 27.6316 228.371 27.4662 228.303C27.3201 228.239 27.2443 228.202 27.2461 228.196Z" fill="#6AB872"/>
<path d="M53.7724 231.426C53.7688 231.439 53.613 231.418 53.3366 231.37C53.1862 231.342 53.0196 231.312 52.8341 231.277C52.6389 231.239 52.4104 231.239 52.1625 231.213C51.1787 231.142 49.7457 231.223 48.4037 231.953C47.726 232.295 47.1581 232.757 46.6931 233.22C46.2209 233.679 45.8633 234.158 45.5936 234.576C45.045 235.414 44.8753 236.02 44.8419 236.008C44.831 236.005 44.8619 235.851 44.9529 235.583C45.0535 235.319 45.2081 234.936 45.4766 234.504C45.736 234.068 46.0894 233.571 46.5652 233.094C47.0338 232.613 47.6151 232.134 48.3122 231.782C49.6966 231.029 51.1793 230.968 52.174 231.077C52.4255 231.112 52.6565 231.123 52.8523 231.171C53.0371 231.218 53.2032 231.26 53.3529 231.297C53.6269 231.368 53.776 231.413 53.7724 231.426Z" fill="#6AB872"/>
<path d="M59.2683 214.41C59.2714 214.416 59.1999 214.46 59.0616 214.537C58.904 214.622 58.7016 214.732 58.4513 214.868C57.9203 215.153 57.1571 215.574 56.2291 216.119C55.3059 216.672 54.2179 217.35 53.0607 218.176C51.9066 219.003 50.667 219.965 49.5232 221.133C48.9589 221.721 48.4388 222.335 48.0763 223.002C47.7181 223.688 47.3756 224.352 47.061 224.989C46.4288 226.262 45.9136 227.433 45.5414 228.44C45.1704 229.448 44.9395 230.286 44.8019 230.87C44.6619 231.454 44.6116 231.783 44.5922 231.78C44.5855 231.779 44.5934 231.696 44.614 231.539C44.634 231.382 44.6673 231.149 44.7279 230.854C44.8425 230.262 45.0553 229.412 45.4117 228.393C45.7693 227.375 46.2742 226.191 46.8998 224.91C47.2113 224.269 47.5508 223.602 47.9072 222.914C48.2836 222.216 48.8122 221.594 49.3838 220.998C50.5416 219.815 51.7921 218.853 52.9577 218.029C54.1263 217.208 55.2259 216.539 56.1606 216C57.1001 215.468 57.8748 215.065 58.4173 214.8C58.6749 214.678 58.8828 214.579 59.0447 214.502C59.1883 214.436 59.2653 214.404 59.2683 214.41Z" fill="#6AB872"/>
<path d="M43.9341 230.933C43.9208 230.934 43.8826 230.771 43.8256 230.473C43.7619 230.136 43.6819 229.714 43.5861 229.212C43.3776 228.15 43.0593 226.686 42.5518 225.117C42.0486 223.545 41.4369 222.178 40.9895 221.191C40.7773 220.726 40.5985 220.334 40.456 220.022C40.3317 219.745 40.2686 219.589 40.2808 219.583C40.2929 219.577 40.379 219.722 40.5245 219.988C40.67 220.255 40.8737 220.644 41.1144 221.131C41.5945 222.105 42.2305 223.473 42.738 225.057C43.249 226.638 43.5485 228.116 43.7225 229.187C43.808 229.723 43.8699 230.159 43.9014 230.46C43.9353 230.763 43.9475 230.931 43.9341 230.933Z" fill="#6AB872"/>
<path d="M43.539 218.517C43.402 216.455 42.7286 214.451 41.7605 212.625C39.1056 207.617 34.1163 203.905 28.5488 202.795C32.6258 208.858 36.7034 214.921 40.7804 220.984L42.36 224.23C43.4372 222.466 43.676 220.578 43.539 218.517Z" fill="#6AB872"/>
<path d="M61.0826 254.363H32.6406V259.393H61.0826V254.363Z" fill="#141C2D"/>
<path d="M34.7637 258.395L37.1859 274.001H56.0675L58.9577 258.395H34.7637Z" fill="#141C2D"/>
<path d="M46.7404 259.5C54.6538 259.5 61.0688 259.455 61.0688 259.4C61.0688 259.345 54.6538 259.3 46.7404 259.3C38.8271 259.3 32.4121 259.345 32.4121 259.4C32.4121 259.455 38.8271 259.5 46.7404 259.5Z" fill="#141C2D"/>
</svg>
