<svg width="20" height="20" viewBox="0 0 20 20" fill="none" xmlns="http://www.w3.org/2000/svg">
<path d="M0 20L1.72 14.8403C0.847241 13.3724 0.344828 11.6593 0.344828 9.82759C0.344828 4.4 4.74483 0 10.1724 0C15.6 0 20 4.4 20 9.82759C20 15.2552 15.6 19.6552 10.1724 19.6552C8.52103 19.6552 6.96586 19.2459 5.6 18.5266L0 20Z" fill="#DE314F"/>
<path d="M15.9031 13.5508C15.501 12.7908 14.0181 11.9219 14.0181 11.9219C13.6826 11.7306 13.2778 11.7092 13.0865 12.0502C13.0865 12.0502 12.6046 12.628 12.4821 12.7111C11.9223 13.0903 11.4038 13.0756 10.8804 12.5522L9.66397 11.3358L8.44755 10.1194C7.92413 9.59601 7.90946 9.07749 8.28866 8.51772C8.37177 8.39519 8.94958 7.91334 8.94958 7.91334C9.29058 7.72176 9.26919 7.31721 9.07791 6.98172C9.07791 6.98172 8.20891 5.49888 7.44899 5.09677C7.12571 4.92567 6.72879 4.98555 6.47029 5.24405L5.93312 5.78121C4.22904 7.48526 5.06809 9.40901 6.77218 11.1131L8.3296 12.6705L9.88703 14.2279C11.5911 15.9319 13.5149 16.7709 15.219 15.0669L15.7562 14.5297C16.0147 14.2706 16.0742 13.8737 15.9031 13.5508Z" fill="#1F283D"/>
</svg>
